<?xml version="1.0" encoding="utf-8"?>
<!-- Generator: Adobe Illustrator 19.0.0, SVG Export Plug-In . SVG Version: 6.00 Build 0)  -->
<svg version="1.1" id="Capa_1" xmlns="http://www.w3.org/2000/svg" xmlns:xlink="http://www.w3.org/1999/xlink" x="0px" y="0px"
	 viewBox="299 -297.5 618.5 618.5" style="enable-background:new 299 -297.5 618.5 618.5;" xml:space="preserve">
<style type="text/css">
	.st0{fill:#F1AA28;}
</style>
<g>
	<g>
		<path class="st0" d="M901.3-284.9c-8.3-8.2-18.7-12.6-30.5-12.6H472.1c-24.4,0-44.2,18.7-44.2,43.1v84h40.6v-84
			c0-2.5,1.1-3.6,3.6-3.6h398.7c2.5,0,3.6,1.1,3.6,3.6v287c0,2.5-1.1,3.6-3.6,3.6h-54.2v39.9h54.2c11.9,0,22.2-4.4,30.5-12.6
			c8.5-8.4,12.9-18.7,12.9-30.9v-287C914.2-266.6,909.8-276.5,901.3-284.9z"/>
		<path class="st0" d="M744.3-128.3H345.7c-12.2,0-22.6,4.3-30.9,12.9s-12.6,19-12.6,31.2v286.6c0,11.9,4.2,22.3,12.6,30.9
			c8.2,8.4,18.7,12.6,30.9,12.6H526L661,321v-75.1h83.3c12.2,0,22.7-4.2,30.9-12.6c8.4-8.5,12.6-19,12.6-30.9V-84.1
			c0-12.2-4.3-22.6-12.6-31.2C767-124,756.6-128.3,744.3-128.3z M747.9,202.5c0,2.5-1.1,3.6-3.6,3.6H661h-39.5V246v7.5l-75.8-42.7
			l-9-4.7H526H345.7c-2.5,0-3.6-1.1-3.6-3.6V-84.1c0-3.2,1.1-4.7,3.6-4.7h398.7c2.5,0,3.6,1.4,3.6,4.7L747.9,202.5L747.9,202.5z"/>
		<path class="st0" d="M667.9,83.2H524.5c-11.1,0-20.1,9-20.1,20.1s9,19.8,20.1,19.8h143.3c11.1,0,19.8-8.6,19.8-19.8
			S679,83.2,667.9,83.2z"/>
		<path class="st0" d="M667.9-4.8H422.2c-11.1,0-19.8,8.6-19.8,19.8s8.6,19.8,19.8,19.8h245.7c11.1,0,19.8-8.6,19.8-19.8
			S679-4.8,667.9-4.8z"/>
	</g>
</g>
</svg>
