<?xml version="1.0" encoding="utf-8"?>
<!-- Generator: Adobe Illustrator 19.0.0, SVG Export Plug-In . SVG Version: 6.00 Build 0)  -->
<svg version="1.1" id="Capa_1" xmlns="http://www.w3.org/2000/svg" xmlns:xlink="http://www.w3.org/1999/xlink" x="0px" y="0px"
	 viewBox="324 -332 719 688" style="enable-background:new 324 -332 719 688;" xml:space="preserve">
<style type="text/css">
	.st0{fill:#3C5A99;}
	.st1{fill:#FFFFFF;}
</style>
<g id="Layer_2">
</g>
<g>
	<g>
		<path class="st0" d="M1019.4,344H349c-6.6,0-12-5.4-12-12v-640c0-6.6,5.4-12,12-12h670.4c6.6,0,12,5.4,12,12v640
			C1031.4,338.6,1026,344,1019.4,344z"/>
		<path class="st1" d="M929.4-227.3c-7.5-7-16.8-10.7-27.4-10.7H543.5c-21.9,0-39.7,15.9-39.7,36.6v71.4h36.5v-71.4
			c0-2.1,1-3.1,3.2-3.1H902c2.2,0,3.2,0.9,3.2,3.1v244c0,2.1-1,3.1-3.2,3.1h-48.7v33.9H902c10.7,0,20-3.7,27.4-10.7
			C937,61.7,941,53,941,42.6v-244C941-211.7,937-220.1,929.4-227.3z"/>
		<path class="st1" d="M786.2-115H467.8c-9.7,0-18.1,3.6-24.7,10.8S433-88.4,433-78.2V161c0,9.9,3.4,18.6,10.1,25.8
			c6.6,7,14.9,10.5,24.7,10.5h144.1L719.7,260v-62.7h66.6c9.7,0,18.1-3.5,24.7-10.5c6.7-7.1,10.1-15.9,10.1-25.8V-78.1
			c0-10.2-3.4-18.9-10.1-26C804.4-111.4,796.1-115,786.2-115z M789.2,161.1c0,2.1-0.9,3-2.9,3h-66.6h-31.6v33.3v6.3L627.6,168
			l-7.2-3.9h-8.5H467.8c-2,0-2.9-0.9-2.9-3V-78.1c0-2.7,0.9-3.9,2.9-3.9h318.6c2,0,2.9,1.2,2.9,3.9V161.1L789.2,161.1z"/>
		<path class="st1" d="M743.9,86.7H600.4c-11.1,0-20.1,9-20.1,20.1s9,19.8,20.1,19.8h143.3c11.1,0,19.8-8.6,19.8-19.8
			S754.9,86.7,743.9,86.7z"/>
		<path class="st1" d="M743.9-1.3H498.1c-11.1,0-19.8,8.6-19.8,19.8s8.6,19.8,19.8,19.8h245.8c11.1,0,19.8-8.6,19.8-19.8
			S754.9-1.3,743.9-1.3z"/>
	</g>
</g>
</svg>
