<?xml version="1.0" encoding="utf-8"?>
<!-- Generator: Adobe Illustrator 19.0.0, SVG Export Plug-In . SVG Version: 6.00 Build 0)  -->
<svg version="1.1" id="Layer_1"  xmlns="http://www.w3.org/2000/svg" xmlns:xlink="http://www.w3.org/1999/xlink" x="0px" y="0px"
	 viewBox="0 0 40 36" style="enable-background:new 0 0 40 36;" xml:space="preserve">
<style type="text/css">
	.st0{fill:none;stroke:#00ACE0;stroke-width:2;stroke-linecap:round;stroke-linejoin:round;stroke-miterlimit:10;}
</style>
<path id="XMLID_2_" class="st0" d="M0.9,3.4c0-1.1,0.9-1.9,1.9-1.9l15.3,0c1,0,1.9,0.9,1.9,1.9l0,30.8c0,1.1-0.8,1.6-1.7,1.2
	c0,0-2.3-1.1-3.5-1.2c-3.9-0.4-11.9,0-11.9,0c-1,0-1.9-0.8-1.9-1.9L0.9,3.4z"/>
<path id="XMLID_1_" fill="#00ACE0" class="st0" d="M39.1,3.4c0-1.1-0.9-1.9-1.9-1.9l-15.3,0c-1,0-1.9,0.9-1.9,1.9l0,30.8c0,1.1,0.8,1.6,1.8,1.2
	c0,0,2.3-1.1,3.5-1.2c3.9-0.4,11.9-0.1,11.9-0.1c1,0,1.9-0.8,1.9-1.9L39.1,3.4z"/>
</svg>
