<?xml version="1.0" encoding="utf-8"?>
<!-- Generator: Adobe Illustrator 19.0.0, SVG Export Plug-In . SVG Version: 6.00 Build 0)  -->
<svg version="1.1" id="Layer_1" xmlns="http://www.w3.org/2000/svg" xmlns:xlink="http://www.w3.org/1999/xlink" x="0px" y="0px"
	 viewBox="246 -241 512 512" style="enable-background:new 246 -241 512 512;" xml:space="preserve">
<style type="text/css">
	.st0{fill:#C1C1C0;}
</style>
<path class="st0" d="M406,15h-64v-64h64V15z M534-49h-64v64h64V-49z M662-49h-64v64h64V-49z M406,47h-64v64h64V47z M534,47h-64v64
	h64V47z M662,47h-64v64h64V47z M406,143h-64v64h64V143z M534,143h-64v64h64V143z M374-145c17.7,0,32-14.3,32-32v-32
	c0-17.7-14.3-32-32-32s-32,14.3-32,32v32C342-159.3,356.3-145,374-145z M758-177v448H246v-448h80c0,26.5,21.5,48,48,48
	s48-21.5,48-48h160c0,26.5,21.5,48,48,48s48-21.5,48-48H758z M726-81H278v320h448V-81z M630-145c17.7,0,32-14.3,32-32v-32
	c0-17.7-14.3-32-32-32s-32,14.3-32,32v32C598-159.3,612.3-145,630-145z"/>
</svg>
