<?xml version="1.0" encoding="utf-8"?>
<!-- Generator: Adobe Illustrator 19.0.0, SVG Export Plug-In . SVG Version: 6.00 Build 0)  -->
<svg version="1.1" id="Layer_1" xmlns="http://www.w3.org/2000/svg" xmlns:xlink="http://www.w3.org/1999/xlink" x="0px" y="0px"
	 viewBox="6 -4 32 32" style="enable-background:new 6 -4 32 32;" xml:space="preserve">
<style type="text/css">
	.st0{fill:#F1AA28;}
</style>
<g id="Icons_new_Arranged_Names_Color">
	<g id="_x31_01_Warning">
		<path id="Triangle_29" class="st0" d="M20.3,2.1c0.9-1.4,2.3-1.4,3.2,0l10.8,17.4c1.2,1.9,0.3,3.4-1.9,3.4H11.5
			c-2.2,0-3.1-1.5-1.9-3.4L20.3,2.1z M21.9,16c0.6,0,1-0.5,1-1V9c0-0.6-0.4-1-1-1s-1,0.5-1,1v6C20.9,15.5,21.3,16,21.9,16z M21.9,20
			c0.6,0,1-0.4,1-1s-0.4-1-1-1s-1,0.4-1,1C20.9,19.5,21.3,20,21.9,20z"/>
	</g>
</g>
</svg>
