<?xml version="1.0" encoding="utf-8"?>
<!-- Generator: Adobe Illustrator 19.0.0, SVG Export Plug-In . SVG Version: 6.00 Build 0)  -->
<svg version="1.1" id="Layer_1" xmlns="http://www.w3.org/2000/svg" xmlns:xlink="http://www.w3.org/1999/xlink" x="0px" y="0px"
	 viewBox="-281 404.9 32 32" style="enable-background:new -281 404.9 32 32;" xml:space="preserve">
<style type="text/css">
	.st0{fill:#FF0000;}
</style>
<g id="Icons_new_Arranged_Names_Color">
	<g id="_x31_01_Warning">
		<path id="Triangle_29" class="st0" d="M-266.6,411c0.9-1.4,2.3-1.4,3.2,0l10.8,17.4c1.2,1.9,0.3,3.4-1.9,3.4h-20.9
			c-2.2,0-3.1-1.5-1.9-3.4L-266.6,411z M-265,424.9c0.6,0,1-0.5,1-1v-6c0-0.6-0.4-1-1-1c-0.6,0-1,0.5-1,1v6
			C-266,424.4-265.6,424.9-265,424.9z M-265,428.9c0.6,0,1-0.4,1-1c0-0.6-0.4-1-1-1s-1,0.4-1,1C-266,428.4-265.6,428.9-265,428.9z"
			/>
	</g>
</g>
</svg>
