<?xml version="1.0" encoding="utf-8"?>
<!-- Generator: Adobe Illustrator 19.0.0, SVG Export Plug-In . SVG Version: 6.00 Build 0)  -->
<svg version="1.1" id="Layer_1" xmlns="http://www.w3.org/2000/svg" xmlns:xlink="http://www.w3.org/1999/xlink" x="0px" y="0px"
	 viewBox="0 0 26 13" style="enable-background:new 0 0 26 13;" xml:space="preserve">
<style type="text/css">
	.st0{fill:#BDBDBD;}
</style>
<path id="XMLID_1_" class="st0" d="M26.2,0.3c0,0.2-0.1,0.4-0.3,0.6L13.7,13.7c-0.2,0.2-0.4,0.3-0.6,0.3s-0.4-0.1-0.6-0.3L0.3,0.9
	C0.1,0.7,0,0.5,0,0.3s0.1-0.4,0.3-0.6l1.3-1.4C1.7-1.9,1.9-2,2.2-2c0.2,0,0.4,0.1,0.6,0.3L13.1,9.1L23.4-1.7C23.6-1.9,23.8-2,24-2
	c0.2,0,0.4,0.1,0.6,0.3l1.3,1.4C26.1-0.2,26.2,0,26.2,0.3z"/>
</svg>
