<?xml version="1.0" encoding="utf-8"?>
<!-- Generator: Adobe Illustrator 19.0.0, SVG Export Plug-In . SVG Version: 6.00 Build 0)  -->
<svg version="1.1" id="Layer_1" xmlns="http://www.w3.org/2000/svg" xmlns:xlink="http://www.w3.org/1999/xlink" x="0px" y="0px"
	 viewBox="0 0 16 16" style="enable-background:new 0 0 16 16;" xml:space="preserve">
<style type="text/css">
	.st0{fill:#00ACDF;}
	.st1{fill:#FFFFFF;}
</style>
<rect id="XMLID_1_" y="-0.2" class="st0" width="16" height="16"/>
<path id="XMLID_704_" class="st1" d="M10.2,6.3L5,6.3V5.5C5,5,5.4,4.6,5.9,4.6h6.3c0.7,0,1.3-0.6,1.3-1.4l0-1.7H6
	c-2.2,0-4,1.8-4,4.1v4.7c0,2.2,1.7,3.9,3.9,3.9h4.4c2.1,0,3.9-1.8,3.9-3.9C14.1,8.1,12.3,6.3,10.2,6.3z M10.2,11.1H5.8
	c-0.5,0-0.9-0.4-0.9-0.9c0-0.5,0.4-0.9,0.9-0.9h4.3c0.5,0,0.9,0.4,0.9,0.9C11,10.7,10.6,11.1,10.2,11.1z"/>
</svg>
