<?xml version="1.0" encoding="utf-8"?>
<!-- Generator: Adobe Illustrator 19.0.0, SVG Export Plug-In . SVG Version: 6.00 Build 0)  -->
<svg version="1.1" id="Layer_1" xmlns="http://www.w3.org/2000/svg" xmlns:xlink="http://www.w3.org/1999/xlink" x="0px" y="0px"
	 viewBox="123 -121.9 266.9 266.9" style="enable-background:new 123 -121.9 266.9 266.9;" xml:space="preserve">
<style type="text/css">
	.st0{fill:#7E7C84;}
	.st1{fill:#FFFFFF;}
</style>
<path id="Blue_1_" class="st0" d="M371.1,140.4c7.9,0,14.2-6.4,14.2-14.2v-229.3c0-7.9-6.4-14.2-14.2-14.2H141.8
	c-7.9,0-14.2,6.4-14.2,14.2v229.3c0,7.9,6.4,14.2,14.2,14.2H371.1z"/>
<path id="f" class="st1" d="M305.4,140.4V40.6h33.5l5-38.9h-38.5v-24.8c0-11.3,3.1-18.9,19.3-18.9l20.6,0v-34.8
	c-3.6-0.5-15.8-1.5-30-1.5c-29.7,0-50,18.1-50,51.4V1.7h-33.6v38.9h33.6v99.8H305.4z"/>
</svg>
