<?xml version="1.0" encoding="utf-8"?>
<!-- Generator: Adobe Illustrator 19.0.0, SVG Export Plug-In . SVG Version: 6.00 Build 0)  -->
<svg version="1.1" id="Layer_1" xmlns="http://www.w3.org/2000/svg" xmlns:xlink="http://www.w3.org/1999/xlink" x="0px" y="0px"
	 viewBox="0 0 544 82.1" style="enable-background:new 0 0 544 82.1;" xml:space="preserve">
<style type="text/css">
	.st0{opacity:0.21;fill:#00ACDF;}
	.st1{fill:#00ACDF;}
</style>
<g id="XMLID_28_">
	<path id="XMLID_717_" class="st0" d="M360.7,82.1"/>
	<g id="XMLID_711_">
		<path id="XMLID_716_" class="st1" d="M185.7,56.7C185.7,56.7,185.7,56.7,185.7,56.7C185.7,56.6,185.7,56.6,185.7,56.7L185.7,56.7z
			"/>
		<path id="XMLID_713_" class="st1" d="M239.8,31.1h-4.4V13.4c0-4.7-3.8-8.6-8.5-8.6h-8.5c-2.7,0-4.8-2.2-4.8-4.8h-19.8l0,16.2
			c0,4.7,3.8,8.5,8.5,8.5h8.5c2.7,0,4.8,2.2,4.8,4.8v1.7h-4.4c-14.1,0-25.5,11.4-25.5,25.5c0,14.1,11.4,25.5,25.5,25.5h28.6
			c14.1,0,25.5-11.4,25.5-25.5C265.3,42.6,253.9,31.1,239.8,31.1z M239.7,62.3h-28.5c-3.1,0-5.7-2.5-5.7-5.6c0-3.1,3.4-5.7,6.5-5.7
			h27.7c3.1,0,5.7,2.5,5.7,5.7S242.9,62.3,239.7,62.3z"/>
		<path id="XMLID_712_" class="st1" d="M265.3,56.6C265.3,56.6,265.3,56.6,265.3,56.6C265.3,56.6,265.3,56.7,265.3,56.6L265.3,56.6z
			"/>
	</g>
	<path id="XMLID_704_" class="st1" d="M54.1,31.1l-34.3,0v-5.5c0-3.2,2.6-5.9,5.9-5.9h41.2c4.9,0,8.8-3.9,8.8-8.8l0-11H26.4
		C11.8,0,0,11.8,0,26.3v30.3c0,14.1,11.4,25.5,25.5,25.5h28.6c14.1,0,25.5-11.4,25.5-25.5C79.6,42.6,68.2,31.1,54.1,31.1z
		 M54.1,62.3H25.6c-3.1,0-5.7-2.5-5.7-5.7s2.5-5.7,5.7-5.7h28.5c3.1,0,5.7,2.5,5.7,5.6C59.8,59.7,57.2,62.3,54.1,62.3z"/>
	<path id="XMLID_703_" class="st1" d="M118.3,0c-14.1,0-25.5,11.4-25.5,25.5v8.4h19.8v-8.4c0-3.1,2.5-5.6,5.7-5.6h28.4
		c3.2,0,5.9,2.6,5.9,5.9v31c0,3.1-2.5,5.7-5.7,5.7h-28.6c-3.1,0-5.7-2.5-5.7-5.7v-8.4H92.8v8.4c0,14.1,11.4,25.5,25.5,25.5h28.6
		c14.1,0,25.5-11.4,25.5-25.5V26.3c0-14.6-11.8-26.4-26.4-26.4L118.3,0z"/>
	<path id="XMLID_702_" class="st1" d="M451.1,25.5c0-14.1-11.4-25.5-25.5-25.5H397c-14.1,0-25.5,11.4-25.5,25.5v30.3
		c0,14.6,11.8,26.4,26.4,26.4l53.3,0l0-11.1c0-4.9-3.9-8.8-8.8-8.8h-45.5c-3.2,0-5.9-2.6-5.9-5.9v-31c0-3.1,2.5-5.7,5.7-5.7h28.9
		c3.1,0,5.7,2.5,5.7,5.7l0,22.7c0,0,11.3,0,11.3,0c4.7,0,8.5-3.8,8.5-8.5L451.1,25.5z"/>
	<path id="XMLID_684_" class="st1" d="M489,5c-2.7,0-4.8-2.3-4.8-5h-19.8l0,16.1c0,4.9,3.9,8.8,8.8,8.8h45.1c3.2,0,5.9,2.6,5.9,5.9
		v25.9c0,3.1-2.5,5.7-5.7,5.7h-28.9c-3.1,0-5.7-2.6-5.7-5.7l0-17.6c0,0-10.9,0-10.9,0c-4.7,0-8.5,3.8-8.5,8.5v9
		c0,14.1,11.4,25.6,25.5,25.6h28.6c14.1,0,25.5-11.4,25.5-25.6V31.4C544,16.8,532.2,5,517.6,5L489,5z"/>
	<path id="XMLID_656_" class="st1" d="M305.2,8.6c0-4.7-3.8-8.6-8.5-8.6l-24.2,0v11.3c0,4.7-0.4,8.5,4.3,8.5l13.6,0
		c2.7,0,4.8,2.2,4.8,4.8v9.2l19.8,0v-9.2c0-2.7,2.2-4.8,4.8-4.8l13.6,0c2.7,0,4.8,2.2,4.8,4.8l0,32c0,3.1-2.5,5.7-5.7,5.7h-29
		c-3.1,0-5.7-2.5-5.7-5.7v-8.4h-19.4v8.4c0,14.1,11.4,25.5,25.5,25.5h28.6c14.1,0,25.5-11.4,25.5-25.5V19.9c0-11-8.9-19.9-19.8-19.9
		l-24.7,0c-4.7,0-8.5,3.8-8.5,8.5"/>
</g>
</svg>
