<?xml version="1.0" encoding="utf-8"?>
<!-- Generator: Adobe Illustrator 19.0.0, SVG Export Plug-In . SVG Version: 6.00 Build 0)  -->
<svg version="1.1" id="Layer_1" xmlns="http://www.w3.org/2000/svg" xmlns:xlink="http://www.w3.org/1999/xlink" x="0px" y="0px"
	 viewBox="5 -2 30 35" style="enable-background:new 5 -2 30 35;" xml:space="preserve">
<style type="text/css">
	.st0{fill:#EF5350;}
</style>
<path id="XMLID_7_" class="st0" d="M20,4.7C11.7,4.7,5,11,5,18.9S11.7,33,20,33s15-6.3,15-14.1S28.3,4.7,20,4.7z M21.2,30.8v-1
	c0-0.6-0.5-1.1-1.2-1.1c-0.7,0-1.2,0.5-1.2,1.1v1c-6-0.6-10.9-5.1-11.4-10.9h1.1c0.6,0,1.2-0.5,1.2-1.1s-0.5-1.1-1.2-1.1H7.4
	C7.9,12,12.8,7.5,18.8,6.9v1C18.8,8.5,19.3,9,20,9s1.2-0.5,1.2-1.1v-1c6.1,0.5,10.9,5.1,11.5,10.8h-1.1c-0.6,0-1.2,0.5-1.2,1.1
	s0.5,1.1,1.2,1.1h1.1C32.1,25.7,27.2,30.2,21.2,30.8z M16.5,1.5v-2.2c0-0.6,0.5-1.1,1.2-1.1h4.6c0.6,0,1.2,0.5,1.2,1.1v2.2
	c0,0.6-0.5,1.1-1.2,1.1v1.3c-0.8-0.1-1.5-0.2-2.3-0.2c-0.8,0-1.6,0.1-2.3,0.2V2.5C17.1,2.5,16.5,2.1,16.5,1.5z M30,6.9
	c-1.2-0.9-2.6-1.6-4-2.2c0-0.1,0-0.1,0.1-0.2l1.2-1.9c0.3-0.5,1-0.7,1.6-0.4l2,1.1c0.6,0.3,0.7,1,0.4,1.5l-1.2,1.9
	C30,6.8,30,6.8,30,6.9z M30,13.4c0.3,0.5,0.1,1.2-0.4,1.5l-9,4.9c-0.2,0.1-0.4,0.1-0.6,0.1s-0.4,0-0.6-0.1l-9-4.9
	c-0.6-0.3-0.7-1-0.4-1.5c0.3-0.5,1-0.7,1.6-0.4l8.4,4.6l8.4-4.6C29,12.7,29.7,12.9,30,13.4z"/>
</svg>
