<?xml version="1.0" encoding="utf-8"?>
<!-- Generator: Adobe Illustrator 19.0.0, SVG Export Plug-In . SVG Version: 6.00 Build 0)  -->
<svg version="1.1" id="Your_Icons" xmlns="http://www.w3.org/2000/svg" xmlns:xlink="http://www.w3.org/1999/xlink" x="0px" y="0px"
	 viewBox="0 0 37 36.8" style="enable-background:new 0 0 37 36.8;" xml:space="preserve">
<style type="text/css">
	.st0{fill:#EF5451;}
</style>
<path id="XMLID_1_" class="st0" d="M21.1,18.8L33.7,6.2c0.8-0.8,0.8-2,0-2.8c-0.8-0.8-2-0.8-2.8,0L18.2,15.9L5.7,3.3
	c-0.8-0.8-2-0.8-2.8,0c-0.8,0.8-0.8,2,0,2.8l12.6,12.6L2.8,31.3c-0.8,0.8-0.8,2,0,2.8c0.4,0.4,0.9,0.6,1.4,0.6s1-0.2,1.4-0.6
	l12.6-12.6l12.6,12.6c0.4,0.4,0.9,0.6,1.4,0.6s1-0.2,1.4-0.6c0.8-0.8,0.8-2,0-2.8L21.1,18.8z"/>
</svg>
