<?xml version="1.0" encoding="utf-8"?>
<!-- Generator: Adobe Illustrator 19.0.0, SVG Export Plug-In . SVG Version: 6.00 Build 0)  -->
<svg version="1.1" id="Your_Icons" xmlns="http://www.w3.org/2000/svg" xmlns:xlink="http://www.w3.org/1999/xlink" x="0px" y="0px"
	 viewBox="0 0 72.5 64" style="enable-background:new 0 0 72.5 64;" xml:space="preserve">
<style type="text/css">
	.st0{fill:none;stroke:#00ACE0;stroke-width:4;stroke-linecap:round;stroke-linejoin:round;stroke-miterlimit:10;}
	.st1{fill:#485469;stroke:#00ACE0;stroke-width:2;stroke-miterlimit:10;}
</style>
<circle id="XMLID_1_" class="st0" cx="35.5" cy="24" r="8.5"/>
<path id="XMLID_2_" class="st0" d="M52.4,56.7c-1.9-7.6-8.8-13.2-16.9-13.2s-15,5.6-16.9,13.2"/>
<path id="XMLID_3_" class="st1" d="M66.1,33.2h-5.4v-5.4c0-0.4-0.4-0.8-0.8-0.8s-0.8,0.4-0.8,0.8v5.4h-5.4c-0.4,0-0.8,0.3-0.8,0.8
	c0,0.4,0.3,0.8,0.8,0.8h5.4v5.4c0,0.4,0.4,0.8,0.8,0.8s0.8-0.3,0.8-0.8v-5.4h5.4c0.4,0,0.8-0.3,0.8-0.8
	C66.9,33.5,66.5,33.2,66.1,33.2z"/>
</svg>
