<?xml version="1.0" encoding="utf-8"?>
<!-- Generator: Adobe Illustrator 19.0.0, SVG Export Plug-In . SVG Version: 6.00 Build 0)  -->
<svg version="1.1" id="Capa_1" xmlns="http://www.w3.org/2000/svg" xmlns:xlink="http://www.w3.org/1999/xlink" x="0px" y="0px"
	 viewBox="337 -320 694.4 664" style="enable-background:new 337 -320 694.4 664;" xml:space="preserve">
<style type="text/css">
	.st0{fill:#FFFFFF;}
</style>
<g id="Layer_2">
</g>
<g>
	<g>
		<path class="st0" d="M977.2-281.4c-8.3-8.2-18.7-12.6-30.5-12.6H548c-24.4,0-44.2,18.7-44.2,43.1v84h40.6v-84
			c0-2.5,1.1-3.6,3.6-3.6h398.7c2.5,0,3.6,1.1,3.6,3.6v287c0,2.5-1.1,3.6-3.6,3.6h-54.2v39.9h54.2c11.9,0,22.2-4.4,30.5-12.6
			c8.5-8.4,12.9-18.7,12.9-30.9v-287C990.1-263.1,985.7-273,977.2-281.4z"/>
		<path class="st0" d="M820.2-124.8H421.6c-12.2,0-22.6,4.3-30.9,12.9s-12.6,19-12.6,31.2v286.6c0,11.9,4.2,22.3,12.6,30.9
			c8.2,8.4,18.7,12.6,30.9,12.6h180.3l135,75.1v-75.1h83.3c12.2,0,22.7-4.2,30.9-12.6c8.4-8.5,12.6-19,12.6-30.9V-80.6
			c0-12.2-4.3-22.6-12.6-31.2C842.9-120.5,832.5-124.8,820.2-124.8z M823.9,206c0,2.5-1.1,3.6-3.6,3.6h-83.4h-39.5v39.9v7.5
			l-75.8-42.7l-9-4.7h-10.7H421.6c-2.5,0-3.6-1.1-3.6-3.6V-80.6c0-3.2,1.1-4.7,3.6-4.7h398.7c2.5,0,3.6,1.4,3.6,4.7V206L823.9,206z"
			/>
		<path class="st0" d="M743.9,86.7H600.4c-11.1,0-20.1,9-20.1,20.1s9,19.8,20.1,19.8h143.3c11.1,0,19.8-8.6,19.8-19.8
			S754.9,86.7,743.9,86.7z"/>
		<path class="st0" d="M743.9-1.3H498.1c-11.1,0-19.8,8.6-19.8,19.8s8.6,19.8,19.8,19.8h245.8c11.1,0,19.8-8.6,19.8-19.8
			S754.9-1.3,743.9-1.3z"/>
	</g>
</g>
</svg>
