<?xml version="1.0" encoding="utf-8"?>
<!-- Generator: Adobe Illustrator 19.0.0, SVG Export Plug-In . SVG Version: 6.00 Build 0)  -->
<svg version="1.1" id="Layer_1" xmlns="http://www.w3.org/2000/svg" xmlns:xlink="http://www.w3.org/1999/xlink" x="0px" y="0px"
	 viewBox="0 0 22 24" style="enable-background:new 0 0 22 24;" xml:space="preserve">
<style type="text/css">
	.st0{fill:#FFFFFF;}
</style>
<path class="st0" d="M12,24h2V3h-2V24z M12,2h2V0h-2V2z M8,24h2v-8H8V24z M8,15h2v-2H8V15z M16,24h2V7h-2V24z M16,6h2V4h-2V6z
	 M20,24h2v-6h-2V24z M20,15v2h2v-2H20z M4,24h2V9H4V24z M4,8h2V6H4V8z M0,24h2V14H0V24z M0,13h2v-2H0V13z"/>
</svg>
