<?xml version="1.0" encoding="utf-8"?>
<!-- Generator: Adobe Illustrator 19.0.0, SVG Export Plug-In . SVG Version: 6.00 Build 0)  -->
<svg version="1.1" id="Layer_1" xmlns="http://www.w3.org/2000/svg" xmlns:xlink="http://www.w3.org/1999/xlink" x="0px" y="0px"
	 viewBox="-96.8 350.8 61.5 79.4" style="enable-background:new -96.8 350.8 61.5 79.4;" xml:space="preserve">
<style type="text/css">
	.st0{display:none;}
	.st1{fill:#00ABDE;}
	.st2{fill:none;stroke:#000000;stroke-width:3;stroke-linecap:round;stroke-miterlimit:10;}
</style>
<g id="Layer_2" class="st0">
	
		<image style="display:inline;overflow:visible;enable-background:new    ;" width="1921" height="1081" xlink:href="390570B3.png"  transform="matrix(0.9995 0 0 0.9991 -239.704 278.7486)">
	</image>
</g>
<g id="Layer_3">
	<g>
		<g>
			<g>
				<path class="st1" d="M-1211.4,450.2c-0.2,0-0.4,0-0.6-0.1l-43.9-20c-0.5-0.2-0.9-0.8-0.9-1.4s0.3-1.1,0.9-1.4l43.9-20
					c0.4-0.2,0.8-0.2,1.2,0l43.9,20c0.5,0.2,0.9,0.8,0.9,1.4c0,0.6-0.3,1.1-0.9,1.4l-43.9,20C-1211,450.2-1211.2,450.2-1211.4,450.2
					z M-1251.7,428.7l40.3,18.4l40.3-18.4l-40.3-18.4L-1251.7,428.7z"/>
			</g>
			<g>
				<path class="st1" d="M-1211.4,469.2c-24.8,0-25.5-9.4-25.5-10.5v-19.5c0-0.8,0.7-1.5,1.5-1.5s1.5,0.7,1.5,1.5v19.5
					c0,0,0.7,7.5,22.5,7.5s22.5-7.5,22.5-7.5v-19.5c0-0.8,0.7-1.5,1.5-1.5c0.8,0,1.5,0.7,1.5,1.5v19.5
					C-1185.9,459.8-1186.6,469.2-1211.4,469.2z"/>
			</g>
			<g>
				<path class="st1" d="M-1175.4,458.7c-0.8,0-1.5-0.7-1.5-1.5v-24c0-0.8,0.7-1.5,1.5-1.5c0.8,0,1.5,0.7,1.5,1.5v24
					C-1173.9,458.1-1174.6,458.7-1175.4,458.7z"/>
			</g>
			<g>
				<path class="st1" d="M-1173.9,456.2h-3c-0.8,0-1.5-0.7-1.5-1.5c0-0.8,0.7-1.5,1.5-1.5h3c0.8,0,1.5,0.7,1.5,1.5
					C-1172.4,455.6-1173.1,456.2-1173.9,456.2z"/>
			</g>
			<g>
				<path class="st1" d="M-1173.9,452.2h-3c-0.8,0-1.5-0.7-1.5-1.5c0-0.8,0.7-1.5,1.5-1.5h3c0.8,0,1.5,0.7,1.5,1.5
					C-1172.4,451.6-1173.1,452.2-1173.9,452.2z"/>
			</g>
		</g>
	</g>
	<g>
		<g>
			<g>
				<path class="st1" d="M-1027.9,477.2h-33.5c-0.8,0-1.5-0.7-1.5-1.5v-60c0-0.8,0.7-1.5,1.5-1.5h9.5c0.8,0,1.5,0.7,1.5,1.5
					c0,0.8-0.7,1.5-1.5,1.5h-8v57h32c0.8,0,1.5,0.7,1.5,1.5C-1026.4,476.6-1027.1,477.2-1027.9,477.2z"/>
			</g>
			<g>
				<path class="st1" d="M-973.4,477.2h-34.5c-0.8,0-1.5-0.7-1.5-1.5c0-0.8,0.7-1.5,1.5-1.5h33v-57h-8c-0.8,0-1.5-0.7-1.5-1.5
					c0-0.8,0.7-1.5,1.5-1.5h9.5c0.8,0,1.5,0.7,1.5,1.5v60C-971.9,476.6-972.6,477.2-973.4,477.2z"/>
			</g>
			<g>
				<path class="st1" d="M-1017.4,475.7c-0.8,0-1.5-0.7-1.5-1.5v-59c0-0.8,0.7-1.5,1.5-1.5s1.5,0.7,1.5,1.5v59
					C-1015.9,475.1-1016.6,475.7-1017.4,475.7z"/>
			</g>
			<g>
				<path class="st1" d="M-1017.9,475.7c-0.7,0-1.4-0.5-1.5-1.3c0-0.2-2.3-10.7-32-10.7c-0.8,0-1.5-0.7-1.5-1.5v-59
					c0-0.8,0.7-1.5,1.5-1.5c32.9,0,35.4,12.7,35.5,13.3c0.1,0.8-0.4,1.6-1.2,1.7s-1.6-0.4-1.7-1.2c0-0.1-2.5-10.4-31-10.7v56
					c31.5,0.4,33.4,12.8,33.5,13.3c0.1,0.8-0.5,1.6-1.3,1.7C-1017.8,475.7-1017.8,475.7-1017.9,475.7z"/>
			</g>
			<g>
				<path class="st1" d="M-1016.9,475.7c-0.1,0-0.2,0-0.3,0c-0.8-0.2-1.3-1-1.1-1.8c0.1-0.5,3-12.8,33.5-13.2v-56
					c-27.6,0.4-31,10.7-31,10.9c-0.2,0.8-1,1.3-1.8,1.1c-0.8-0.2-1.3-1-1.1-1.8c0.1-0.5,3.6-13.1,35.5-13.1c0.8,0,1.5,0.7,1.5,1.5
					v59c0,0.8-0.7,1.5-1.5,1.5c-29.1,0-32,10.7-32,10.8C-1015.6,475.3-1016.2,475.7-1016.9,475.7z"/>
			</g>
			<g>
				<path class="st1" d="M-1008.6,427c-0.6,0-1.1-0.4-1.4-0.9c-0.3-0.8,0.1-1.6,0.8-2c4.5-1.9,10.1-3.1,16.7-3.8
					c0.8-0.1,1.6,0.5,1.6,1.3c0.1,0.8-0.5,1.6-1.3,1.6c-6.3,0.6-11.7,1.9-15.9,3.6C-1008.2,427-1008.4,427-1008.6,427z"/>
			</g>
			<g>
				<path class="st1" d="M-1008.6,439c-0.6,0-1.1-0.4-1.4-0.9c-0.3-0.8,0.1-1.6,0.8-2c4.5-1.9,10.1-3.1,16.7-3.8
					c0.8-0.1,1.6,0.5,1.6,1.3c0.1,0.8-0.5,1.6-1.3,1.6c-6.3,0.6-11.7,1.9-15.9,3.6C-1008.2,439-1008.4,439-1008.6,439z"/>
			</g>
			<g>
				<path class="st1" d="M-1008.6,451c-0.6,0-1.1-0.4-1.4-0.9c-0.3-0.8,0.1-1.6,0.8-2c4.5-1.9,10.1-3.1,16.7-3.8
					c0.8-0.1,1.6,0.5,1.6,1.3c0.1,0.8-0.5,1.6-1.3,1.6c-6.3,0.6-11.7,1.9-15.9,3.6C-1008.2,451-1008.4,451-1008.6,451z"/>
			</g>
			<g>
				<path class="st1" d="M-1026.2,427c-0.2,0-0.4,0-0.6-0.1c-4.2-1.7-9.6-3-15.9-3.6c-0.8-0.1-1.4-0.8-1.3-1.6
					c0.1-0.8,0.8-1.4,1.6-1.3c6.6,0.7,12.2,2,16.7,3.8c0.8,0.3,1.1,1.2,0.8,2C-1025.1,426.7-1025.7,427-1026.2,427z"/>
			</g>
			<g>
				<path class="st1" d="M-1026.2,439c-0.2,0-0.4,0-0.6-0.1c-4.2-1.7-9.6-3-15.9-3.6c-0.8-0.1-1.4-0.8-1.3-1.6
					c0.1-0.8,0.8-1.4,1.6-1.3c6.6,0.7,12.2,2,16.7,3.8c0.8,0.3,1.1,1.2,0.8,2C-1025.1,438.7-1025.7,439-1026.2,439z"/>
			</g>
			<g>
				<path class="st1" d="M-1026.2,451c-0.2,0-0.4,0-0.6-0.1c-4.2-1.7-9.6-3-15.9-3.6c-0.8-0.1-1.4-0.8-1.3-1.6
					c0.1-0.8,0.8-1.4,1.6-1.3c6.6,0.7,12.2,2,16.7,3.8c0.8,0.3,1.1,1.2,0.8,2C-1025.1,450.7-1025.7,451-1026.2,451z"/>
			</g>
		</g>
	</g>
	<g>
		<g>
			<g>
				<path class="st1" d="M-857.4,666.7c-0.8,0-1.5-0.7-1.5-1.5v-64c0-0.8,0.7-1.5,1.5-1.5s1.5,0.7,1.5,1.5v64
					C-855.9,666.1-856.6,666.7-857.4,666.7z"/>
			</g>
			<g>
				<path class="st1" d="M-793.4,676.2h-54.5c-0.8,0-1.5-0.7-1.5-1.5s0.7-1.5,1.5-1.5h53v-73c0-0.8,0.7-1.5,1.5-1.5s1.5,0.7,1.5,1.5
					v74.5C-791.9,675.6-792.6,676.2-793.4,676.2z"/>
			</g>
			<g>
				<path class="st1" d="M-802.9,592.2h-45c-0.8,0-1.5-0.7-1.5-1.5s0.7-1.5,1.5-1.5h45c0.8,0,1.5,0.7,1.5,1.5
					C-801.4,591.6-802.1,592.2-802.9,592.2z"/>
			</g>
			<g>
				<path class="st1" d="M-847.4,676.2c-6.3,0-11.5-5.2-11.5-11.5s5.2-11.5,11.5-11.5c0.8,0,1.5,0.7,1.5,1.5s-0.7,1.5-1.5,1.5
					c-4.7,0-8.5,3.8-8.5,8.5s3.8,8.5,8.5,8.5c0.8,0,1.5,0.7,1.5,1.5C-845.9,675.6-846.6,676.2-847.4,676.2z"/>
			</g>
			<g>
				<path class="st1" d="M-857.4,602.2c-0.8,0-1.5-0.7-1.5-1.5c0-6.3,5.2-11.5,11.5-11.5c0.8,0,1.5,0.7,1.5,1.5s-0.7,1.5-1.5,1.5
					c-4.7,0-8.5,3.8-8.5,8.5C-855.9,601.6-856.6,602.2-857.4,602.2z"/>
			</g>
			<g>
				<path class="st1" d="M-802.9,666.2h-45c-0.8,0-1.5-0.7-1.5-1.5s0.7-1.5,1.5-1.5h45c0.8,0,1.5,0.7,1.5,1.5
					C-801.4,665.6-802.1,666.2-802.9,666.2z"/>
			</g>
			<g>
				<path class="st1" d="M-802.9,656.2h-44c-0.8,0-1.5-0.7-1.5-1.5s0.7-1.5,1.5-1.5h44c0.8,0,1.5,0.7,1.5,1.5
					C-801.4,655.6-802.1,656.2-802.9,656.2z"/>
			</g>
			<g>
				<path class="st1" d="M-802.4,655.7c-0.8,0-1.5-0.7-1.5-1.5v-63c0-0.8,0.7-1.5,1.5-1.5s1.5,0.7,1.5,1.5v63
					C-800.9,655.1-801.6,655.7-802.4,655.7z"/>
			</g>
			<g>
				<path class="st1" d="M-814.9,609.2h-28c-0.8,0-1.5-0.7-1.5-1.5s0.7-1.5,1.5-1.5h28c0.8,0,1.5,0.7,1.5,1.5
					C-813.4,608.6-814.1,609.2-814.9,609.2z"/>
			</g>
			<g>
				<path class="st1" d="M-814.9,619.2h-28c-0.8,0-1.5-0.7-1.5-1.5s0.7-1.5,1.5-1.5h28c0.8,0,1.5,0.7,1.5,1.5
					C-813.4,618.6-814.1,619.2-814.9,619.2z"/>
			</g>
			<g>
				<path class="st1" d="M-825.9,629.2h-17c-0.8,0-1.5-0.7-1.5-1.5s0.7-1.5,1.5-1.5h17c0.8,0,1.5,0.7,1.5,1.5
					C-824.4,628.6-825.1,629.2-825.9,629.2z"/>
			</g>
		</g>
	</g>
	<g>
		<g>
			<g>
				<path class="st1" d="M-1201.8,671.3c-3,0-7.7-1.3-9.2-1.7c-1.6,0.4-7.5,1.8-10.5,1.6c-15.3-0.7-23.4-23.5-23.4-39.6
					c0-16.3,7.2-25.3,20.4-25.3c3.9,0,8.3,0.8,13.1,2.4c4.8-1.6,9.2-2.4,13.1-2.4c13.1,0,20.4,9,20.4,25.3
					c0,16.1-8.1,38.9-23.4,39.6C-1201.5,671.3-1201.6,671.3-1201.8,671.3z M-1210.9,666.6c0.1,0,0.3,0,0.4,0.1c0.1,0,6.1,1.8,9,1.6
					c13.3-0.6,20.6-22.1,20.6-36.6c0-10.2-3-22.3-17.4-22.3c-3.7,0-7.9,0.8-12.6,2.4c-0.3,0.1-0.6,0.1-0.9,0
					c-4.7-1.6-9-2.4-12.6-2.4c-14.4,0-17.4,12.1-17.4,22.3c0,14.6,7.3,36,20.6,36.6c3,0.1,9.9-1.6,10-1.7
					C-1211.2,666.6-1211.1,666.6-1210.9,666.6z"/>
			</g>
			<g>
				<path class="st1" d="M-1232.5,628.4c-0.8,0-1.5-0.7-1.5-1.5c0-5.7,4.6-10.3,10.3-10.3c0.8,0,1.5,0.7,1.5,1.5s-0.7,1.5-1.5,1.5
					c-4,0-7.3,3.3-7.3,7.3C-1231,627.7-1231.7,628.4-1232.5,628.4z"/>
			</g>
			<g>
				<path class="st1" d="M-1211.4,604.7L-1211.4,604.7c-0.9-0.1-1.5-0.8-1.5-1.6c0-0.3,0.6-7.6,4.4-11.5c0.6-0.6,1.5-0.6,2.1,0
					c0.6,0.6,0.6,1.5,0,2.1c-2.5,2.5-3.4,7.8-3.6,9.5C-1209.9,604.1-1210.6,604.7-1211.4,604.7z"/>
			</g>
		</g>
	</g>
	<g>
		<g>
			<g>
				<path class="st1" d="M-649.9,1063.9c-1.4,0-2.7-0.3-3.8-1c-4.2-2.4-5.5-9.2-3.5-19c1.9-9.3,6.4-20.4,12.7-31.3
					c11.6-20.1,26.1-34.1,35.2-34.1c1.4,0,2.7,0.3,3.8,1c4.2,2.4,5.5,9.2,3.5,19c-1.9,9.3-6.4,20.4-12.7,31.3
					c-5.8,10.1-12.7,19.1-19.3,25.3c-1.6,1.5-3.2,2.9-4.8,4c-2.1,1.6-4.2,2.8-6,3.6C-646.7,1063.5-648.4,1063.9-649.9,1063.9z
					 M-609.3,981.6c-7.9,0-21.9,14-32.6,32.6c-6.2,10.7-10.5,21.5-12.3,30.4c-1.7,8.3-0.9,14.1,2.1,15.8c1.5,0.9,3.6,0.7,6.2-0.4
					c1.7-0.7,3.5-1.8,5.4-3.2c1.5-1.1,3-2.4,4.5-3.8c6.4-6,13.1-14.8,18.8-24.6c6.2-10.7,10.5-21.5,12.3-30.4
					c1.7-8.3,0.9-14.1-2.1-15.8C-607.7,981.7-608.4,981.6-609.3,981.6z"/>
			</g>
			<g>
				<path class="st1" d="M-609.3,1063.9c-9.1,0-23.6-14-35.2-34.1c-11.8-20.5-18.5-44.9-9.2-50.3c1.1-0.6,2.4-1,3.8-1
					c9.1,0,23.6,14,35.2,34.1c11.8,20.5,18.5,44.9,9.2,50.3C-606.6,1063.6-607.9,1063.9-609.3,1063.9z M-649.9,981.6
					c-0.9,0-1.6,0.2-2.3,0.6c-5.8,3.4-3,23.2,10.3,46.2c10.7,18.6,24.7,32.6,32.6,32.6c0.9,0,1.6-0.2,2.3-0.6
					c5.8-3.4,3-23.2-10.3-46.2C-628,995.6-642,981.6-649.9,981.6z"/>
			</g>
			<g>
				<path class="st1" d="M-629.6,1038.5c-23.7,0-48.2-6.4-48.2-17.2s24.5-17.2,48.2-17.2s48.2,6.4,48.2,17.2
					C-581.4,1032-605.9,1038.5-629.6,1038.5z M-629.6,1007c-26.6,0-45.2,7.5-45.2,14.2s18.5,14.2,45.2,14.2
					c26.6,0,45.2-7.5,45.2-14.2S-603,1007-629.6,1007z"/>
			</g>
			<g>
				<path class="st1" d="M-629.6,1029.1c-4.3,0-7.9-3.5-7.9-7.9c0-4.3,3.5-7.9,7.9-7.9c4.3,0,7.9,3.5,7.9,7.9
					S-625.3,1029.1-629.6,1029.1z M-629.6,1016.3c-2.7,0-4.9,2.2-4.9,4.9s2.2,4.9,4.9,4.9c2.7,0,4.9-2.2,4.9-4.9
					S-626.9,1016.3-629.6,1016.3z"/>
			</g>
		</g>
	</g>
	<g>
		<g>
			<g>
				<path class="st1" d="M-1033.9,855.6c-0.8,0-1.5-0.7-1.5-1.5v-65c0-0.8,0.7-1.5,1.5-1.5c0.8,0,1.5,0.7,1.5,1.5v65
					C-1032.4,855-1033.1,855.6-1033.9,855.6z"/>
			</g>
			<g>
				<path class="st1" d="M-999.9,855.6c-0.8,0-1.5-0.7-1.5-1.5v-65c0-0.8,0.7-1.5,1.5-1.5s1.5,0.7,1.5,1.5v65
					C-998.4,855-999.1,855.6-999.9,855.6z"/>
			</g>
			<g>
				<path class="st1" d="M-1017.1,871.3c-10.4,0-18.3-7.4-18.3-17.2c0-0.8,0.7-1.5,1.5-1.5c0.8,0,1.5,0.7,1.5,1.5
					c0,8.1,6.6,14.2,15.3,14.2c8.8,0,15.7-6.2,15.7-14.2c0-0.8,0.7-1.5,1.5-1.5s1.5,0.7,1.5,1.5
					C-998.4,863.8-1006.6,871.3-1017.1,871.3z"/>
			</g>
			<g>
				<path class="st1" d="M-994.9,790.2h-44c-0.8,0-1.5-0.7-1.5-1.5s0.7-1.5,1.5-1.5h44c0.8,0,1.5,0.7,1.5,1.5
					S-994.1,790.2-994.9,790.2z"/>
			</g>
			<g>
				<path class="st1" d="M-1006.4,809.6c-3.4,0-7-1.4-10.3-2.8c-5.8-2.3-11.3-4.5-15.6-0.2c-0.6,0.6-1.5,0.6-2.1,0
					c-0.6-0.6-0.6-1.5,0-2.1c5.7-5.7,12.7-3,18.9-0.5c5.6,2.3,10.5,4.2,14.1,0.5c0.6-0.6,1.5-0.6,2.1,0c0.6,0.6,0.6,1.5,0,2.1
					C-1001.5,808.9-1003.9,809.6-1006.4,809.6z"/>
			</g>
			<g>
				<path class="st1" d="M-1022.6,820.7c-1.6,0-2.8-1.3-2.8-2.8s1.3-2.8,2.8-2.8c1.6,0,2.8,1.3,2.8,2.8S-1021,820.7-1022.6,820.7z
					 M-1022.6,817.7c-0.1,0-0.2,0.1-0.2,0.2c0,0.2,0.3,0.2,0.3,0C-1022.4,817.7-1022.5,817.7-1022.6,817.7z"/>
			</g>
			<g>
				<path class="st1" d="M-1022.6,858.7c-1.6,0-2.8-1.3-2.8-2.8c0-1.6,1.3-2.8,2.8-2.8c1.6,0,2.8,1.3,2.8,2.8
					C-1019.7,857.4-1021,858.7-1022.6,858.7z M-1022.6,855.7c-0.1,0-0.2,0.1-0.2,0.2c0,0.2,0.3,0.2,0.3,0
					C-1022.4,855.7-1022.5,855.7-1022.6,855.7z"/>
			</g>
			<g>
				<path class="st1" d="M-1010.6,838.7c-1.6,0-2.8-1.3-2.8-2.8c0-1.6,1.3-2.8,2.8-2.8c1.6,0,2.8,1.3,2.8,2.8
					C-1007.7,837.4-1009,838.7-1010.6,838.7z M-1010.6,835.7c-0.1,0-0.2,0.1-0.2,0.2c0,0.2,0.3,0.2,0.3,0
					C-1010.4,835.7-1010.5,835.7-1010.6,835.7z"/>
			</g>
		</g>
	</g>
	<g>
		<g>
			<g>
				<path class="st1" d="M-435.4,480.2c-22.9,0-41.5-18.6-41.5-41.5s18.6-41.5,41.5-41.5s41.5,18.6,41.5,41.5
					C-393.9,461.6-412.5,480.2-435.4,480.2z M-435.4,400.2c-21.2,0-38.5,17.3-38.5,38.5c0,21.2,17.3,38.5,38.5,38.5
					c21.2,0,38.5-17.3,38.5-38.5C-396.9,417.5-414.2,400.2-435.4,400.2z"/>
			</g>
			<g>
				<path class="st1" d="M-435.4,479.7c-0.8,0-1.5-0.7-1.5-1.5v-79c0-0.8,0.7-1.5,1.5-1.5c0.8,0,1.5,0.7,1.5,1.5v79
					C-433.9,479.1-434.6,479.7-435.4,479.7z"/>
			</g>
			<g>
				<path class="st1" d="M-435.7,421.7c-11.8,0-22.9-2.6-30.5-7.2c-0.7-0.4-0.9-1.3-0.5-2.1c0.4-0.7,1.4-0.9,2.1-0.5
					c7.1,4.3,17.7,6.8,28.9,6.8c11.5,0,22.2-2.5,29.3-7c0.7-0.4,1.6-0.2,2.1,0.5c0.4,0.7,0.2,1.6-0.5,2.1
					C-412.4,419-423.6,421.7-435.7,421.7z"/>
			</g>
			<g>
				<path class="st1" d="M-405.6,466.2c-0.3,0-0.5-0.1-0.8-0.2c-7.2-4.4-17.8-6.9-29.3-6.9c-11.2,0-21.8,2.4-28.9,6.7
					c-0.7,0.4-1.6,0.2-2.1-0.5c-0.4-0.7-0.2-1.6,0.5-2.1c7.6-4.5,18.7-7.1,30.5-7.1c12,0,23.3,2.7,30.9,7.4c0.7,0.4,0.9,1.4,0.5,2.1
					C-404.6,466-405.1,466.2-405.6,466.2z"/>
			</g>
			<g>
				<path class="st1" d="M-395.9,442.2h-79c-0.8,0-1.5-0.7-1.5-1.5c0-0.8,0.7-1.5,1.5-1.5h79c0.8,0,1.5,0.7,1.5,1.5
					C-394.4,441.6-395.1,442.2-395.9,442.2z"/>
			</g>
			<g>
				<path class="st1" d="M-435.5,478.9c-12.4,0-22.2-17.7-22.2-40.3s9.7-40.3,22.2-40.3c12.4,0,22.2,17.7,22.2,40.3
					S-423.1,478.9-435.5,478.9z M-435.5,401.3c-10.6,0-19.2,16.7-19.2,37.3s8.6,37.3,19.2,37.3c10.6,0,19.2-16.7,19.2-37.3
					S-424.9,401.3-435.5,401.3z"/>
			</g>
		</g>
	</g>
	<g>
		<g>
			<g>
				<path class="st1" d="M-997.4,673.2h-40c-7.5,0-9.5-6.5-9.5-10c0-44.4,4.4-65.5,29.5-65.5s29.5,21.1,29.5,65.5
					c0,0.1,0.2,4.4-2.6,7.3C-992.1,672.3-994.4,673.2-997.4,673.2z M-1017.4,600.7c-22.7,0-26.5,19.3-26.5,62.5c0,0.7,0.2,7,6.5,7
					h40c2.1,0,3.7-0.6,4.8-1.7c1.9-2,1.7-5.2,1.7-5.2C-990.9,620-994.7,600.7-1017.4,600.7z"/>
			</g>
			<g>
				<path class="st1" d="M-1043.4,628.2c-0.1,0-0.2,0-0.3,0c-0.8-0.2-1.3-1-1.1-1.8c3.8-16,13-19.2,27.5-19.2
					c14.9,0,23.7,3,27.4,18.5c0.2,0.8-0.3,1.6-1.1,1.8s-1.6-0.3-1.8-1.1c-3.3-13.8-10.5-16.2-24.5-16.2c-13.4,0-21.3,2.7-24.6,16.8
					C-1042.1,627.8-1042.8,628.2-1043.4,628.2z"/>
			</g>
			<g>
				<path class="st1" d="M-1001.9,645.2h-32c-0.8,0-1.5-0.7-1.5-1.5s0.7-1.5,1.5-1.5h32c0.8,0,1.5,0.7,1.5,1.5
					C-1000.4,644.6-1001.1,645.2-1001.9,645.2z"/>
			</g>
			<g>
				<path class="st1" d="M-1008.4,600.7c-0.8,0-1.5-0.7-1.5-1.5V596c-0.4-0.6-3.1-1.8-8-1.8s-7.6,1.3-8,1.8v3.2
					c0,0.8-0.7,1.5-1.5,1.5c-0.8,0-1.5-0.7-1.5-1.5V596c0-3.3,5.7-4.8,11-4.8s11,1.5,11,4.8v3.3
					C-1006.9,600.1-1007.6,600.7-1008.4,600.7z"/>
			</g>
			<g>
				<path class="st1" d="M-1029.4,649.7c-0.8,0-1.5-0.7-1.5-1.5v-4c0-0.8,0.7-1.5,1.5-1.5c0.8,0,1.5,0.7,1.5,1.5v4
					C-1027.9,649.1-1028.6,649.7-1029.4,649.7z"/>
			</g>
			<g>
				<path class="st1" d="M-997.4,673.2c-0.8,0-1.5-0.7-1.5-1.5s0.7-1.5,1.5-1.5c13.5,0,15.5-22.3,15.5-35.6
					c0-19.4-6.2-34.4-11.6-34.4c-1.5,0-3.5,0.5-5.4,4.3c-0.4,0.7-1.3,1-2,0.7c-0.7-0.4-1-1.3-0.7-2c2-4,4.6-6,8.1-6
					c7.9,0,14.6,17.1,14.6,37.4C-978.9,659.5-985.5,673.2-997.4,673.2z"/>
			</g>
			<g>
				<path class="st1" d="M-1037.2,673.2c-11.9,0-18.5-13.7-18.5-38.6c0-20.3,6.7-37.4,14.6-37.4c3.5,0,6.1,2,8.1,6
					c0.4,0.7,0.1,1.6-0.7,2c-0.7,0.4-1.6,0.1-2-0.7c-1.9-3.8-3.9-4.3-5.4-4.3c-5.4,0-11.6,15-11.6,34.4c0,13.3,2,35.6,15.5,35.6
					c0.8,0,1.5,0.7,1.5,1.5C-1035.7,672.6-1036.4,673.2-1037.2,673.2z"/>
			</g>
		</g>
	</g>
	<g>
		<g>
			<path class="st1" d="M-435.6,753.7c40.5,0,73.5,33,73.5,73.5s-33,73.5-73.5,73.5 M-435.6,897.7c38.9,0,70.5-31.6,70.5-70.5
				s-31.6-70.5-70.5-70.5"/>
		</g>
		<g>
			<g>
				<path class="st1" d="M-401.4,843.2h-70c-0.8,0-1.5-0.7-1.5-1.5v-42.5c0-0.8,0.7-1.5,1.5-1.5s1.5,0.7,1.5,1.5v41h67v-41
					c0-0.8,0.7-1.5,1.5-1.5c0.8,0,1.5,0.7,1.5,1.5v42.5C-399.9,842.6-400.6,843.2-401.4,843.2z"/>
			</g>
			<g>
				<path class="st1" d="M-398.9,795.2h-76c-0.8,0-1.5-0.7-1.5-1.5s0.7-1.5,1.5-1.5h76c0.8,0,1.5,0.7,1.5,1.5
					C-397.4,794.6-398.1,795.2-398.9,795.2z"/>
			</g>
			<g>
				<path class="st1" d="M-436.4,874.7c-0.8,0-1.5-0.7-1.5-1.5v-26c0-0.8,0.7-1.5,1.5-1.5c0.8,0,1.5,0.7,1.5,1.5v26
					C-434.9,874.1-435.6,874.7-436.4,874.7z"/>
			</g>
			<g>
				<path class="st1" d="M-456.4,874.7c-0.4,0-0.8-0.2-1.1-0.5c-0.6-0.6-0.5-1.6,0.1-2.1l20-18c0.6-0.6,1.6-0.5,2.1,0.1
					c0.6,0.6,0.5,1.6-0.1,2.1l-20,18C-455.7,874.6-456,874.7-456.4,874.7z"/>
			</g>
			<g>
				<path class="st1" d="M-416.4,874.7c-0.4,0-0.7-0.1-1-0.4l-20-18c-0.6-0.6-0.7-1.5-0.1-2.1s1.5-0.7,2.1-0.1l20,18
					c0.6,0.6,0.7,1.5,0.1,2.1C-415.6,874.6-416,874.7-416.4,874.7z"/>
			</g>
			<g>
				<path class="st1" d="M-412.9,808.2h-46c-0.8,0-1.5-0.7-1.5-1.5s0.7-1.5,1.5-1.5h46c0.8,0,1.5,0.7,1.5,1.5
					C-411.4,807.6-412.1,808.2-412.9,808.2z"/>
			</g>
			<g>
				<path class="st1" d="M-412.9,819.2h-46c-0.8,0-1.5-0.7-1.5-1.5s0.7-1.5,1.5-1.5h46c0.8,0,1.5,0.7,1.5,1.5
					C-411.4,818.6-412.1,819.2-412.9,819.2z"/>
			</g>
			<g>
				<path class="st1" d="M-412.9,830.2h-46c-0.8,0-1.5-0.7-1.5-1.5s0.7-1.5,1.5-1.5h46c0.8,0,1.5,0.7,1.5,1.5
					C-411.4,829.6-412.1,830.2-412.9,830.2z"/>
			</g>
		</g>
	</g>
	<g>
		<g>
			<g>
				<path class="st1" d="M-589.4,668.2h-82c-0.8,0-1.5-0.7-1.5-1.5v-56c0-0.8,0.7-1.5,1.5-1.5h82c0.8,0,1.5,0.7,1.5,1.5v56
					C-587.9,667.6-588.6,668.2-589.4,668.2z M-669.9,665.2h79v-53h-79V665.2z"/>
			</g>
			<g>
				<path class="st1" d="M-654.3,645.2c0-0.1,0-0.2,0-0.2l5.5-17.9c0.2-0.7,0.9-1,2-1c1.1,0,1.8,0.3,2,0.9l5.5,17.9
					c0,0.1,0.1,0.2,0.1,0.3c0,0.3-0.2,0.6-0.6,0.9c-0.4,0.3-0.9,0.4-1.4,0.4c-0.6,0-0.9-0.2-1.1-0.6l-1.1-3.9h-6.8l-1.1,3.9
					c-0.1,0.4-0.5,0.6-1,0.6c-0.4,0-0.9-0.1-1.2-0.4C-654.1,645.8-654.3,645.5-654.3,645.2z M-649.7,639.6h5.5l-2.8-9.5
					L-649.7,639.6z"/>
				<path class="st1" d="M-636,645.5v-18.3c0-0.3,0.1-0.5,0.4-0.7s0.6-0.3,0.9-0.3h5c1.7,0,3,0.3,4.1,1c1,0.7,1.5,1.9,1.5,3.7
					c0,2.3-0.8,3.8-2.3,4.5c0.9,0.4,1.6,0.9,2.1,1.6s0.7,1.7,0.7,3v0.5c0,2-0.5,3.5-1.5,4.4c-1,0.9-2.3,1.4-4,1.4h-5.6
					c-0.4,0-0.7-0.1-0.9-0.3C-635.9,646-636,645.7-636,645.5z M-633.1,634.3h3.3c1.9,0,2.8-0.9,2.8-2.8c0-1.8-0.9-2.6-2.8-2.6h-3.2
					L-633.1,634.3L-633.1,634.3z M-633.1,643.8h3.4c2.1,0,3.1-1.1,3.1-3.4V640c0-1.2-0.3-2-0.8-2.5s-1.3-0.8-2.3-0.8h-3.4
					L-633.1,643.8L-633.1,643.8z"/>
				<path class="st1" d="M-619.6,640.4v-8c0-2.1,0.6-3.7,1.7-4.7c1.1-1,2.6-1.5,4.4-1.5c1.9,0,3.4,0.5,4.5,1.4
					c1.1,0.9,1.7,2.1,1.7,3.6c0,0.6-0.1,1-0.3,1.2c-0.2,0.2-0.6,0.3-1.1,0.3c-1,0-1.4-0.3-1.5-1c-0.1-2-1.2-3-3.2-3
					c-2.2,0-3.3,1.2-3.3,3.6v8c0,2.4,1.1,3.6,3.4,3.6c0.7,0,1.2-0.1,1.7-0.3c0.4-0.2,0.8-0.5,1-0.8c0.2-0.4,0.3-0.7,0.4-1
					c0.1-0.3,0.1-0.6,0.2-1c0.1-0.6,0.5-1,1.4-1c0.5,0,0.9,0.1,1.1,0.3c0.2,0.2,0.3,0.6,0.3,1.2c0,1.5-0.6,2.8-1.7,3.7
					c-1.2,1-2.7,1.4-4.5,1.4s-3.3-0.5-4.4-1.5C-619,644.1-619.6,642.6-619.6,640.4z"/>
			</g>
			<g>
				<path class="st1" d="M-660.4,612.2c-0.5,0-1-0.3-1.3-0.8c-0.4-0.7-0.1-1.6,0.6-2l31-17c0.7-0.4,1.6-0.1,2,0.6
					c0.4,0.7,0.1,1.6-0.6,2l-31,17C-659.9,612.2-660.1,612.2-660.4,612.2z"/>
			</g>
			<g>
				<path class="st1" d="M-598.4,612.2c-0.2,0-0.5-0.1-0.7-0.2l-31-17c-0.7-0.4-1-1.3-0.6-2c0.4-0.7,1.3-1,2-0.6l31,17
					c0.7,0.4,1,1.3,0.6,2C-597.3,612-597.9,612.2-598.4,612.2z"/>
			</g>
			<g>
				<path class="st1" d="M-598.2,660.4h-8.7c-0.8,0-1.5-0.7-1.5-1.5s0.7-1.5,1.5-1.5h8.7c0.8,0,1.5,0.7,1.5,1.5
					C-596.7,659.7-597.4,660.4-598.2,660.4z"/>
			</g>
		</g>
	</g>
	<g>
		<g>
			<g>
				<path class="st1" d="M-785.8,1063.6l-78-0.7c-0.8,0-1.5-0.7-1.5-1.5l0.7-78c0-0.8,0.7-1.5,1.5-1.5l78,0.7c0.8,0,1.5,0.7,1.5,1.5
					l-0.7,78C-784.3,1062.9-784.9,1063.6-785.8,1063.6z M-862.2,1059.9l75,0.7l0.7-75l-75-0.7L-862.2,1059.9z"/>
			</g>
			<g>
				<path class="st1" d="M-840.3,1016.6c-0.8,0-1.5-0.7-1.5-1.5l0.2-19c0-0.8,0.7-1.5,1.5-1.5s1.5,0.7,1.5,1.5l-0.2,19
					C-838.8,1015.9-839.5,1016.6-840.3,1016.6z"/>
			</g>
			<g>
				<path class="st1" d="M-830.8,1007.2l-19-0.2c-0.8,0-1.5-0.7-1.5-1.5s0.7-1.5,1.5-1.5l19,0.2c0.8,0,1.5,0.7,1.5,1.5
					S-829.9,1007.2-830.8,1007.2z"/>
			</g>
			<g>
				<g>
					<path class="st1" d="M-848.3,1047.7c-0.4,0-0.8-0.2-1.1-0.4c-0.6-0.6-0.6-1.5,0-2.1l15.6-15.3c0.6-0.6,1.5-0.6,2.1,0
						s0.6,1.5,0,2.1l-15.6,15.3C-847.6,1047.6-848,1047.7-848.3,1047.7z"/>
				</g>
				<g>
					<path class="st1" d="M-832.9,1047.9c-0.4,0-0.8-0.2-1.1-0.4l-15.3-15.6c-0.6-0.6-0.6-1.5,0-2.1s1.5-0.6,2.1,0l15.3,15.6
						c0.6,0.6,0.6,1.5,0,2.1C-832.1,1047.7-832.5,1047.9-832.9,1047.9z"/>
				</g>
			</g>
			<g>
				<path class="st1" d="M-797.8,1007.5l-17-0.2c-0.8,0-1.5-0.7-1.5-1.5s0.7-1.5,1.5-1.5l17,0.2c0.8,0,1.5,0.7,1.5,1.5
					S-796.9,1007.5-797.8,1007.5z"/>
			</g>
			<g>
				<path class="st1" d="M-798,1036.5l-17-0.2c-0.8,0-1.5-0.7-1.5-1.5c0-0.8,0.7-1.5,1.5-1.5l17,0.2c0.8,0,1.5,0.7,1.5,1.5
					C-796.5,1035.8-797.2,1036.5-798,1036.5z"/>
			</g>
			<g>
				<path class="st1" d="M-798.1,1046.5l-17-0.2c-0.8,0-1.5-0.7-1.5-1.5c0-0.8,0.7-1.5,1.5-1.5l17,0.2c0.8,0,1.5,0.7,1.5,1.5
					C-796.6,1045.8-797.3,1046.5-798.1,1046.5z"/>
			</g>
		</g>
	</g>
	<g>
		<g>
			<g>
				<path class="st1" d="M-829.8,868.4c-7.1,0-15-4.1-22.4-11.4c-7.8-7.8-12.2-18.3-12.2-29.3c0-11.1,4.3-21.5,12.2-29.3
					c7.8-7.8,18.3-12.2,29.3-12.2c11.1,0,21.5,4.3,29.3,12.2c10.1,10.1,13.7,20.7,9.9,29.2c-4.3,9.6-10.5,9.6-16.1,9.6
					c-3.9,0-7.6,0-10.8,3.2s-3.2,7-3.1,11c0.1,5.4,0.1,11.5-8.9,15.5C-824.8,867.9-827.2,868.4-829.8,868.4z M-822.8,789.2
					c-10.3,0-20,4-27.2,11.3c-7.3,7.3-11.3,16.9-11.3,27.2s4,20,11.3,27.2c3.9,3.9,11.8,10.5,20.3,10.5c2.1,0,4.1-0.4,6-1.3
					c7.3-3.2,7.2-7.4,7.1-12.8c-0.1-4.2-0.1-9,4-13.1s8.8-4.1,12.9-4.1c5.3,0,9.9,0,13.3-7.9c4.6-10.4-5-21.6-9.3-25.9
					C-802.8,793.2-812.5,789.2-822.8,789.2z"/>
			</g>
			<g>
				<path class="st1" d="M-830.8,857.7c-1.7,0-3.4-0.7-4.6-1.9c-2.5-2.5-2.5-6.7,0-9.2c1.2-1.2,2.9-1.9,4.6-1.9
					c1.7,0,3.4,0.7,4.6,1.9c2.5,2.5,2.5,6.7,0,9.2C-827.4,857-829,857.7-830.8,857.7z M-830.8,847.7c-0.9,0-1.8,0.4-2.5,1
					c-1.4,1.4-1.4,3.6,0,5c1.3,1.3,3.6,1.3,5,0c1.4-1.4,1.4-3.6,0-5C-828.9,848.1-829.8,847.7-830.8,847.7z"/>
			</g>
			<g>
				<path class="st1" d="M-844.9,844c-1.7,0-3.4-0.7-4.6-1.9c-1.2-1.2-1.9-2.9-1.9-4.6c0-1.7,0.7-3.4,1.9-4.6
					c1.2-1.2,2.9-1.9,4.6-1.9c1.7,0,3.4,0.7,4.6,1.9c1.2,1.2,1.9,2.9,1.9,4.6c0,1.7-0.7,3.4-1.9,4.6
					C-841.5,843.3-843.2,844-844.9,844z M-844.9,834c-0.9,0-1.8,0.4-2.5,1c-0.7,0.7-1,1.5-1,2.5c0,0.9,0.4,1.8,1,2.5
					c1.3,1.3,3.6,1.3,4.9,0c0.7-0.7,1-1.5,1-2.5c0-0.9-0.4-1.8-1-2.5S-844,834-844.9,834z"/>
			</g>
			<g>
				<path class="st1" d="M-798.2,825.2c-1.7,0-3.4-0.7-4.6-1.9c-2.5-2.5-2.5-6.7,0-9.2c1.2-1.2,2.9-1.9,4.6-1.9
					c1.7,0,3.4,0.7,4.6,1.9c1.2,1.2,1.9,2.9,1.9,4.6c0,1.7-0.7,3.4-1.9,4.6C-794.9,824.5-796.5,825.2-798.2,825.2z M-798.2,815.2
					c-0.9,0-1.8,0.4-2.5,1c-1.4,1.4-1.4,3.6,0,4.9c1.3,1.3,3.6,1.3,5,0c0.7-0.7,1-1.5,1-2.5c0-0.9-0.4-1.8-1-2.5
					C-796.4,815.6-797.3,815.2-798.2,815.2z"/>
			</g>
			<g>
				<path class="st1" d="M-813.4,812.5c-1.7,0-3.4-0.7-4.6-1.9c-1.2-1.2-1.9-2.9-1.9-4.6s0.7-3.4,1.9-4.6s2.9-1.9,4.6-1.9
					c1.7,0,3.4,0.7,4.6,1.9c2.5,2.5,2.5,6.7,0,9.2C-810,811.8-811.6,812.5-813.4,812.5z M-813.4,802.5c-0.9,0-1.8,0.4-2.5,1
					c-0.7,0.6-1,1.5-1,2.5c0,0.9,0.4,1.8,1,2.5c1.3,1.3,3.6,1.3,5,0c1.4-1.4,1.4-3.6,0-4.9C-811.6,802.8-812.4,802.5-813.4,802.5z"
					/>
			</g>
			<g>
				<path class="st1" d="M-845.3,825.2c-1.7,0-3.4-0.7-4.6-1.9c-2.5-2.5-2.5-6.7,0-9.2c1.2-1.2,2.9-1.9,4.6-1.9
					c1.7,0,3.4,0.7,4.6,1.9c1.2,1.2,1.9,2.9,1.9,4.6c0,1.7-0.7,3.4-1.9,4.6C-841.9,824.5-843.6,825.2-845.3,825.2z M-845.3,815.2
					c-0.9,0-1.8,0.4-2.5,1c-1.4,1.4-1.4,3.6,0,4.9c1.3,1.3,3.6,1.3,5,0c0.7-0.7,1-1.5,1-2.5c0-0.9-0.4-1.8-1-2.5
					C-843.5,815.6-844.4,815.2-845.3,815.2z"/>
			</g>
			<g>
				<path class="st1" d="M-832.2,811c-1.7,0-3.4-0.7-4.6-1.9c-1.2-1.2-1.9-2.9-1.9-4.6s0.7-3.4,1.9-4.6s2.9-1.9,4.6-1.9
					c1.7,0,3.4,0.7,4.6,1.9c2.5,2.5,2.5,6.7,0,9.2C-828.8,810.4-830.4,811-832.2,811z M-832.2,801c-0.9,0-1.8,0.4-2.5,1
					c-0.7,0.7-1,1.5-1,2.5c0,0.9,0.4,1.8,1,2.5c1.3,1.3,3.6,1.3,5,0c1.4-1.4,1.4-3.6,0-4.9C-830.4,801.4-831.2,801-832.2,801z"/>
			</g>
		</g>
	</g>
	<g>
		<g>
			<path class="st1" d="M-629.6,834.9c-8.9,0-16.1-7.2-16.1-16.1c0-8.9,7.2-16.1,16.1-16.1c8.9,0,16.1,7.2,16.1,16.1
				C-613.5,827.6-620.7,834.9-629.6,834.9z M-629.6,805.6c-7.2,0-13.1,5.9-13.1,13.1s5.9,13.1,13.1,13.1s13.1-5.9,13.1-13.1
				C-616.5,811.5-622.4,805.6-629.6,805.6z"/>
		</g>
		<g>
			<path class="st1" d="M-629.8,851L-629.8,851c-0.5,0-0.9-0.2-1.2-0.5l-4.7-5.8l-6.8,3.1c-0.4,0.2-0.9,0.2-1.3,0
				c-0.4-0.2-0.7-0.6-0.8-1l-1.8-7.3l-7.5-0.2c-0.4,0-0.9-0.2-1.1-0.6c-0.3-0.4-0.4-0.8-0.3-1.2l1.6-7.3l-6.6-3.4
				c-0.4-0.2-0.7-0.6-0.8-1s0-0.9,0.3-1.2l4.6-5.9l-4.5-6c-0.3-0.4-0.4-0.8-0.3-1.2c0.1-0.4,0.4-0.8,0.8-1l6.7-3.3l-1.5-7.3
				c-0.1-0.4,0-0.9,0.3-1.2s0.7-0.6,1.1-0.6l7.5-0.1l1.9-7.2c0.1-0.4,0.4-0.8,0.8-1c0.4-0.2,0.9-0.2,1.3,0l6.8,3.2l4.8-5.7
				c0.3-0.3,0.8-0.5,1.2-0.5c0.4,0,0.9,0.2,1.1,0.5l4.7,5.8l6.8-3.1c0.4-0.2,0.9-0.2,1.3,0c0.4,0.2,0.7,0.6,0.8,1l1.8,7.3l7.5,0.2
				c0.4,0,0.9,0.2,1.1,0.6c0.3,0.4,0.4,0.8,0.3,1.2l-1.6,7.3l6.6,3.4c0.4,0.2,0.7,0.6,0.8,1c0.1,0.4,0,0.9-0.3,1.2l-4.6,5.9l4.5,6
				c0.3,0.4,0.4,0.8,0.3,1.2c-0.1,0.4-0.4,0.8-0.8,1l-6.7,3.3l1.5,7.3c0.1,0.4,0,0.9-0.3,1.2s-0.7,0.6-1.1,0.6l-7.5,0.1l-1.9,7.2
				c-0.1,0.4-0.4,0.8-0.8,1c-0.4,0.2-0.9,0.2-1.3,0l-6.8-3.2l-4.8,5.7C-629,850.8-629.4,851-629.8,851z M-635.3,841.3
				c0.4,0,0.9,0.2,1.2,0.5l4.3,5.3l4.4-5.2c0.4-0.5,1.2-0.7,1.8-0.4l6.2,2.9l1.7-6.6c0.2-0.7,0.8-1.1,1.4-1.1l6.8-0.1l-1.3-6.7
				c-0.1-0.7,0.2-1.3,0.8-1.6l6.1-3l-4.1-5.4c-0.4-0.5-0.4-1.3,0-1.8l4.2-5.4l-6.1-3.1c-0.6-0.3-0.9-1-0.8-1.6l1.4-6.7l-6.8-0.2
				c-0.7,0-1.3-0.5-1.4-1.1l-1.6-6.6l-6.2,2.8c-0.6,0.3-1.3,0.1-1.8-0.4l-4.3-5.3l-4.4,5.2c-0.4,0.5-1.2,0.7-1.8,0.4l-6.2-2.9
				l-1.7,6.6c-0.2,0.7-0.8,1.1-1.4,1.1l-6.8,0.1l1.3,6.7c0.1,0.7-0.2,1.3-0.8,1.6l-6.1,3l4.1,5.4c0.4,0.5,0.4,1.3,0,1.8l-4.2,5.4
				l6.1,3.1c0.6,0.3,0.9,1,0.8,1.6l-1.4,6.7l6.8,0.2c0.7,0,1.3,0.5,1.4,1.1l1.6,6.6l6.2-2.8C-635.7,841.4-635.5,841.3-635.3,841.3z"
				/>
		</g>
		<g>
			<path class="st1" d="M-614.4,872.7c-0.3,0-0.6-0.1-0.8-0.2l-14.6-9.2l-13.8,9.2c-0.5,0.3-1.1,0.3-1.5,0.1
				c-0.5-0.3-0.8-0.8-0.8-1.3v-18.5c0-0.8,0.7-1.5,1.5-1.5s1.5,0.7,1.5,1.5v15.7l12.2-8.2c0.5-0.3,1.1-0.3,1.6,0l13.1,8.3v-15.8
				c0-0.8,0.7-1.5,1.5-1.5s1.5,0.7,1.5,1.5v18.5c0,0.5-0.3,1-0.8,1.3C-613.9,872.7-614.1,872.7-614.4,872.7z"/>
		</g>
	</g>
	<g>
		<g>
			<g>
				<path class="st1" d="M-642.6,470.2c-0.4,0-0.8-0.1-1.1-0.4l-16.8-16.8c-0.6-0.6-0.6-1.5,0-2.1l51.2-51.2c0.6-0.6,1.5-0.6,2.1,0
					l16.8,16.8c0.6,0.6,0.6,1.5,0,2.1l-51.2,51.2C-641.8,470.1-642.2,470.2-642.6,470.2z M-657.3,451.9l14.7,14.7l49.1-49.1
					l-14.7-14.7L-657.3,451.9z"/>
			</g>
			<g>
				<path class="st1" d="M-651,461.8c-0.4,0-0.8-0.1-1.1-0.4c-0.6-0.6-0.6-1.5,0-2.1l40-40c0.6-0.6,1.5-0.6,2.1,0
					c0.6,0.6,0.6,1.5,0,2.1l-40,40C-650.2,461.7-650.6,461.8-651,461.8z"/>
			</g>
			<g>
				<path class="st1" d="M-664.4,475.2c-0.1,0-0.2,0-0.3,0c-0.8-0.2-1.3-1-1.1-1.8l5-21.8c0.2-0.8,1-1.3,1.8-1.1
					c0.8,0.2,1.3,1,1.1,1.8l-5,21.8C-663.1,474.8-663.7,475.2-664.4,475.2z"/>
			</g>
			<g>
				<path class="st1" d="M-664.4,475.2c-0.7,0-1.3-0.5-1.5-1.2c-0.2-0.8,0.3-1.6,1.1-1.8l21.8-5c0.8-0.2,1.6,0.3,1.8,1.1
					c0.2,0.8-0.3,1.6-1.1,1.8l-21.8,5C-664.2,475.2-664.3,475.2-664.4,475.2z"/>
			</g>
			<g>
				<path class="st1" d="M-602.6,430.2c-0.4,0-0.8-0.1-1.1-0.4l-16.8-16.8c-0.6-0.6-0.6-1.5,0-2.1c0.6-0.6,1.5-0.6,2.1,0l16.8,16.8
					c0.6,0.6,0.6,1.5,0,2.1C-601.8,430.1-602.2,430.2-602.6,430.2z"/>
			</g>
		</g>
	</g>
	<g>
		<g>
			<g>
				<g>
					<path class="st1" d="M-1199.4,1000.2c-0.8,0-1.5-0.7-1.5-1.5c0-5.8-4.7-10.5-10.5-10.5c-5.8,0-10.5,4.7-10.5,10.5
						c0,0.8-0.7,1.5-1.5,1.5s-1.5-0.7-1.5-1.5c0-7.4,6.1-13.5,13.5-13.5s13.5,6.1,13.5,13.5
						C-1197.9,999.6-1198.6,1000.2-1199.4,1000.2z"/>
				</g>
				<g>
					<path class="st1" d="M-1243.4,1060.2c-0.2,0-0.5-0.1-0.7-0.2c-0.7-0.4-1-1.3-0.6-2l32-60c0.4-0.7,1.3-1,2-0.6
						c0.7,0.4,1,1.3,0.6,2l-32,60C-1242.3,1059.9-1242.8,1060.2-1243.4,1060.2z"/>
				</g>
				<g>
					<path class="st1" d="M-1179.4,1060.2c-0.5,0-1.1-0.3-1.3-0.8l-32-60c-0.4-0.7-0.1-1.6,0.6-2s1.6-0.1,2,0.6l32,60
						c0.4,0.7,0.1,1.6-0.6,2C-1178.9,1060.2-1179.1,1060.2-1179.4,1060.2z"/>
				</g>
				<g>
					<path class="st1" d="M-1211.3,1038c-8.9,0-18.4-2.2-18.4-6.9c0-0.8,0.7-1.5,1.5-1.5s1.5,0.7,1.5,1.5c0,1.2,5.2,3.9,15.4,3.9
						c10.1,0,15.4-2.8,15.4-3.9c0-0.8,0.7-1.5,1.5-1.5c0.8,0,1.5,0.7,1.5,1.5C-1192.9,1035.8-1202.4,1038-1211.3,1038z"/>
				</g>
				<g>
					<path class="st1" d="M-1211.4,987.7c-0.8,0-1.5-0.7-1.5-1.5v-7c0-0.8,0.7-1.5,1.5-1.5s1.5,0.7,1.5,1.5v7
						C-1209.9,987.1-1210.6,987.7-1211.4,987.7z"/>
				</g>
				<g>
					<path class="st1" d="M-1211.4,1042.7c-0.8,0-1.5-0.7-1.5-1.5v-9c0-0.8,0.7-1.5,1.5-1.5s1.5,0.7,1.5,1.5v9
						C-1209.9,1042.1-1210.6,1042.7-1211.4,1042.7z"/>
				</g>
			</g>
			<g>
				<path class="st1" d="M-1237.7,1056.9c-0.2,0-0.5-0.1-0.7-0.2l-6.1-3.1c-0.7-0.4-1-1.3-0.7-2c0.4-0.7,1.3-1,2-0.7l6.1,3.1
					c0.7,0.4,1,1.3,0.7,2C-1236.7,1056.6-1237.2,1056.9-1237.7,1056.9z"/>
			</g>
			<g>
				<path class="st1" d="M-1184.8,1056.9c-0.5,0-1.1-0.3-1.3-0.8c-0.4-0.7-0.1-1.6,0.7-2l6.1-3.1c0.7-0.4,1.6-0.1,2,0.7
					c0.4,0.7,0.1,1.6-0.7,2l-6.1,3.1C-1184.3,1056.9-1184.6,1056.9-1184.8,1056.9z"/>
			</g>
		</g>
	</g>
	<g>
		<g>
			<g>
				<path class="st1" d="M-982.4,1037.2h-70c-1.4,0-2.5-1.1-2.5-2.5v-42c0-1.4,1.1-2.5,2.5-2.5h70c1.4,0,2.5,1.1,2.5,2.5v42
					C-979.9,1036.1-981,1037.2-982.4,1037.2z M-1051.9,1034.2h69v-41h-69V1034.2z"/>
			</g>
			<g>
				<path class="st2" d="M-1017.4,1013.7"/>
			</g>
			<g>
				<path class="st1" d="M-1033,1022.9c0-0.1,0-0.2,0-0.3l6-19.5c0.3-0.7,1-1.1,2.1-1.1c1.2,0,1.9,0.3,2.2,1l6,19.5
					c0,0.1,0.1,0.2,0.1,0.3c0,0.4-0.2,0.7-0.7,1c-0.5,0.3-1,0.4-1.5,0.4c-0.6,0-1-0.2-1.2-0.7l-1.2-4.3h-7.4l-1.2,4.3
					c-0.1,0.4-0.5,0.7-1.1,0.7c-0.5,0-0.9-0.1-1.4-0.4C-1032.7,1023.5-1033,1023.2-1033,1022.9z M-1027.9,1016.7h6l-3-10.3
					L-1027.9,1016.7z"/>
			</g>
			<g>
				<path class="st1" d="M-1013.3,1015.1c-0.2-0.3-0.3-0.6-0.3-1s0.1-0.7,0.3-1s0.4-0.4,0.7-0.4h3.5v-3.4c0-0.3,0.1-0.5,0.4-0.7
					c0.3-0.2,0.6-0.3,1-0.3s0.7,0.1,0.9,0.3c0.3,0.2,0.4,0.5,0.4,0.7v3.4h3.5c0.3,0,0.5,0.1,0.7,0.4c0.2,0.3,0.3,0.6,0.3,1
					s-0.1,0.7-0.3,1s-0.5,0.4-0.7,0.4h-3.5v3.5c0,0.3-0.1,0.5-0.4,0.7c-0.3,0.2-0.6,0.3-0.9,0.3c-0.4,0-0.7-0.1-1-0.3
					s-0.4-0.4-0.4-0.7v-3.5h-3.5C-1012.9,1015.5-1013.1,1015.4-1013.3,1015.1z"/>
			</g>
			<g>
				<path class="st1" d="M-974.4,1052.7L-974.4,1052.7h-86c-0.5,0-1-0.3-1.3-0.7c-0.3-0.4-0.3-1-0.1-1.4l7-15.5
					c0.2-0.5,0.8-0.9,1.4-0.9h72c0.6,0,1.1,0.3,1.4,0.9l6.9,15.3c0.2,0.2,0.2,0.5,0.2,0.8C-972.9,1052.1-973.5,1052.7-974.4,1052.7z
					 M-1058.1,1049.7h81.4l-5.6-12.5h-70.1L-1058.1,1049.7z"/>
			</g>
			<g>
				<path class="st1" d="M-1009.9,1048.2h-15c-0.8,0-1.5-0.7-1.5-1.5c0-0.8,0.7-1.5,1.5-1.5h15c0.8,0,1.5,0.7,1.5,1.5
					C-1008.4,1047.6-1009.1,1048.2-1009.9,1048.2z"/>
			</g>
			<g>
				<path class="st1" d="M-1008.9,1052.7c-0.7,0-1.3-0.5-1.5-1.2l-1-4.5c-0.2-0.8,0.3-1.6,1.1-1.8c0.8-0.2,1.6,0.3,1.8,1.1l1,4.5
					c0.2,0.8-0.3,1.6-1.1,1.8C-1008.7,1052.7-1008.8,1052.7-1008.9,1052.7z"/>
			</g>
			<g>
				<path class="st1" d="M-1025.9,1052.1c-0.1,0-0.3,0-0.4,0c-0.8-0.2-1.3-1-1.1-1.8l1-3.8c0.2-0.8,1-1.3,1.8-1.1
					c0.8,0.2,1.3,1,1.1,1.8l-1,3.8C-1024.6,1051.6-1025.2,1052.1-1025.9,1052.1z"/>
			</g>
		</g>
	</g>
	<g>
		<g>
			<g>
				<path class="st1" d="M-1172.4,858.2h-78c-0.5,0-1-0.3-1.3-0.7s-0.3-1-0.1-1.4l6.9-14.7v-27.2c0-0.8,0.7-1.5,1.5-1.5
					s1.5,0.7,1.5,1.5v27.5c0,0.2,0,0.4-0.1,0.6l-6,12.9h73.3l-6-12.9c-0.1-0.2-0.1-0.4-0.1-0.6v-27.5c0-0.8,0.7-1.5,1.5-1.5
					c0.8,0,1.5,0.7,1.5,1.5v27.2l6.9,14.7c0.2,0.5,0.2,1-0.1,1.4C-1171.4,858-1171.9,858.2-1172.4,858.2z"/>
			</g>
			<g>
				<path class="st1" d="M-1179.4,815.2c-0.8,0-1.5-0.7-1.5-1.5c0-16.8-13.7-30.5-30.5-30.5s-30.5,13.7-30.5,30.5
					c0,0.8-0.7,1.5-1.5,1.5s-1.5-0.7-1.5-1.5c0-18.5,15-33.5,33.5-33.5s33.5,15,33.5,33.5C-1177.9,814.6-1178.6,815.2-1179.4,815.2z
					"/>
			</g>
			<g>
				<path class="st1" d="M-1231.2,813.6c-0.8,0-1.5-0.7-1.5-1.5c0-11.2,9.1-20.3,20.3-20.3c0.8,0,1.5,0.7,1.5,1.5s-0.7,1.5-1.5,1.5
					c-9.5,0-17.3,7.8-17.3,17.3C-1229.7,813-1230.3,813.6-1231.2,813.6z"/>
			</g>
			<g>
				<path class="st1" d="M-1211.4,873.2c-7.2,0-13.1-4.3-13.1-9.5c0-0.8,0.7-1.5,1.5-1.5s1.5,0.7,1.5,1.5c0,3.5,4.6,6.5,10.1,6.5
					s10.1-3,10.1-6.5c0-0.8,0.7-1.5,1.5-1.5c0.8,0,1.5,0.7,1.5,1.5C-1198.3,869.1-1204,873.2-1211.4,873.2z"/>
			</g>
		</g>
	</g>
	<g>
		<g>
			<g>
				<path class="st1" d="M-794.4,485.2h-60c-0.8,0-1.5-0.7-1.5-1.5v-14c0-0.8,0.7-1.5,1.5-1.5h60c0.8,0,1.5,0.7,1.5,1.5v14
					C-792.9,484.6-793.6,485.2-794.4,485.2z M-852.9,482.2h57v-11h-57V482.2z"/>
			</g>
			<g>
				<path class="st1" d="M-841.4,470.2c-0.8,0-1.5-0.7-1.5-1.5c0-15.3-11.6-30.9-11.7-31.1c-0.4-0.5-0.4-1.2-0.1-1.7l30-45.5
					c0.5-0.7,1.4-0.9,2.1-0.4c0.7,0.5,0.9,1.4,0.4,2.1l-29.4,44.6c2.5,3.6,11.7,17.7,11.7,32C-839.9,469.6-840.6,470.2-841.4,470.2z
					"/>
			</g>
			<g>
				<path class="st1" d="M-805.9,470.2c-0.8,0-1.5-0.7-1.5-1.5c0-14.4,9.2-28.5,11.7-32l-28.9-44.7c-0.5-0.7-0.3-1.6,0.4-2.1
					c0.7-0.4,1.6-0.3,2.1,0.4l29.5,45.5c0.3,0.5,0.3,1.2-0.1,1.7c-0.1,0.2-11.7,15.8-11.7,31.1
					C-804.4,469.6-805.1,470.2-805.9,470.2z"/>
			</g>
			<g>
				<path class="st1" d="M-823.4,428.7c-0.8,0-1.5-0.7-1.5-1.5v-36c0-0.8,0.7-1.5,1.5-1.5s1.5,0.7,1.5,1.5v36
					C-821.9,428.1-822.6,428.7-823.4,428.7z"/>
			</g>
			<g>
				<path class="st1" d="M-823.4,446.2c-5.2,0-9.5-4.3-9.5-9.5c0-5.2,4.3-9.5,9.5-9.5s9.5,4.3,9.5,9.5
					C-813.9,442-818.1,446.2-823.4,446.2z M-823.4,430.2c-3.6,0-6.5,2.9-6.5,6.5s2.9,6.5,6.5,6.5s6.5-2.9,6.5-6.5
					S-819.8,430.2-823.4,430.2z"/>
			</g>
		</g>
	</g>
	<g>
		<g>
			<path class="st1" d="M-1017.6,1288.7c-40.5,0-73.5-33-73.5-73.5s33-73.5,73.5-73.5s73.5,33,73.5,73.5
				C-944.1,1255.8-977.1,1288.7-1017.6,1288.7z M-1017.6,1144.7c-38.9,0-70.5,31.6-70.5,70.5s31.6,70.5,70.5,70.5
				s70.5-31.6,70.5-70.5C-947.1,1176.4-978.7,1144.7-1017.6,1144.7z"/>
		</g>
		<g>
			<g>
				<path class="st1" d="M-1017.4,1259.2c-24.5,0-44.4-19.9-44.4-44.4s19.9-44.4,44.4-44.4s44.4,19.9,44.4,44.4
					C-972.9,1239.2-992.9,1259.2-1017.4,1259.2z M-1017.4,1173.3c-22.9,0-41.4,18.6-41.4,41.4c0,22.9,18.6,41.4,41.4,41.4
					s41.4-18.6,41.4-41.4C-975.9,1191.9-994.5,1173.3-1017.4,1173.3z"/>
			</g>
			<g>
				<path class="st1" d="M-1017.4,1235.6c-0.3,0-0.6-0.1-0.9-0.3l-18.3-12.6c-0.6-0.4-0.8-1.1-0.6-1.7l7-20.8c0.2-0.6,0.8-1,1.4-1
					h22.6c0.6,0,1.2,0.4,1.4,1l7,20.5c0.2,0.6,0,1.3-0.6,1.7l-18.3,12.8C-1016.8,1235.5-1017.1,1235.6-1017.4,1235.6z
					 M-1033.9,1220.9l16.5,11.3l16.5-11.6l-6.3-18.5h-20.4L-1033.9,1220.9z"/>
			</g>
			<g>
				<path class="st1" d="M-1005.3,1257.4c-0.4,0-0.8-0.1-1.1-0.4l-11.2-11.2l-10.4,10.4c-0.6,0.6-1.5,0.6-2.1,0s-0.6-1.5,0-2.1
					l11.5-11.5c0.3-0.3,0.7-0.4,1.1-0.4l0,0c0.4,0,0.8,0.2,1.1,0.4l12.3,12.3c0.6,0.6,0.6,1.5,0,2.1
					C-1004.5,1257.2-1004.9,1257.4-1005.3,1257.4z"/>
			</g>
			<g>
				<path class="st1" d="M-1000.3,1193.2c-0.3,0-0.7-0.1-0.9-0.3c-0.3-0.3-0.5-0.6-0.6-1l-1.5-15.8c-0.1-0.8,0.5-1.6,1.4-1.6
					c0.8-0.1,1.6,0.5,1.6,1.4l1.4,14.3l15.1-2c0.8-0.1,1.6,0.5,1.7,1.3c0.1,0.8-0.5,1.6-1.3,1.7l-16.6,2.2
					C-1000.2,1193.2-1000.3,1193.2-1000.3,1193.2z"/>
			</g>
			<g>
				<path class="st1" d="M-1034.2,1193.2c-0.1,0-0.1,0-0.2,0l-15.6-2.2c-0.8-0.1-1.4-0.9-1.3-1.7c0.1-0.8,0.9-1.4,1.7-1.3l14.1,2
					l1.4-15.2c0.1-0.8,0.8-1.4,1.6-1.4c0.8,0.1,1.4,0.8,1.4,1.6l-1.5,16.8c0,0.4-0.2,0.8-0.6,1
					C-1033.5,1193.1-1033.8,1193.2-1034.2,1193.2z"/>
			</g>
			<g>
				<path class="st1" d="M-1051.8,1239.9c-0.2,0-0.4,0-0.6-0.1c-0.8-0.3-1.1-1.2-0.7-2l6.7-14.4l-13.3-6.2c-0.8-0.3-1.1-1.2-0.7-2
					c0.4-0.8,1.2-1.1,2-0.7l14.7,6.8c0.8,0.3,1.1,1.2,0.7,2l-7.4,15.8C-1050.7,1239.6-1051.2,1239.9-1051.8,1239.9z"/>
			</g>
			<g>
				<path class="st1" d="M-982.8,1240.9c-0.6,0-1.1-0.3-1.4-0.9l-7.4-15.8c-0.4-0.8,0-1.6,0.7-2l14.7-6.8c0.8-0.3,1.6,0,2,0.7
					c0.4,0.8,0,1.6-0.7,2l-13.3,6.2l6.7,14.4c0.4,0.8,0,1.6-0.7,2C-982.3,1240.9-982.6,1240.9-982.8,1240.9z"/>
			</g>
			<g>
				<path class="st1" d="M-1006.1,1201.2c-0.3,0-0.6-0.1-0.9-0.3c-0.7-0.5-0.8-1.4-0.3-2.1l5.8-8c0.5-0.7,1.4-0.8,2.1-0.3
					c0.7,0.5,0.8,1.4,0.3,2.1l-5.8,8C-1005.2,1201-1005.6,1201.2-1006.1,1201.2z"/>
			</g>
			<g>
				<path class="st1" d="M-1028.7,1201.2c-0.5,0-0.9-0.2-1.2-0.6l-5.5-8c-0.5-0.7-0.3-1.6,0.4-2.1c0.7-0.5,1.6-0.3,2.1,0.4l5.5,8
					c0.5,0.7,0.3,1.6-0.4,2.1C-1028.1,1201.1-1028.4,1201.2-1028.7,1201.2z"/>
			</g>
			<g>
				<path class="st1" d="M-1044.4,1224.2c-0.7,0-1.3-0.5-1.5-1.2c-0.2-0.8,0.4-1.6,1.2-1.8l8.8-1.8c0.8-0.2,1.6,0.4,1.8,1.2
					c0.2,0.8-0.4,1.6-1.2,1.8l-8.8,1.8C-1044.2,1224.1-1044.3,1224.2-1044.4,1224.2z"/>
			</g>
			<g>
				<path class="st1" d="M-1017.6,1245.2L-1017.6,1245.2c-0.9,0-1.5-0.8-1.5-1.6l0.2-9.8c0-0.8,0.7-1.5,1.5-1.5s1.5,0.7,1.5,1.5
					l-0.2,9.8C-1016.1,1244.5-1016.7,1245.2-1017.6,1245.2z"/>
			</g>
			<g>
				<path class="st1" d="M-990.1,1225.2c-0.2,0-0.3,0-0.5-0.1l-9-2.9c-0.8-0.3-1.2-1.1-1-1.9c0.3-0.8,1.1-1.2,1.9-1l9,2.9
					c0.8,0.3,1.2,1.1,1,1.9C-988.9,1224.7-989.5,1225.2-990.1,1225.2z"/>
			</g>
		</g>
	</g>
	<g>
		<g>
			<path class="st1" d="M-435.6,947.7c40.5,0,73.5,33,73.5,73.5c0,40.5-33,73.5-73.5,73.5 M-435.6,1091.7
				c38.9,0,70.5-31.6,70.5-70.5c0-38.9-31.6-70.5-70.5-70.5"/>
		</g>
		<g>
			<g>
				<path class="st1" d="M-444.9,1057.2h-20.5c-0.8,0-1.5-0.7-1.5-1.5v-33.5c0-0.8,0.7-1.5,1.5-1.5s1.5,0.7,1.5,1.5v32h19
					c0.8,0,1.5,0.7,1.5,1.5C-443.4,1056.6-444.1,1057.2-444.9,1057.2z"/>
			</g>
			<g>
				<path class="st1" d="M-406.4,1057.2h-19.5c-0.8,0-1.5-0.7-1.5-1.5c0-0.8,0.7-1.5,1.5-1.5h18v-32c0-0.8,0.7-1.5,1.5-1.5
					c0.8,0,1.5,0.7,1.5,1.5v33.5C-404.9,1056.6-405.6,1057.2-406.4,1057.2z"/>
			</g>
			<g>
				<path class="st1" d="M-426.4,1056.7c-0.8,0-1.5-0.7-1.5-1.5v-17h-15v17c0,0.8-0.7,1.5-1.5,1.5s-1.5-0.7-1.5-1.5v-18.5
					c0-0.8,0.7-1.5,1.5-1.5h18c0.8,0,1.5,0.7,1.5,1.5v18.5C-424.9,1056.1-425.6,1056.7-426.4,1056.7z"/>
			</g>
			<g>
				<path class="st1" d="M-435.4,1024.1c-5.5,0-9.9-4.4-9.9-9.9s4.4-9.9,9.9-9.9s9.9,4.4,9.9,9.9
					C-425.5,1019.7-429.9,1024.1-435.4,1024.1z M-435.4,1007.3c-3.8,0-6.9,3.1-6.9,6.9c0,3.8,3.1,6.9,6.9,6.9s6.9-3.1,6.9-6.9
					C-428.5,1010.4-431.6,1007.3-435.4,1007.3z"/>
			</g>
			<g>
				<path class="st1" d="M-473.7,1021.7c-0.4,0-0.8-0.1-1.1-0.4c-0.6-0.6-0.6-1.5,0-2.1l37.7-37.7c0.6-0.6,1.6-0.6,2.1,0l37.7,37.7
					c0.6,0.6,0.6,1.5,0,2.1s-1.5,0.6-2.1,0l-36.6-36.6l-36.6,36.6C-472.9,1021.6-473.3,1021.7-473.7,1021.7z"/>
			</g>
		</g>
	</g>
	<g>
		<g>
			<g>
				<path class="st1" d="M-1230.4,1199.2h-20c-0.8,0-1.5-0.7-1.5-1.5v-20c0-0.8,0.7-1.5,1.5-1.5h20c0.8,0,1.5,0.7,1.5,1.5v20
					C-1228.9,1198.6-1229.6,1199.2-1230.4,1199.2z M-1248.9,1196.2h17v-17h-17V1196.2z"/>
			</g>
			<g>
				<path class="st1" d="M-1230.4,1229.2h-20c-0.8,0-1.5-0.7-1.5-1.5v-20c0-0.8,0.7-1.5,1.5-1.5h20c0.8,0,1.5,0.7,1.5,1.5v20
					C-1228.9,1228.6-1229.6,1229.2-1230.4,1229.2z M-1248.9,1226.2h17v-17h-17V1226.2z"/>
			</g>
			<g>
				<path class="st1" d="M-1230.4,1259.2h-20c-0.8,0-1.5-0.7-1.5-1.5v-20c0-0.8,0.7-1.5,1.5-1.5h20c0.8,0,1.5,0.7,1.5,1.5v20
					C-1228.9,1258.6-1229.6,1259.2-1230.4,1259.2z M-1248.9,1256.2h17v-17h-17V1256.2z"/>
			</g>
			<g>
				<path class="st1" d="M-1173.9,1184.2h-47c-0.8,0-1.5-0.7-1.5-1.5c0-0.8,0.7-1.5,1.5-1.5h47c0.8,0,1.5,0.7,1.5,1.5
					C-1172.4,1183.6-1173.1,1184.2-1173.9,1184.2z"/>
			</g>
			<g>
				<path class="st1" d="M-1193.9,1194.2h-27c-0.8,0-1.5-0.7-1.5-1.5c0-0.8,0.7-1.5,1.5-1.5h27c0.8,0,1.5,0.7,1.5,1.5
					C-1192.4,1193.6-1193.1,1194.2-1193.9,1194.2z"/>
			</g>
			<g>
				<path class="st1" d="M-1173.9,1214.2h-47c-0.8,0-1.5-0.7-1.5-1.5c0-0.8,0.7-1.5,1.5-1.5h47c0.8,0,1.5,0.7,1.5,1.5
					C-1172.4,1213.6-1173.1,1214.2-1173.9,1214.2z"/>
			</g>
			<g>
				<path class="st1" d="M-1193.9,1224.2h-27c-0.8,0-1.5-0.7-1.5-1.5c0-0.8,0.7-1.5,1.5-1.5h27c0.8,0,1.5,0.7,1.5,1.5
					C-1192.4,1223.6-1193.1,1224.2-1193.9,1224.2z"/>
			</g>
			<g>
				<path class="st1" d="M-1173.9,1244.2h-47c-0.8,0-1.5-0.7-1.5-1.5c0-0.8,0.7-1.5,1.5-1.5h47c0.8,0,1.5,0.7,1.5,1.5
					C-1172.4,1243.6-1173.1,1244.2-1173.9,1244.2z"/>
			</g>
			<g>
				<path class="st1" d="M-1193.9,1254.2h-27c-0.8,0-1.5-0.7-1.5-1.5c0-0.8,0.7-1.5,1.5-1.5h27c0.8,0,1.5,0.7,1.5,1.5
					C-1192.4,1253.6-1193.1,1254.2-1193.9,1254.2z"/>
			</g>
			<g>
				<path class="st1" d="M-1243.4,1222.3c-0.4,0-0.7-0.1-1-0.4c-0.6-0.6-0.6-1.5-0.1-2.1l6.1-6.5c0.6-0.6,1.5-0.6,2.1-0.1
					c0.6,0.6,0.6,1.5,0.1,2.1l-6.1,6.5C-1242.6,1222.1-1243,1222.3-1243.4,1222.3z"/>
			</g>
			<g>
				<path class="st1" d="M-1237.2,1222.3c-0.4,0-0.8-0.2-1.1-0.5l-6.1-6.5c-0.6-0.6-0.5-1.6,0.1-2.1c0.6-0.6,1.6-0.5,2.1,0.1
					l6.1,6.5c0.6,0.6,0.5,1.6-0.1,2.1C-1236.5,1222.2-1236.9,1222.3-1237.2,1222.3z"/>
			</g>
		</g>
	</g>
	<g>
		<g>
			<path class="st1" d="M-823.6,1288.7c-40.5,0-73.5-33-73.5-73.5s33-73.5,73.5-73.5s73.5,33,73.5,73.5
				C-750.1,1255.8-783.1,1288.7-823.6,1288.7z M-823.6,1144.7c-38.9,0-70.5,31.6-70.5,70.5s31.6,70.5,70.5,70.5s70.5-31.6,70.5-70.5
				C-753.1,1176.4-784.7,1144.7-823.6,1144.7z"/>
		</g>
		<g>
			<g>
				<path class="st1" d="M-823.4,1248.2c-18.5,0-33.5-15-33.5-33.5s15-33.5,33.5-33.5s33.5,15,33.5,33.5S-804.9,1248.2-823.4,1248.2
					z M-823.4,1184.2c-16.8,0-30.5,13.7-30.5,30.5c0,16.8,13.7,30.5,30.5,30.5s30.5-13.7,30.5-30.5
					C-792.9,1197.9-806.6,1184.2-823.4,1184.2z"/>
			</g>
			<g>
				<path class="st1" d="M-788.4,1194.6c-0.8,0-1.5-0.7-1.5-1.5c0-6.5-5.3-11.9-11.9-11.9c-0.8,0-1.5-0.7-1.5-1.5
					c0-0.8,0.7-1.5,1.5-1.5c8.2,0,14.9,6.7,14.9,14.9C-786.9,1193.9-787.6,1194.6-788.4,1194.6z"/>
			</g>
			<g>
				<path class="st1" d="M-858.1,1194.6c-0.8,0-1.5-0.7-1.5-1.5c0-8.2,6.7-14.9,14.9-14.9c0.8,0,1.5,0.7,1.5,1.5
					c0,0.8-0.7,1.5-1.5,1.5c-6.5,0-11.9,5.3-11.9,11.9C-856.6,1193.9-857.3,1194.6-858.1,1194.6z"/>
			</g>
			<g>
				<path class="st1" d="M-823.4,1216.7c-0.8,0-1.5-0.7-1.5-1.5v-16c0-0.8,0.7-1.5,1.5-1.5s1.5,0.7,1.5,1.5v16
					C-821.9,1216.1-822.6,1216.7-823.4,1216.7z"/>
			</g>
			<g>
				<path class="st1" d="M-832.1,1225.5c-0.4,0-0.8-0.1-1.1-0.4c-0.6-0.6-0.6-1.5,0-2.1l8.8-8.8c0.6-0.6,1.5-0.6,2.1,0
					s0.6,1.5,0,2.1l-8.8,8.8C-831.4,1225.3-831.7,1225.5-832.1,1225.5z"/>
			</g>
			<g>
				<g>
					<path class="st1" d="M-823.4,1246.7c-0.8,0-1.5-0.7-1.5-1.5v-5c0-0.8,0.7-1.5,1.5-1.5s1.5,0.7,1.5,1.5v5
						C-821.9,1246.1-822.6,1246.7-823.4,1246.7z"/>
				</g>
				<g>
					<path class="st1" d="M-823.4,1189.7c-0.8,0-1.5-0.7-1.5-1.5v-5c0-0.8,0.7-1.5,1.5-1.5s1.5,0.7,1.5,1.5v5
						C-821.9,1189.1-822.6,1189.7-823.4,1189.7z"/>
				</g>
				<g>
					<path class="st1" d="M-849.9,1217.2h-5c-0.8,0-1.5-0.7-1.5-1.5c0-0.8,0.7-1.5,1.5-1.5h5c0.8,0,1.5,0.7,1.5,1.5
						C-848.4,1216.6-849.1,1217.2-849.9,1217.2z"/>
				</g>
				<g>
					<path class="st1" d="M-791.9,1217.2h-6c-0.8,0-1.5-0.7-1.5-1.5c0-0.8,0.7-1.5,1.5-1.5h6c0.8,0,1.5,0.7,1.5,1.5
						C-790.4,1216.6-791.1,1217.2-791.9,1217.2z"/>
				</g>
				<g>
					<path class="st1" d="M-846,1238.9c-0.4,0-0.8-0.1-1.1-0.4c-0.6-0.6-0.6-1.5,0-2.1l4.7-4.7c0.6-0.6,1.5-0.6,2.1,0s0.6,1.5,0,2.1
						l-4.7,4.7C-845.2,1238.7-845.6,1238.9-846,1238.9z"/>
				</g>
				<g>
					<path class="st1" d="M-804.4,1197.3c-0.4,0-0.8-0.1-1.1-0.4c-0.6-0.6-0.6-1.5,0-2.1l3.1-3.1c0.6-0.6,1.5-0.6,2.1,0
						s0.6,1.5,0,2.1l-3.1,3.1C-803.6,1197.1-804,1197.3-804.4,1197.3z"/>
				</g>
				<g>
					<path class="st1" d="M-842.4,1197.3c-0.4,0-0.8-0.1-1.1-0.4l-3.5-3.5c-0.6-0.6-0.6-1.5,0-2.1s1.5-0.6,2.1,0l3.5,3.5
						c0.6,0.6,0.6,1.5,0,2.1C-841.6,1197.1-842,1197.3-842.4,1197.3z"/>
				</g>
				<g>
					<path class="st1" d="M-800.8,1238.9c-0.4,0-0.8-0.1-1.1-0.4l-4.7-4.7c-0.6-0.6-0.6-1.5,0-2.1s1.5-0.6,2.1,0l4.7,4.7
						c0.6,0.6,0.6,1.5,0,2.1C-800,1238.7-800.4,1238.9-800.8,1238.9z"/>
				</g>
			</g>
			<g>
				<path class="st1" d="M-794.4,1256.2h-9.5c-0.8,0-1.5-0.7-1.5-1.5c0-0.8,0.7-1.5,1.5-1.5h7.2l-3-7c-0.3-0.8,0-1.6,0.8-2
					c0.8-0.3,1.6,0,2,0.8l3.9,9.1c0.2,0.5,0.2,1-0.1,1.4C-793.4,1256-793.9,1256.2-794.4,1256.2z"/>
			</g>
			<g>
				<path class="st1" d="M-843.9,1256.2h-8.8c-0.5,0-1-0.2-1.2-0.7c-0.3-0.4-0.3-0.9-0.2-1.4l3.3-8.2c0.3-0.8,1.2-1.1,1.9-0.8
					c0.8,0.3,1.1,1.2,0.8,1.9l-2.5,6.2h6.6c0.8,0,1.5,0.7,1.5,1.5C-842.4,1255.6-843.1,1256.2-843.9,1256.2z"/>
			</g>
		</g>
	</g>
	<g>
		<g>
			<path class="st1" d="M-629.6,1288.7c-40.5,0-73.5-33-73.5-73.5s33-73.5,73.5-73.5s73.5,33,73.5,73.5
				C-556.1,1255.8-589.1,1288.7-629.6,1288.7z M-629.6,1144.7c-38.9,0-70.5,31.6-70.5,70.5s31.6,70.5,70.5,70.5
				c38.9,0,70.5-31.6,70.5-70.5C-559.1,1176.4-590.7,1144.7-629.6,1144.7z"/>
		</g>
		<g>
			<g>
				<path class="st1" d="M-594.4,1247.2h-72c-0.8,0-1.5-0.7-1.5-1.5v-21c0-0.3,0.1-0.6,0.3-0.9l5.7-7.6v-31.5c0-0.1,0-0.2,0-0.4
					c0.2-0.9,3.1-9,31.5-9c28.3,0,31.2,8.1,31.5,9c0,0.1,0,0.2,0,0.4v31.5l5.7,7.6c0.2,0.3,0.3,0.6,0.3,0.9v21
					C-592.9,1246.6-593.6,1247.2-594.4,1247.2z M-664.9,1244.2h69v-19l-5.7-7.6c-0.2-0.3-0.3-0.6-0.3-0.9V1185
					c-0.4-0.8-4.4-6.7-28.5-6.7c-23.8,0-28,5.7-28.5,6.7v31.7c0,0.3-0.1,0.6-0.3,0.9l-5.7,7.6V1244.2z"/>
			</g>
			<g>
				<path class="st1" d="M-652.2,1237.2c-3.6,0-6.5-2.9-6.5-6.5s2.9-6.5,6.5-6.5c3.6,0,6.5,2.9,6.5,6.5S-648.6,1237.2-652.2,1237.2z
					 M-652.2,1227.2c-1.9,0-3.5,1.6-3.5,3.5s1.6,3.5,3.5,3.5c1.9,0,3.5-1.6,3.5-3.5S-650.3,1227.2-652.2,1227.2z"/>
			</g>
			<g>
				<path class="st1" d="M-608.2,1237.2c-3.6,0-6.5-2.9-6.5-6.5s2.9-6.5,6.5-6.5c3.6,0,6.5,2.9,6.5,6.5S-604.6,1237.2-608.2,1237.2z
					 M-608.2,1227.2c-1.9,0-3.5,1.6-3.5,3.5s1.6,3.5,3.5,3.5c1.9,0,3.5-1.6,3.5-3.5S-606.3,1227.2-608.2,1227.2z"/>
			</g>
			<g>
				<path class="st1" d="M-609.4,1215.2h-42c-0.8,0-1.5-0.7-1.5-1.5v-24c0-0.8,0.7-1.5,1.5-1.5h42c0.8,0,1.5,0.7,1.5,1.5v24
					C-607.9,1214.6-608.6,1215.2-609.4,1215.2z M-649.9,1212.2h39v-21h-39V1212.2z"/>
			</g>
			<g>
				<path class="st1" d="M-593.4,1205.7c-0.8,0-1.5-0.7-1.5-1.5v-11c0-0.8,0.7-1.5,1.5-1.5s1.5,0.7,1.5,1.5v11
					C-591.9,1205.1-592.6,1205.7-593.4,1205.7z"/>
			</g>
			<g>
				<path class="st1" d="M-667.4,1205.7c-0.8,0-1.5-0.7-1.5-1.5v-11c0-0.8,0.7-1.5,1.5-1.5s1.5,0.7,1.5,1.5v11
					C-665.9,1205.1-666.6,1205.7-667.4,1205.7z"/>
			</g>
			<g>
				<path class="st1" d="M-619.9,1228.2h-21c-0.8,0-1.5-0.7-1.5-1.5c0-0.8,0.7-1.5,1.5-1.5h21c0.8,0,1.5,0.7,1.5,1.5
					C-618.4,1227.6-619.1,1228.2-619.9,1228.2z"/>
			</g>
			<g>
				<path class="st1" d="M-619.9,1237.2h-21c-0.8,0-1.5-0.7-1.5-1.5c0-0.8,0.7-1.5,1.5-1.5h21c0.8,0,1.5,0.7,1.5,1.5
					C-618.4,1236.6-619.1,1237.2-619.9,1237.2z"/>
			</g>
			<g>
				<path class="st1" d="M-646.9,1258.2h-11c-0.8,0-1.5-0.7-1.5-1.5c0-0.8,0.7-1.5,1.5-1.5h11c0.8,0,1.5,0.7,1.5,1.5
					C-645.4,1257.6-646.1,1258.2-646.9,1258.2z"/>
			</g>
			<g>
				<path class="st1" d="M-658.4,1257.7c-0.8,0-1.5-0.7-1.5-1.5v-5c0-0.8,0.7-1.5,1.5-1.5s1.5,0.7,1.5,1.5v5
					C-656.9,1257.1-657.6,1257.7-658.4,1257.7z"/>
			</g>
			<g>
				<path class="st1" d="M-646.4,1257.7c-0.8,0-1.5-0.7-1.5-1.5v-5c0-0.8,0.7-1.5,1.5-1.5s1.5,0.7,1.5,1.5v5
					C-644.9,1257.1-645.6,1257.7-646.4,1257.7z"/>
			</g>
			<g>
				<path class="st1" d="M-602.9,1258.2h-11c-0.8,0-1.5-0.7-1.5-1.5c0-0.8,0.7-1.5,1.5-1.5h11c0.8,0,1.5,0.7,1.5,1.5
					C-601.4,1257.6-602.1,1258.2-602.9,1258.2z"/>
			</g>
			<g>
				<path class="st1" d="M-614.4,1257.7c-0.8,0-1.5-0.7-1.5-1.5v-5c0-0.8,0.7-1.5,1.5-1.5s1.5,0.7,1.5,1.5v5
					C-612.9,1257.1-613.6,1257.7-614.4,1257.7z"/>
			</g>
			<g>
				<path class="st1" d="M-602.4,1257.7c-0.8,0-1.5-0.7-1.5-1.5v-5c0-0.8,0.7-1.5,1.5-1.5s1.5,0.7,1.5,1.5v5
					C-600.9,1257.1-601.6,1257.7-602.4,1257.7z"/>
			</g>
		</g>
	</g>
	<g>
		<g>
			<path class="st1" d="M-435.6,1141.7c40.5,0,73.5,33,73.5,73.5s-33,73.5-73.5,73.5 M-435.6,1285.7c38.9,0,70.5-31.6,70.5-70.5
				s-31.6-70.5-70.5-70.5"/>
		</g>
		<g>
			<g>
				<path class="st1" d="M-421.9,1197.2h-27c-0.8,0-1.5-0.7-1.5-1.5c0-0.8,0.7-1.5,1.5-1.5h27c0.8,0,1.5,0.7,1.5,1.5
					C-420.4,1196.6-421.1,1197.2-421.9,1197.2z"/>
			</g>
			<g>
				<path class="st1" d="M-396.4,1197.2h-12.5c-0.8,0-1.5-0.7-1.5-1.5c0-0.8,0.7-1.5,1.5-1.5h11v-13h-77v13h13
					c0.8,0,1.5,0.7,1.5,1.5c0,0.8-0.7,1.5-1.5,1.5h-14.5c-0.8,0-1.5-0.7-1.5-1.5v-16c0-0.8,0.7-1.5,1.5-1.5h80
					c0.8,0,1.5,0.7,1.5,1.5v16C-394.9,1196.6-395.6,1197.2-396.4,1197.2z"/>
			</g>
			<g>
				<path class="st1" d="M-396.4,1254.2h-80c-0.8,0-1.5-0.7-1.5-1.5v-50.5c0-0.8,0.7-1.5,1.5-1.5s1.5,0.7,1.5,1.5v49h77v-49
					c0-0.8,0.7-1.5,1.5-1.5c0.8,0,1.5,0.7,1.5,1.5v50.5C-394.9,1253.6-395.6,1254.2-396.4,1254.2z"/>
			</g>
			<g>
				<path class="st1" d="M-455.4,1200.7c-0.8,0-1.5-0.7-1.5-1.5v-8c0-0.8,0.7-1.5,1.5-1.5s1.5,0.7,1.5,1.5v8
					C-453.9,1200.1-454.6,1200.7-455.4,1200.7z"/>
			</g>
			<g>
				<path class="st1" d="M-415.4,1200.7c-0.8,0-1.5-0.7-1.5-1.5v-8c0-0.8,0.7-1.5,1.5-1.5c0.8,0,1.5,0.7,1.5,1.5v8
					C-413.9,1200.1-414.6,1200.7-415.4,1200.7z"/>
			</g>
			<g>
				<g>
					<path class="st1" d="M-435.4,1235.7c-0.8,0-1.5-0.7-1.5-1.5v-24c0-0.8,0.7-1.5,1.5-1.5c0.8,0,1.5,0.7,1.5,1.5v24
						C-433.9,1235.1-434.6,1235.7-435.4,1235.7z"/>
				</g>
				<g>
					<path class="st1" d="M-441.4,1218.1c-0.4,0-0.7-0.1-1-0.4c-0.6-0.6-0.6-1.5-0.1-2.1l5.5-5.8c0.6-0.6,1.5-0.6,2.1-0.1
						c0.6,0.6,0.6,1.5,0.1,2.1l-5.5,5.8C-440.6,1217.9-441,1218.1-441.4,1218.1z"/>
				</g>
			</g>
			<g>
				<path class="st1" d="M-429.4,1236.7h-12c-0.8,0-1.5-0.7-1.5-1.5c0-0.8,0.7-1.5,1.5-1.5h12c0.8,0,1.5,0.7,1.5,1.5
					C-427.9,1236.1-428.6,1236.7-429.4,1236.7z"/>
			</g>
		</g>
	</g>
	<g>
		<g>
			<path class="st1" d="M-435.6,559.7c40.5,0,73.5,33,73.5,73.5s-33,73.5-73.5,73.5 M-435.6,703.7c38.9,0,70.5-31.6,70.5-70.5
				c0-38.9-31.6-70.5-70.5-70.5"/>
		</g>
		<g>
			<g>
				<g>
					<path class="st1" d="M-439.4,662.2c-7.6,0-15.1-2.9-20.9-8.6c-0.6-0.6-0.6-1.5,0-2.1c0.6-0.6,1.5-0.6,2.1,0
						c10.3,10.3,27.1,10.3,37.5,0c7.9-7.9,10-20,5.2-30.1c-0.4-0.7,0-1.6,0.7-2c0.7-0.4,1.6,0,2,0.7c5.3,11.2,3,24.7-5.8,33.5
						C-424.3,659.3-431.8,662.2-439.4,662.2z"/>
				</g>
				<g>
					<path class="st1" d="M-444.9,647.2h-25c-0.8,0-1.5-0.7-1.5-1.5s0.7-1.5,1.5-1.5h25c0.8,0,1.5,0.7,1.5,1.5
						C-443.4,646.6-444.1,647.2-444.9,647.2z"/>
				</g>
				<g>
					<path class="st1" d="M-415.3,610.2c-0.4,0-0.8-0.1-1.1-0.4c-0.6-0.6-0.6-1.5,0-2.1l4.3-4.3c0.6-0.6,1.5-0.6,2.1,0
						c0.6,0.6,0.6,1.5,0,2.1l-4.3,4.3C-414.5,610.1-414.9,610.2-415.3,610.2z"/>
				</g>
				<g>
					<path class="st1" d="M-437.3,632.2c-0.4,0-0.8-0.1-1.1-0.4c-0.6-0.6-0.6-1.5,0-2.1l12.2-12.2c0.6-0.6,1.5-0.6,2.1,0
						c0.6,0.6,0.6,1.5,0,2.1l-12.2,12.2C-436.5,632.1-436.9,632.2-437.3,632.2z"/>
				</g>
				<g>
					<path class="st1" d="M-445.3,624.2c-0.4,0-0.8-0.1-1.1-0.4c-0.6-0.6-0.6-1.5,0-2.1l26.3-26.3c0.6-0.6,1.5-0.6,2.1,0
						c0.6,0.6,0.6,1.5,0,2.1l-26.3,26.3C-444.5,624.1-444.9,624.2-445.3,624.2z"/>
				</g>
				<g>
					<path class="st1" d="M-436.2,635.3c-0.4,0-0.8-0.1-1.1-0.4l-12-12c-0.6-0.6-0.6-1.5,0-2.1c0.6-0.6,1.5-0.6,2.1,0l12,12
						c0.6,0.6,0.6,1.5,0,2.1C-435.4,635.2-435.8,635.3-436.2,635.3z"/>
				</g>
				<g>
					<path class="st1" d="M-411.8,605.2c-0.4,0-0.8-0.1-1.1-0.4l-7.2-7.2c-0.6-0.6-0.6-1.5,0-2.1c0.6-0.6,1.5-0.6,2.1,0l7.2,7.2
						c0.6,0.6,0.6,1.5,0,2.1C-411,605-411.4,605.2-411.8,605.2z"/>
				</g>
				<g>
					<path class="st1" d="M-414.4,601.6c-0.4,0-0.8-0.1-1.1-0.4c-0.6-0.6-0.6-1.5,0-2.1l4-4c0.6-0.6,1.5-0.6,2.1,0
						c0.6,0.6,0.6,1.5,0,2.1l-4,4C-413.6,601.4-414,601.6-414.4,601.6z"/>
				</g>
				<g>
					<path class="st1" d="M-408.4,599.6c-0.4,0-0.8-0.1-1.1-0.4l-4-4c-0.6-0.6-0.6-1.5,0-2.1c0.6-0.6,1.5-0.6,2.1,0l4,4
						c0.6,0.6,0.6,1.5,0,2.1C-407.6,599.4-408,599.6-408.4,599.6z"/>
				</g>
				<g>
					<path class="st1" d="M-419.9,677.2h-39c-0.8,0-1.5-0.7-1.5-1.5s0.7-1.5,1.5-1.5h39c0.8,0,1.5,0.7,1.5,1.5
						C-418.4,676.6-419.1,677.2-419.9,677.2z"/>
				</g>
				<g>
					<path class="st1" d="M-433.4,675.7c-0.8,0-1.5-0.7-1.5-1.5v-7c0-0.8,0.7-1.5,1.5-1.5c0.8,0,1.5,0.7,1.5,1.5v7
						C-431.9,675.1-432.6,675.7-433.4,675.7z"/>
				</g>
				<g>
					<path class="st1" d="M-445.4,675.7c-0.8,0-1.5-0.7-1.5-1.5v-7c0-0.8,0.7-1.5,1.5-1.5s1.5,0.7,1.5,1.5v7
						C-443.9,675.1-444.6,675.7-445.4,675.7z"/>
				</g>
				<g>
					<path class="st1" d="M-418.6,623.5c-4.2,0-7.6-3.4-7.6-7.6s3.4-7.6,7.6-7.6c4.2,0,7.6,3.4,7.6,7.6S-414.4,623.5-418.6,623.5z
						 M-418.6,611.3c-2.5,0-4.6,2.1-4.6,4.6s2.1,4.6,4.6,4.6s4.6-2.1,4.6-4.6S-416,611.3-418.6,611.3z"/>
				</g>
				<g>
					<path class="st1" d="M-443.2,635.7L-443.2,635.7c-0.4,0-0.8-0.2-1.1-0.4l-4.9-4.9c-0.6-0.6-0.6-1.5,0-2.1l2.9-2.9
						c0.6-0.6,1.5-0.6,2.1,0c0.6,0.6,0.6,1.5,0,2.1l-1.9,1.9l2.8,2.8l1.9-1.9c0.6-0.6,1.5-0.6,2.1,0c0.6,0.6,0.6,1.5,0,2.1l-2.9,2.9
						C-442.4,635.5-442.8,635.7-443.2,635.7z"/>
				</g>
			</g>
			<g>
				<path class="st1" d="M-469.9,651.1c-0.8,0-1.5-0.7-1.5-1.5v-3.8c0-0.8,0.7-1.5,1.5-1.5s1.5,0.7,1.5,1.5v3.8
					C-468.4,650.4-469.1,651.1-469.9,651.1z"/>
			</g>
			<g>
				<path class="st1" d="M-444.9,651.1c-0.8,0-1.5-0.7-1.5-1.5v-3.8c0-0.8,0.7-1.5,1.5-1.5s1.5,0.7,1.5,1.5v3.8
					C-443.4,650.4-444.1,651.1-444.9,651.1z"/>
			</g>
		</g>
	</g>
	<g>
		<path class="st1" d="M468.5,334c0.7-2.3,1.3-4.6,1.8-6.7c1.7-8.7,0.6-14.7-3.2-16.9c-1-0.6-2.2-0.9-3.5-0.9
			c-4.8,0-11.1,4.3-17.6,11.4c-6.5-7.1-12.9-11.4-17.6-11.4c-1.3,0-2.5,0.3-3.5,0.9c-5.2,3-4.9,12.5-1.4,23.6
			c-11.3,2.5-19.7,7-19.7,13s8.3,10.5,19.6,13c-0.7,2.3-1.3,4.6-1.8,6.7c-1.7,8.7-0.6,14.7,3.2,16.9c1,0.6,2.2,0.9,3.5,0.9
			c1.4,0,2.9-0.3,4.5-1c1.7-0.7,3.4-1.8,5.3-3.1c1.3-1,2.8-2.2,4.2-3.5c1.2-1.1,2.4-2.4,3.6-3.7c6.5,7.1,12.9,11.4,17.6,11.4
			c1.3,0,2.5-0.3,3.5-0.9c5.2-3,4.9-12.5,1.4-23.6c11.3-2.5,19.7-7,19.7-13C488.2,341,479.8,336.5,468.5,334z M463.6,312.9
			c0.7,0,1.3,0.1,1.8,0.4c2.5,1.4,3,6.3,1.6,13.3c-0.4,2.1-1,4.4-1.8,6.7c-3.4-0.6-6.9-1.1-10.6-1.3c-2.1-3.1-4.3-6-6.5-8.6
			C454,317,459.7,312.9,463.6,312.9z M456.3,353c-1.1,2-2.3,3.9-3.6,5.8c-2.2,0.1-4.5,0.2-6.8,0.2s-4.6-0.1-6.8-0.2
			c-1.2-1.9-2.4-3.8-3.6-5.8c-1.2-2-2.2-4-3.2-6c1-2,2.1-4,3.2-6c1.2-2,2.3-3.9,3.6-5.8c2.2-0.1,4.5-0.2,6.8-0.2s4.6,0.1,6.8,0.2
			c1.2,1.9,2.4,3.8,3.6,5.8c1.2,2,2.2,4,3.2,6C458.5,349,457.5,351,456.3,353z M459.2,339.3c-0.7-1.3-1.5-2.6-2.3-3.8
			c2.5,0.2,4.9,0.6,7.2,1c-0.8,2.2-1.7,4.4-2.8,6.7C460.7,341.9,460,340.6,459.2,339.3z M445.9,331.7c-1.5,0-3,0-4.4,0.1
			c1.5-2,2.9-4,4.4-5.7c1.5,1.8,3,3.7,4.4,5.7C448.9,331.7,447.4,331.7,445.9,331.7z M432.7,339.3c-0.7,1.3-1.5,2.6-2.1,3.9
			c-1-2.3-2-4.5-2.8-6.7c2.3-0.4,4.7-0.7,7.2-1C434.2,336.8,433.4,338,432.7,339.3z M432.7,354.7c0.7,1.3,1.5,2.6,2.3,3.8
			c-2.5-0.2-4.9-0.6-7.2-1c0.8-2.2,1.7-4.4,2.8-6.7C431.2,352.1,431.9,353.4,432.7,354.7z M445.9,362.3c1.5,0,3,0,4.4-0.1
			c-1.5,2-2.9,4-4.4,5.8c-1.5-1.8-3-3.7-4.4-5.8C443,362.3,444.5,362.3,445.9,362.3z M459.2,354.7c0.7-1.3,1.5-2.6,2.1-3.9
			c1,2.3,2,4.5,2.8,6.7c-2.3,0.4-4.7,0.7-7.2,1C457.7,357.2,458.5,356,459.2,354.7z M437.3,332c-3.6,0.3-7.2,0.7-10.6,1.3
			c-0.7-2.3-1.4-4.6-1.8-6.7c-1.4-6.9-0.8-11.9,1.6-13.3c0.5-0.3,1.1-0.4,1.8-0.4c3.9,0,9.5,4,15.4,10.5
			C441.5,326,439.4,328.9,437.3,332z M428.6,347c-1.6,3.4-3,6.7-4.2,9.9c-2.4-0.5-4.6-1.1-6.7-1.8c-6.7-2.3-10.7-5.3-10.7-8
			c0-2.7,4-5.7,10.7-8c2.1-0.7,4.3-1.3,6.7-1.8C425.6,340.4,427,343.7,428.6,347z M437.3,362c2.1,3.1,4.3,6,6.5,8.6
			c-1.2,1.3-2.4,2.6-3.7,3.7c-1.3,1.2-2.6,2.4-3.9,3.3c-1.7,1.2-3.2,2.1-4.6,2.7c-2.1,0.9-3.9,1-5,0.3c-2.5-1.4-3-6.3-1.6-13.3
			c0.4-2.1,1-4.4,1.8-6.7C430,361.3,433.6,361.7,437.3,362z M454.6,362c3.6-0.3,7.2-0.7,10.6-1.3c0.7,2.3,1.4,4.6,1.8,6.7
			c1.4,6.9,0.8,11.9-1.6,13.3c-0.5,0.3-1.1,0.4-1.8,0.4c-3.9,0-9.5-4-15.4-10.5C450.4,368,452.5,365.1,454.6,362z M463.3,347
			c1.6-3.4,3-6.7,4.2-9.9c2.4,0.5,4.6,1.1,6.6,1.8c6.7,2.3,10.7,5.3,10.7,8c0,2.7-4,5.7-10.7,8c-2.1,0.7-4.3,1.3-6.7,1.8
			C466.2,353.6,464.8,350.3,463.3,347z"/>
		<path class="st1" d="M445.9,339.8c-4,0-7.2,3.2-7.2,7.2s3.2,7.2,7.2,7.2s7.2-3.2,7.2-7.2S449.9,339.8,445.9,339.8z M449.8,347
			c0,2.1-1.7,3.9-3.9,3.9s-3.9-1.7-3.9-3.9c0-2.1,1.7-3.9,3.9-3.9S449.8,344.9,449.8,347z"/>
	</g>
	<g>
		<path class="st1" d="M663.5,310.2l-70.8-0.6l0,0c-0.9,0-1.7,0.8-1.7,1.7l-0.6,70.8c0,1,0.8,1.7,1.7,1.7l70.8,0.6l0,0
			c0.9,0,1.7-0.8,1.7-1.7l0.6-70.8c0-0.5-0.2-0.9-0.5-1.2C664.4,310.4,663.9,310.2,663.5,310.2z M661.7,313.6l-0.6,67.4l-67.3-0.6
			l0.6-67.3L661.7,313.6z"/>
		<path class="st1" d="M604.7,333.1l6.9,0.1l-0.1,6.9c0,0.5,0.2,0.9,0.5,1.2s0.8,0.5,1.2,0.5l0,0c0.5,0,0.9-0.2,1.2-0.5
			s0.5-0.8,0.5-1.2l0.1-6.9l6.9,0.1l0,0c0.5,0,0.9-0.2,1.2-0.5s0.5-0.8,0.5-1.2c0-0.5-0.2-0.9-0.5-1.2c-0.3-0.3-0.8-0.5-1.2-0.5
			l-6.9-0.1l0.1-6.9c0-1-0.8-1.7-1.7-1.7s-1.7,0.8-1.7,1.7l-0.1,6.9l-6.9-0.1l0,0c-0.9,0-1.7,0.8-1.7,1.7
			C603,332.3,603.8,333.1,604.7,333.1z"/>
		<path class="st1" d="M621.9,354.5c0-0.5-0.2-0.9-0.5-1.2s-0.8-0.5-1.2-0.5l0,0c-0.5,0-0.9,0.2-1.2,0.5l-5.8,5.7l-5.7-5.8
			c-0.7-0.7-1.8-0.7-2.5,0c-0.3,0.3-0.5,0.8-0.5,1.2c0,0.5,0.2,0.9,0.5,1.2l5.7,5.8l-5.8,5.7c-0.7,0.7-0.7,1.8,0,2.5
			c0.3,0.3,0.8,0.5,1.2,0.5l0,0c0.5,0,0.9-0.2,1.2-0.5l5.8-5.7l5.7,5.8c0.3,0.3,0.8,0.5,1.2,0.5l0,0c0.5,0,0.9-0.2,1.2-0.5
			c0.3-0.3,0.5-0.8,0.5-1.2c0-0.5-0.2-0.9-0.5-1.2l-5.7-5.8l5.8-5.7C621.7,355.4,621.9,354.9,621.9,354.5z"/>
		<path class="st1" d="M636.5,333.4l15.4,0.1l0,0c0.5,0,0.9-0.2,1.2-0.5c0.3-0.3,0.5-0.8,0.5-1.2c0-0.5-0.2-0.9-0.5-1.2
			c-0.3-0.3-0.8-0.5-1.2-0.5l-15.4-0.1l0,0c-0.9,0-1.7,0.8-1.7,1.7S635.5,333.4,636.5,333.4z"/>
		<path class="st1" d="M636.3,359.7l15.4,0.1l0,0c0.9,0,1.7-0.8,1.7-1.7c0-1-0.8-1.7-1.7-1.7l-15.4-0.1l0,0c-0.9,0-1.7,0.8-1.7,1.7
			C634.5,358.9,635.3,359.7,636.3,359.7z"/>
		<path class="st1" d="M636.2,368.8l15.4,0.1l0,0c0.9,0,1.7-0.8,1.7-1.7c0-1-0.8-1.7-1.7-1.7l-15.4-0.1l0,0c-0.9,0-1.7,0.8-1.7,1.7
			S635.2,368.8,636.2,368.8z"/>
	</g>
	<g>
		<path class="st1" d="M-76.8,372.5c0.9,0,1.7-0.8,1.7-1.7c0-5,4.1-9.1,9.1-9.1s9.1,4.1,9.1,9.1c0,0.9,0.8,1.7,1.7,1.7
			c1,0,1.7-0.8,1.7-1.7c0-6.3-4.7-11.5-10.8-12.3v-5.2c0-0.9-0.8-1.7-1.7-1.7c-0.9,0-1.7,0.8-1.7,1.7v5.2c-6.1,0.8-10.8,6-10.8,12.3
			C-78.5,371.8-77.7,372.5-76.8,372.5z"/>
		<path class="st1" d="M-37.4,417.5l-1.4,0.7L-64.5,370l-0.1-0.1c-0.1-0.1-0.1-0.2-0.2-0.3c-0.1-0.1-0.2-0.1-0.3-0.2l-0.1-0.1
			c-0.1,0-0.1,0-0.2-0.1c-0.1,0-0.2-0.1-0.3-0.1c-0.1,0-0.2,0-0.3,0c-0.1,0-0.2,0-0.3,0c-0.1,0-0.1,0-0.2,0s-0.1,0.1-0.1,0.1
			c-0.1,0-0.1,0-0.2,0s-0.1,0.1-0.1,0.1c-0.1,0.1-0.2,0.1-0.3,0.2c-0.1,0.1-0.1,0.2-0.2,0.3l-0.1,0.1L-93.1,418l-1.2-0.6
			c-0.8-0.4-1.9-0.1-2.3,0.8c-0.4,0.8-0.1,1.9,0.8,2.3l1.1,0.6l-1.5,2.8c-0.2,0.4-0.3,0.9-0.1,1.3c0.1,0.4,0.4,0.8,0.8,1
			c0.2,0.1,0.5,0.2,0.8,0.2c0.6,0,1.2-0.3,1.5-0.9l1.5-2.9l1.2,0.6c0.2,0.1,0.5,0.2,0.8,0.2c0.7,0,1.2-0.4,1.5-0.9
			c0.4-0.8,0.1-1.9-0.8-2.3l-1.2-0.6l8.9-16.7c2.6,2.2,7.9,3.3,13.4,3.5v2.6c0,0.9,0.8,1.7,1.7,1.7c1,0,1.7-0.8,1.7-1.7v-2.6
			c5.5-0.2,10.9-1.3,13.5-3.4l8.9,16.7l-1,0.5c-0.4,0.2-0.7,0.6-0.9,1c-0.1,0.4-0.1,0.9,0.1,1.3c0.3,0.6,0.9,0.9,1.5,0.9
			c0.3,0,0.5-0.1,0.8-0.2l1.1-0.5l1.5,2.8c0.3,0.6,0.9,0.9,1.5,0.9c0.3,0,0.6-0.1,0.8-0.2c0.4-0.2,0.7-0.6,0.8-1
			c0.1-0.4,0.1-0.9-0.1-1.3l-1.5-2.7l1.3-0.7c0.4-0.2,0.7-0.6,0.9-1c0.1-0.4,0.1-0.9-0.1-1.3C-35.6,417.4-36.6,417.1-37.4,417.5z
			 M-66,399.2c-0.9,0-1.7,0.8-1.7,1.7v2c-7.9-0.3-11.6-2.5-11.6-3.1c0-0.1,0-0.2-0.1-0.3l13.4-25l13.5,25.4
			c-0.1,0.6-3.9,2.8-11.8,3.1v-2C-64.3,400-65.1,399.2-66,399.2z"/>
	</g>
	<g>
		<path class="st1" d="M973.4,350.1c0.6,0.3,1.2,0.5,1.8,0.5c1.1,0,1.5-0.6,1.7-1.1l1.4-4.8h8.2l1.4,4.9c0.2,0.5,0.6,1,1.8,1
			c0.7,0,1.3-0.2,2-0.5c0.7-0.4,1-0.9,1-1.5c0-0.1,0-0.3-0.1-0.4l-7.1-23.2c-0.4-1-1.3-1.4-2.9-1.4s-2.5,0.5-2.9,1.5l-7.1,23.2
			c0,0.1-0.1,0.3-0.1,0.4C972.5,349.2,972.8,349.7,973.4,350.1z M979.4,340.9l3-10.6l3.1,10.6H979.4z"/>
		<path class="st1" d="M997,340.3h3.8v3.7c0,0.5,0.2,0.9,0.6,1.2c0.4,0.3,0.8,0.4,1.4,0.4c0.5,0,1-0.1,1.3-0.4
			c0.4-0.3,0.6-0.7,0.6-1.2v-3.8h3.7c0.4,0,0.8-0.2,1.2-0.6c0.3-0.4,0.5-0.8,0.5-1.4c0-0.5-0.2-1-0.5-1.4s-0.7-0.6-1.2-0.6h-3.7
			v-3.7c0-0.4-0.2-0.8-0.6-1.2c-0.7-0.6-1.9-0.6-2.7,0c-0.5,0.4-0.6,0.9-0.6,1.2v3.7H997c-0.5,0-0.9,0.2-1.2,0.6
			c-0.3,0.4-0.4,0.8-0.4,1.4c0,0.5,0.1,1,0.4,1.4C996.2,340.1,996.6,340.3,997,340.3z"/>
		<path class="st1" d="M1044.2,381.2l-8.1-17.9c0-0.2,0.1-0.3,0.1-0.5v-49.9c0-1.8-1.5-3.3-3.3-3.3h-83.1c-1.8,0-3.3,1.5-3.3,3.3
			v49.8c0,0.2,0.1,0.3,0.1,0.5l-8.2,18.2c-0.3,0.7-0.2,1.4,0.2,2.1c0.4,0.6,1.1,1,1.8,1h102.1c1.2,0,2.1-1,2.1-2.2
			C1044.5,381.9,1044.4,381.5,1044.2,381.2z M984.1,379.1h14.4l0.2,1h-14.9L984.1,379.1z M1002.4,376.5c0-0.1-0.1-0.1-0.1-0.2
			s-0.1-0.3-0.2-0.4s-0.1-0.2-0.2-0.3c-0.1-0.1-0.2-0.2-0.3-0.3c-0.1-0.1-0.2-0.2-0.3-0.2c-0.1-0.1-0.2-0.1-0.4-0.1
			c-0.1,0-0.3-0.1-0.4-0.1s-0.1,0-0.2,0h-17.8h-0.1c-0.2,0-0.3,0-0.5,0.1c-0.1,0-0.2,0.1-0.4,0.1h-0.1c-0.1,0-0.1,0.1-0.2,0.2
			s-0.2,0.2-0.3,0.3c-0.1,0.1-0.2,0.2-0.2,0.3c-0.1,0.1-0.1,0.2-0.2,0.4c0,0.1-0.1,0.1-0.1,0.1l-1,3.7h-35.7l6.4-14.1h82.6l6.4,14.1
			h-35.9L1002.4,376.5z M1031.9,361.8h-81.1v-47.9h81.1V361.8z"/>
	</g>
	<g>
		<path class="st1" d="M802.8,358.2v1.7c0,0.9,0.8,1.7,1.7,1.7s1.7-0.8,1.7-1.7v-3.4c0-0.9-0.8-1.7-1.7-1.7h-21.9
			c-0.9,0-1.7,0.8-1.7,1.7v3.4c0,0.9,0.8,1.7,1.7,1.7s1.7-0.8,1.7-1.7v-1.7H802.8z"/>
		<path class="st1" d="M834.2,310.1c-0.7-0.7-1.7-0.7-2.4,0c-0.7,0.7-0.7,1.7,0,2.4l0.6,0.6l-1.6,1.6l-2.4-2.4
			c-0.7-0.7-1.7-0.7-2.4,0L803.3,335l-0.5-0.5c-0.7-0.7-1.7-0.7-2.4,0c-0.7,0.7-0.7,1.7,0,2.4l2.1,2.1l-2,2c-0.7,0.7-0.7,1.7,0,2.4
			l4.3,4.3c0.3,0.3,0.7,0.5,1.2,0.5s0.9-0.2,1.2-0.5l2-2l1.7,1.7c0.3,0.3,0.7,0.5,1.2,0.5s0.9-0.2,1.2-0.5c0.7-0.7,0.7-1.7,0-2.4
			l-0.6-0.6l9.4-9.4c1.3,1.6,3.2,2.6,5.4,2.6c1.1,0,2.1-0.3,3-0.7c3.3,8.4,1.4,18.1-5,24.5c-4.3,4.3-10,6.7-16.1,6.7
			s-11.8-2.4-16.1-6.7c-0.7-0.7-1.7-0.7-2.4,0c-0.7,0.7-0.7,1.7,0,2.4c4.9,4.9,11.5,7.7,18.5,7.7s13.6-2.7,18.5-7.7
			c7.7-7.7,9.8-19.3,5.4-29.2c0.8-1.2,1.3-2.6,1.3-4.1c0-2.2-1-4.1-2.6-5.4l3.4-3.4c0.7-0.7,0.7-1.7,0-2.4c-0.1-0.1-0.3-0.2-0.4-0.3
			c-0.1-0.1-0.1-0.3-0.3-0.4l-1.5-1.5l1.6-1.6l0.6,0.6c0.3,0.3,0.7,0.5,1.2,0.5s0.9-0.2,1.2-0.5c0.7-0.7,0.7-1.7,0-2.4L834.2,310.1z
			 M831.2,330.4c0,2-1.6,3.7-3.7,3.7c-2,0-3.7-1.6-3.7-3.7s1.6-3.7,3.7-3.7C829.6,326.7,831.2,328.4,831.2,330.4z M827.6,323.4
			c-3.9,0-7,3.2-7,7c0,0.4,0.1,0.7,0.1,1.1l-10.3,10.3l-4.6-4.6l21.5-21.5l4.6,4.6l-2.6,2.6c-0.2,0.2-0.3,0.4-0.4,0.6
			C828.4,323.4,828,323.4,827.6,323.4z M806.8,343.1L806,344l-1.9-1.9l0.8-0.8L806.8,343.1z"/>
		<path class="st1" d="M826.4,381.1h-10.1v-5.8c0-0.9-0.8-1.7-1.7-1.7s-1.7,0.8-1.7,1.7v5.8h-7.1v-5.8c0-0.9-0.8-1.7-1.7-1.7
			s-1.7,0.8-1.7,1.7v5.8h-10.1c-0.9,0-1.7,0.8-1.7,1.7s0.8,1.7,1.7,1.7h34.2c0.9,0,1.7-0.8,1.7-1.7S827.3,381.1,826.4,381.1z"/>
	</g>
</g>
</svg>
