<?xml version="1.0" encoding="utf-8"?>
<!-- Generator: Adobe Illustrator 19.0.0, SVG Export Plug-In . SVG Version: 6.00 Build 0)  -->
<svg version="1.1" id="Layer_1" xmlns="http://www.w3.org/2000/svg" xmlns:xlink="http://www.w3.org/1999/xlink" x="0px" y="0px"
	 viewBox="0 0 30 35" style="enable-background:new 0 0 30 35;" xml:space="preserve">
<style type="text/css">
	.st0{fill:#C1C1C0;}
</style>
<path id="XMLID_7_" class="st0" d="M15,6.7C6.7,6.7,0,13,0,20.9S6.7,35,15,35s15-6.3,15-14.1S23.3,6.7,15,6.7z M16.2,32.8v-1
	c0-0.6-0.5-1.1-1.2-1.1s-1.2,0.5-1.2,1.1v1C7.8,32.2,2.9,27.7,2.4,21.9h1.1c0.6,0,1.2-0.5,1.2-1.1s-0.5-1.1-1.2-1.1H2.4
	C2.9,14,7.8,9.5,13.8,8.9v1c0,0.6,0.5,1.1,1.2,1.1s1.2-0.5,1.2-1.1v-1c6.1,0.5,10.9,5.1,11.5,10.8h-1.1c-0.6,0-1.2,0.5-1.2,1.1
	s0.5,1.1,1.2,1.1h1.1C27.1,27.7,22.2,32.2,16.2,32.8z M11.5,3.5V1.3c0-0.6,0.5-1.1,1.2-1.1h4.6c0.6,0,1.2,0.5,1.2,1.1v2.2
	c0,0.6-0.5,1.1-1.2,1.1v1.3c-0.8-0.1-1.5-0.2-2.3-0.2s-1.6,0.1-2.3,0.2V4.5C12.1,4.5,11.5,4.1,11.5,3.5z M25,8.9
	C23.8,8,22.4,7.3,21,6.7c0-0.1,0-0.1,0.1-0.2l1.2-1.9c0.3-0.5,1-0.7,1.6-0.4l2,1.1c0.6,0.3,0.7,1,0.4,1.5l-1.2,1.9
	C25,8.8,25,8.8,25,8.9z M25,15.4c0.3,0.5,0.1,1.2-0.4,1.5l-9,4.9c-0.2,0.1-0.4,0.1-0.6,0.1s-0.4,0-0.6-0.1l-9-4.9
	c-0.6-0.3-0.7-1-0.4-1.5s1-0.7,1.6-0.4l8.4,4.6l8.4-4.6C24,14.7,24.7,14.9,25,15.4z"/>
</svg>
