<?xml version="1.0" standalone="no"?>
<!DOCTYPE svg PUBLIC "-//W3C//DTD SVG 1.1//EN" "http://www.w3.org/Graphics/SVG/1.1/DTD/svg11.dtd" >
<svg xmlns="http://www.w3.org/2000/svg" xmlns:xlink="http://www.w3.org/1999/xlink" version="1.1">
<metadata>
Created by FontForge 20150824 at Mon Jan 25 04:57:21 2016
 By Everything Fonts
Copyright (c) 2013 by BPG-InfoTech. All rights reserved.
</metadata>
<defs>
<font id="BPGWEB001" horiz-adv-x="1303" >
  <font-face 
    font-family="BPGWEB001"
    font-weight="400"
    font-stretch="normal"
    units-per-em="2048"
    panose-1="2 11 6 3 3 8 4 2 2 4"
    ascent="1556"
    descent="-492"
    x-height="1120"
    cap-height="1493"
    bbox="-128 -482 2265 1657"
    underline-thickness="90"
    underline-position="-265"
    unicode-range="U+0020-2122"
  />
<missing-glyph horiz-adv-x="1229" 
d="M102 -362v1806h1024v-1806h-1024zM217 -248h795v1577h-795v-1577z" />
    <glyph glyph-name=".notdef" horiz-adv-x="1229" 
d="M102 -362v1806h1024v-1806h-1024zM217 -248h795v1577h-795v-1577z" />
    <glyph glyph-name=".null" horiz-adv-x="0" 
 />
    <glyph glyph-name="nonmarkingreturn" horiz-adv-x="682" 
 />
    <glyph glyph-name="space" unicode=" " horiz-adv-x="651" 
 />
    <glyph glyph-name="exclam" unicode="!" horiz-adv-x="821" 
d="M275 298h250v-298h-250v298zM275 1474h250v-651l-20 -366h-208l-22 366v651z" />
    <glyph glyph-name="quotedbl" unicode="&#x22;" horiz-adv-x="942" 
d="M389 1474v-584h-219v584h219zM748 1474v-584h-219v584h219z" />
    <glyph glyph-name="numbersign" unicode="#" horiz-adv-x="1716" 
d="M980 855h-219q-9 -35 -17 -66t-15.5 -62t-15 -63t-16.5 -69h218zM909 1452l-98 -394h219q24 96 50 198t49 196h210l-98 -394h289v-203h-339q-9 -36 -16.5 -67t-15.5 -61.5t-15.5 -62.5t-16.5 -69h294v-202h-345q-23 -95 -49.5 -197t-49.5 -196h-210l98 393h-220
q-23 -95 -49 -197t-49 -196h-211l99 393h-292v202h341q17 67 32.5 128t33.5 132h-298v203h348q23 96 49 198t49 196h211z" />
    <glyph glyph-name="dollar" unicode="$" 
d="M702 -286h-152l-1 287q-96 5 -195 28t-205 68v241q219 -136 401 -145v378q-105 19 -181 50t-124.5 76t-72 104.5t-23.5 134.5q0 162 103.5 257t297.5 115v226h152v-221q79 -7 166 -23.5t166 -42.5v-233q-184 91 -332 103v-350q211 -38 314.5 -129.5t103.5 -247.5
q0 -168 -108 -266.5t-310 -118.5v-291zM550 1115q-83 -15 -126 -56t-43 -107q0 -63 40.5 -100.5t128.5 -57.5v321zM702 199q91 18 138.5 62t47.5 111q0 33 -10 60t-32 47.5t-57.5 36t-86.5 26.5v-343z" />
    <glyph glyph-name="percent" unicode="%" horiz-adv-x="1946" 
d="M1438 624q-69 0 -108.5 -63t-39.5 -175q0 -110 39.5 -173t108.5 -63q68 0 107 63t39 173q0 112 -39 175t-107 63zM1438 801q163 0 260 -115q95 -111 95 -300q0 -95 -23.5 -170t-72.5 -131v1q-96 -114 -259 -114q-165 0 -262 114q-95 111 -95 300q0 188 95 300
q100 115 262 115zM458 1322q-69 0 -108 -63t-39 -173q0 -112 39 -174.5t108 -62.5q70 0 109.5 62.5t39.5 174.5q0 110 -40 173t-109 63zM1299 1500h219l-921 -1528h-218zM458 1500q163 0 262 -114q95 -110 95 -300q0 -192 -95 -302v1q-98 -114 -262 -114t-261 114
q-93 111 -93 301q0 187 94 299q98 115 260 115z" />
    <glyph glyph-name="ampersand" unicode="&#x26;" horiz-adv-x="1597" 
d="M492 751q-71 -69 -103.5 -135t-32.5 -139q0 -125 91 -209q92 -85 233 -85q154 0 276 95zM1106 449q45 77 70.5 169t30.5 199h236q-14 -140 -61 -269t-132 -247q33 -34 71.5 -73.5t78 -79.5t77 -78.5t68.5 -69.5h-319l-126 128q-99 -79 -206 -117.5t-231 -38.5
q-237 0 -393 138q-154 139 -154 356q0 246 243 435q-82 117 -82 229q0 168 115 269v-1q57 51 131 76.5t168 25.5q161 0 344 -78v-239q-100 54 -182 82t-143 28q-89 0 -144 -47q-52 -44 -52 -114q0 -20 6.5 -41.5t17.5 -42.5v1q13 -23 40.5 -55t70.5 -77h-1z" />
    <glyph glyph-name="quotesingle" unicode="'" horiz-adv-x="563" 
d="M384 1474v-584h-218v584h218z" />
    <glyph glyph-name="parenleft" unicode="(" horiz-adv-x="799" 
d="M663 1532q-138 -237 -205 -457.5t-67 -435.5q0 -217 67 -438t205 -457h-217q-149 235 -223 456t-74 439q0 216 73.5 436.5t223.5 456.5h217z" />
    <glyph glyph-name="parenright" unicode=")" horiz-adv-x="799" 
d="M332 1532q150 -236 224 -456.5t74 -436.5q0 -217 -74.5 -439.5t-223.5 -455.5h-216q137 236 204 457t67 438q0 215 -67.5 436t-203.5 457h216z" />
    <glyph glyph-name="asterisk" unicode="*" horiz-adv-x="1024" 
d="M966 1202l-321 -175q39 -21 80 -43.5t82.5 -45t81.5 -44t77 -41.5l-85 -142l-299 181v-336h-166v336q-73 -45 -151.5 -92t-148.5 -89l-84 142l321 175q-39 21 -80.5 43t-82.5 44.5t-81 44.5t-77 42l84 143l300 -181v336h166v-336q73 45 151.5 92t148.5 89z" />
    <glyph glyph-name="plus" unicode="+" horiz-adv-x="1716" 
d="M944 1276v-529h529v-218h-529v-529h-216v529h-529v218h529v529h216z" />
    <glyph glyph-name="comma" unicode="," horiz-adv-x="651" 
d="M207 298h257v-199l-166 -325h-177l86 335v189z" />
    <glyph glyph-name="hyphen" unicode="-" horiz-adv-x="739" 
d="M76 667h568v-212h-568v212z" />
    <glyph glyph-name="period" unicode="." horiz-adv-x="651" 
d="M188 298h257v-298h-257v298z" />
    <glyph glyph-name="slash" unicode="/" horiz-adv-x="690" 
d="M480 1474h223l-511 -1654h-222z" />
    <glyph glyph-name="zero" unicode="0" 
d="M634 1291q-268 0 -268 -555t268 -555q270 0 270 555t-270 555zM634 1500q126 0 223 -49.5t162.5 -146t99.5 -239.5t34 -329t-34 -328.5t-99.5 -239.5t-162.5 -146.5t-223 -49.5t-222.5 49.5t-162.5 146.5t-99.5 239.5t-33.5 328.5t33.5 329t99.5 239.5t162.5 146
t222.5 49.5z" />
    <glyph glyph-name="one" unicode="1" 
d="M230 218h313v1019q-41 -8 -84.5 -17t-87.5 -18t-87 -17.5t-82 -16.5v232l366 74h222v-1256h313v-218h-873v218z" />
    <glyph glyph-name="two" unicode="2" 
d="M1087 218v-218h-957v201q5 6 15 15.5t15 15.5q53 54 121.5 124.5t153.5 156.5q96 96 154 156t82 88q90 102 124 168q34 68 34 130q0 100 -70 163q-69 63 -187 63q-88 0 -194 -36t-239 -110v261q256 104 429 104q231 0 369 -117q142 -119 142 -316q0 -94 -35 -178
q-33 -80 -124 -190q-12 -14 -42.5 -46.5t-85.5 -89.5t-137.5 -142t-198.5 -203h631z" />
    <glyph glyph-name="three" unicode="3" 
d="M1093 1104q0 -108 -50.5 -187.5t-147.5 -123.5q91 -37 147 -105q41 -49 62.5 -112.5t21.5 -135.5q0 -221 -155 -346q-150 -122 -428 -122q-91 0 -192.5 20t-214.5 59v255q97 -57 199.5 -86t202.5 -29q167 0 253.5 63.5t86.5 185.5q0 56 -20.5 100.5t-59.5 75t-95.5 47
t-127.5 16.5h-194v214h201q129 0 196 49t67 142q0 96 -69.5 146.5t-200.5 50.5q-79 0 -175.5 -19.5t-220.5 -60.5v231q121 35 223 51.5t190 16.5q230 0 363 -106h-1q139 -107 139 -290z" />
    <glyph glyph-name="four" unicode="4" 
d="M686 1474h284v-923h202v-217h-202v-334h-247v334h-640v221zM723 1182q-52 -82 -102 -159l-99 -154q-49 -77 -99 -155.5t-104 -162.5h404v631z" />
    <glyph glyph-name="five" unicode="5" 
d="M198 1474h809v-218h-577v-281q35 9 69.5 14t69.5 5q248 0 395 -138q148 -137 148 -373q0 -240 -152 -377q-150 -134 -421 -134q-93 0 -192 16.5t-209 51.5v262q103 -56 200.5 -83.5t196.5 -27.5q157 0 242 79q86 78 86 213q0 134 -86 214q-85 78 -242 78
q-75 0 -157.5 -20t-179.5 -65v784z" />
    <glyph glyph-name="six" unicode="6" 
d="M658 785q-116 0 -183 -78q-68 -82 -68 -224q0 -71 17.5 -126.5t50.5 -97.5q34 -37 80 -57.5t103 -20.5t103 20.5t80 57.5q33 42 51 97.5t18 126.5q0 143 -69 224q-68 78 -183 78zM1067 1195q-88 42 -168.5 64t-150.5 22q-317 0 -368 -399q58 55 131 83.5t159 28.5
q224 0 358 -139q66 -69 99 -161t33 -211q0 -229 -138 -370t-364 -141q-261 0 -399 201q-67 99 -101 239t-34 324q0 345 166 553q169 211 450 211q75 0 155 -16.5t172 -49.5v-239z" />
    <glyph glyph-name="seven" unicode="7" 
d="M147 1474h969v-116l-523 -1358h-262l484 1256h-668v218z" />
    <glyph glyph-name="eight" unicode="8" 
d="M634 673q-127 0 -196 -66q-68 -62 -68 -180t68 -180q69 -66 196 -66q126 0 197 66h-1q70 67 70 180q0 116 -69 180q-35 33 -83.5 49.5t-113.5 16.5zM204 675q29 35 67 62t83 47q-97 45 -149 126.5t-52 193.5q0 183 131 290q130 106 350 106q221 0 351 -106
q131 -107 131 -290q0 -111 -51.5 -193t-148.5 -127q88 -38 148 -109q42 -51 63.5 -114t21.5 -134q0 -110 -34 -194.5t-99.5 -142.5t-161.5 -88t-220 -30t-219.5 30t-161 88t-99.5 142.5t-34 194.5q0 146 84 248zM401 1086q0 -97 60.5 -151t172.5 -54q111 0 173 54t62 151
t-62 151t-173 54q-112 0 -172.5 -54t-60.5 -151z" />
    <glyph glyph-name="nine" unicode="9" 
d="M201 277q89 -42 170 -64t150 -22q161 0 251.5 99t116.5 300q-57 -51 -132.5 -80.5t-157.5 -29.5q-224 0 -358 137q-131 137 -131 372q0 229 138 370t363 141q130 0 229.5 -49.5t167 -146t102.5 -239.5t35 -329q0 -345 -166 -554h1q-84 -105 -195.5 -157.5t-254.5 -52.5
q-75 0 -155.5 16.5t-173.5 49.5v239zM611 687q115 0 183 78q69 81 69 224q0 142 -69 223q-67 79 -183 79t-183 -79q-68 -82 -68 -223q0 -142 68 -224q67 -78 183 -78z" />
    <glyph glyph-name="colon" unicode=":" horiz-adv-x="690" 
d="M208 298h257v-298h-257v298zM208 1062h257v-298h-257v298z" />
    <glyph glyph-name="semicolon" unicode=";" horiz-adv-x="690" 
d="M207 1062h257v-298h-257v298zM207 298h257v-199l-166 -325h-177l86 335v189z" />
    <glyph glyph-name="less" unicode="&#x3c;" horiz-adv-x="1716" 
d="M1473 965l-923 -328q229 -81 462 -163.5t461 -163.5v-233l-1274 462v198l1274 462v-234z" />
    <glyph glyph-name="equal" unicode="=" horiz-adv-x="1716" 
d="M199 940h1274v-217h-1274v217zM199 552h1274v-218h-1274v218z" />
    <glyph glyph-name="greater" unicode="&#x3e;" horiz-adv-x="1716" 
d="M199 965v234l1274 -462v-198l-1274 -462v233l921 327z" />
    <glyph glyph-name="question" unicode="?" horiz-adv-x="1087" 
d="M356 298h250v-298h-250v298zM600 381h-238v174q0 101 30 169q15 34 43.5 72.5t73.5 80.5q22 21 43 42.5t43 41.5q50 47 72 86t22 80q0 70 -53 114q-55 46 -146 46q-71 0 -163 -40t-202 -116v249q196 120 399 120q186 0 299 -99q115 -100 115 -265q0 -79 -38 -151
q-18 -34 -49.5 -73t-74.5 -81q-20 -19 -42 -40.5t-42 -40.5v1q-21 -21 -35.5 -36.5t-23.5 -28t-14.5 -22.5t-8.5 -20h1q-5 -18 -8 -44.5t-3 -73.5v-145z" />
    <glyph glyph-name="at" unicode="@" horiz-adv-x="2048" 
d="M778 538q0 -123 60 -195v1q59 -68 164 -68q103 0 161 68q61 72 61 194q0 119 -62 192q-63 69 -162 69q-102 0 -162 -68v1q-29 -36 -44.5 -83.5t-15.5 -110.5zM1238 181q-55 -51 -121.5 -74t-151.5 -23q-90 0 -161 31t-127 96q-108 124 -108 327q0 201 109 328
q111 128 287 128q88 0 152.5 -21.5t120.5 -77.5v80h193v-692q103 25 165 108q73 100 73 257q0 194 -114 338q-96 121 -231.5 183.5t-296.5 62.5q-113 0 -216 -29.5t-191 -88.5q-144 -91 -224 -244q-80 -149 -80 -326q0 -146 52.5 -272.5t151.5 -223.5q97 -95 221.5 -144
t269.5 -49q118 0 237 44t225 127l122 -150q-135 -104 -284.5 -159t-299.5 -55q-183 0 -342 63.5t-286 188.5q-127 124 -192 284t-65 346q0 180 66 340t191 284q128 126 292 192t350 66q206 0 386 -86q89 -43 164 -103t136 -140q74 -97 113 -210t39 -235q0 -261 -160 -415
q-158 -151 -465 -158v102z" />
    <glyph glyph-name="A" unicode="A" horiz-adv-x="1401" 
d="M686 1189q-29 -79 -56 -152.5t-54 -146t-55 -147.5t-58 -156h447zM557 1493h260l569 -1493h-264l-131 368h-606q-16 -44 -32.5 -90.5t-33.5 -94t-33.5 -94t-31.5 -89.5h-267z" />
    <glyph glyph-name="B" unicode="B" horiz-adv-x="1405" 
d="M430 685v-468h283q143 0 211 57.5t68 177.5t-68 176.5t-211 56.5h-283zM430 1276v-375h259q128 0 190.5 45.5t62.5 141.5q0 188 -253 188h-259zM178 1493h525q118 0 209.5 -25.5t154.5 -74.5t95.5 -120.5t32.5 -163.5q0 -119 -40.5 -195.5t-131.5 -112.5
q113 -48 172 -142t59 -228q0 -207 -141 -319q-139 -112 -390 -112h-545v1493z" />
    <glyph glyph-name="C" unicode="C" horiz-adv-x="1430" 
d="M1311 1082q-119 112 -237 166t-237 54q-234 0 -356.5 -142t-122.5 -415q0 -135 31 -238.5t92 -174t150.5 -107t205.5 -36.5q239 0 474 220v-285q-222 -152 -486 -152q-339 0 -534 208q-195 207 -195 565q0 359 195 565v-1q194 210 534 210q267 0 486 -150v-287z" />
    <glyph glyph-name="D" unicode="D" horiz-adv-x="1577" 
d="M432 1276v-1059h206q285 0 414 126q130 126 130 405q0 275 -130 401q-130 127 -414 127h-206zM180 1493h428q207 0 368 -48.5t264 -133.5q98 -91 151.5 -233.5t53.5 -329.5q0 -193 -51.5 -333.5t-154.5 -232.5q-204 -182 -631 -182h-428v1493z" />
    <glyph glyph-name="E" unicode="E" horiz-adv-x="1294" 
d="M178 1493h965v-221h-714v-367h684v-221h-684v-463h731v-221h-982v1493z" />
    <glyph glyph-name="F" unicode="F" horiz-adv-x="1178" 
d="M177 1493h882v-221h-631v-365h570v-222h-570v-685h-251v1493z" />
    <glyph glyph-name="G" unicode="G" horiz-adv-x="1587" 
d="M1158 590h-317v218h567v-660q-124 -88 -266 -132t-300 -44q-350 0 -548 205q-197 205 -197 568q0 365 197 568q197 206 548 206q145 0 278 -38t250 -112v-285q-254 218 -512 218q-249 0 -374 -140t-125 -417q0 -276 125 -416t374 -140q94 0 167 15t133 46v340z" />
    <glyph glyph-name="H" unicode="H" horiz-adv-x="1540" 
d="M179 1493h252v-588h648v588h252v-1493h-252v684h-648v-684h-252v1493z" />
    <glyph glyph-name="I" unicode="I" horiz-adv-x="604" 
d="M170 1493h252v-1493h-252v1493z" />
    <glyph glyph-name="J" unicode="J" horiz-adv-x="604" 
d="M167 1493h252v-1364q0 -136 -26 -234.5t-80 -160.5q-107 -128 -338 -128h-103v221h90q113 0 158 61q47 63 47 241v1364z" />
    <glyph glyph-name="K" unicode="K" horiz-adv-x="1343" 
d="M180 1493h252v-568q39 37 88.5 83.5t103.5 97.5t110.5 104t110 104t102.5 97t88 82h335l-744 -700q93 -94 194 -195l405 -405q100 -100 192 -193h-336l-649 651v-651h-252v1493z" />
    <glyph glyph-name="L" unicode="L" horiz-adv-x="1141" 
d="M177 1493h252v-1272h699v-221h-951v1493z" />
    <glyph glyph-name="M" unicode="M" horiz-adv-x="1767" 
d="M181 1493h339l346 -924q86 229 174.5 463t173.5 461h338v-1493h-247v1129q-78 -211 -160.5 -428t-160.5 -425h-235l-321 854v-1130h-247v1493z" />
    <glyph glyph-name="N" unicode="N" horiz-adv-x="1532" 
d="M179 1493h309l589 -1112v1112h246v-1493h-308l-590 1112v-1112h-246v1493z" />
    <glyph glyph-name="O" unicode="O" horiz-adv-x="1612" 
d="M791 1304q-197 0 -314 -147h1q-118 -149 -118 -412q0 -261 118 -410h-1q117 -148 314 -148q198 0 312 147q118 149 118 411q0 263 -118 412q-114 147 -312 147zM791 1519q316 0 504 -213q189 -212 189 -561q0 -348 -189 -561q-189 -212 -504 -212t-505 212
q-189 212 -189 561t189 561q189 213 505 213z" />
    <glyph glyph-name="P" unicode="P" horiz-adv-x="1235" 
d="M429 1276v-482h216q122 0 188.5 62.5t66.5 178.5t-66.5 178.5t-188.5 62.5h-216zM178 1493h467q257 0 387 -116t130 -342q0 -228 -130 -343t-387 -115h-216v-577h-251v1493z" />
    <glyph glyph-name="Q" unicode="Q" horiz-adv-x="1612" 
d="M791 1304q-197 0 -314 -147h1q-118 -149 -118 -412q0 -261 118 -410h-1q117 -148 314 -148q198 0 312 147q118 149 118 411q0 263 -118 412q-114 147 -312 147zM1384 -254h-312l-211 229q-25 -2 -40.5 -2.5t-29.5 -0.5q-315 0 -505 212q-189 213 -189 561q0 349 189 561
q189 213 505 213t504 -213q189 -212 189 -561q0 -126 -27.5 -238.5t-77.5 -203.5q-48 -83 -116 -147.5t-153 -109.5z" />
    <glyph glyph-name="R" unicode="R" horiz-adv-x="1423" 
d="M1164 1051q0 -129 -52 -218.5t-154 -136.5q52 -36 100.5 -102t96.5 -160q24 -49 52.5 -105t57 -113t56.5 -112.5t52 -103.5h-273l-192 385q-65 134 -128 179q-59 43 -166 43h-182v-607h-252v1493h467q260 0 388.5 -110t128.5 -332zM432 1276v-452h215q127 0 191 57.5
t64 169.5t-64 168.5t-191 56.5h-215z" />
    <glyph glyph-name="S" unicode="S" horiz-adv-x="1300" 
d="M1095 1182q-129 61 -233.5 91.5t-193.5 30.5q-146 0 -223.5 -54t-77.5 -154q0 -81 47 -122h-1q52 -44 204 -72l118 -24q218 -46 332.5 -158t114.5 -295q0 -224 -146 -338.5t-433 -114.5q-105 0 -226.5 25t-257.5 75v269q275 -154 484 -154q154 0 236 57.5t82 166.5
q0 45 -15 81.5t-41 62.5q-29 25 -80 46.5t-119 35.5q-59 12 -118 23q-227 45 -329 143q-105 100 -105 278q0 203 144 322q141 116 388 116q207 0 449 -82v-255z" />
    <glyph glyph-name="T" unicode="T" horiz-adv-x="1251" 
d="M-23 1493h1272v-221h-509v-1272h-253v1272h-510v221z" />
    <glyph glyph-name="U" unicode="U" horiz-adv-x="1499" 
d="M157 1493h253v-901q0 -218 76 -314q75 -91 249 -91t249 91q76 96 76 314v901h253v-925q0 -295 -146 -445.5t-432 -150.5t-432 150.5t-146 445.5v925z" />
    <glyph glyph-name="V" unicode="V" horiz-adv-x="1401" 
d="M557 0l-570 1493h265l434 -1156q109 288 219 579t217 577h264l-569 -1493h-260z" />
    <glyph glyph-name="W" unicode="W" horiz-adv-x="2025" 
d="M48 1493h255l280 -1121q69 280 139.5 562t139.5 559h262l280 -1121q69 280 139.5 562t139.5 559h255l-374 -1493h-289l-281 1155q-70 -288 -141.5 -578.5t-141.5 -576.5h-289z" />
    <glyph glyph-name="X" unicode="X" horiz-adv-x="1403" 
d="M84 1493h278l341 -510q85 127 172 256t171 254h278l-481 -718q61 -92 126 -190.5t130.5 -198t130.5 -197.5t125 -189h-278l-389 587q-97 -146 -195.5 -294.5t-195.5 -292.5h-279l531 794z" />
    <glyph glyph-name="Y" unicode="Y" horiz-adv-x="1251" 
d="M-47 1493h279l383 -567q94 140 190.5 284t189.5 283h278l-533 -790v-703h-253v703z" />
    <glyph glyph-name="Z" unicode="Z" horiz-adv-x="1403" 
d="M95 1493h1186v-187l-877 -1085h899v-221h-1230v187l877 1085h-855v221z" />
    <glyph glyph-name="bracketleft" unicode="[" horiz-adv-x="799" 
d="M148 1534h460v-193h-228v-1405h228v-192h-460v1790z" />
    <glyph glyph-name="backslash" unicode="\" horiz-adv-x="690" 
d="M192 1474l511 -1654h-223l-510 1654h222z" />
    <glyph glyph-name="bracketright" unicode="]" horiz-adv-x="799" 
d="M630 1534v-1790h-459v192h227v1405h-227v193h459z" />
    <glyph glyph-name="asciicircum" unicode="^" horiz-adv-x="1716" 
d="M941 1474l571 -586h-269l-407 366q-99 -89 -204.5 -183.5t-202.5 -182.5h-269l572 586h209z" />
    <glyph glyph-name="underscore" unicode="_" horiz-adv-x="1024" 
d="M1032 -266v-192h-1066v192h1066z" />
    <glyph glyph-name="grave" unicode="`" horiz-adv-x="1024" 
d="M373 1612l310 -412h-215l-360 412h265z" />
    <glyph glyph-name="a" unicode="a" horiz-adv-x="1255" 
d="M681 534q-202 0 -279 -44q-67 -41 -67 -141q0 -81 53 -127t146 -46q134 0 211 92q82 97 82 256v10h-146zM1058 0h-231v103q-61 -64 -145.5 -97.5t-193.5 -33.5q-175 0 -280 99q-105 103 -105 267q0 195 126.5 292.5t380.5 97.5h217q-5 102 -76 157.5t-198 55.5
q-176 0 -372 -107v229q217 83 390 83q245 0 366 -127t121 -384v-635z" />
    <glyph glyph-name="b" unicode="b" horiz-adv-x="1300" 
d="M935 559q0 184 -74 285q-70 99 -194 99q-121 0 -196 -99v1q-73 -105 -73 -286q0 -182 73 -287v1q72 -97 196 -97q125 0 194 96q74 102 74 287zM398 1018q57 61 135.5 94.5t175.5 33.5q208 0 337 -165q128 -161 128 -422t-128 -422q-65 -82 -148 -123.5t-189 -41.5
q-97 0 -175.5 33.5t-135.5 94.5v-100h-232v1534h232v-516z" />
    <glyph glyph-name="c" unicode="c" horiz-adv-x="1126" 
d="M991 840q-92 50 -173 75.5t-155 25.5q-155 0 -242 -99q-87 -101 -87 -283q0 -91 22.5 -162t64.5 -122q44 -46 105.5 -72t136.5 -26q74 0 155 25.5t173 75.5v-227q-85 -39 -169.5 -59t-177.5 -20q-128 0 -227.5 40.5t-174.5 120.5q-149 158 -149 426q0 273 150 429
q152 158 413 158q84 0 167.5 -19t167.5 -58v-229z" />
    <glyph glyph-name="d" unicode="d" horiz-adv-x="1300" 
d="M870 1534h231v-1534h-231v100q-57 -61 -136 -94.5t-176 -33.5q-208 0 -337 165q-127 160 -127 422t127 422q129 165 337 165q97 0 176 -33.5t136 -94.5v516zM332 559q0 -184 73 -287v1q70 -97 195 -97q124 0 196 97q74 104 74 286t-74 285q-75 99 -196 99
q-122 0 -195 -99v1q-73 -103 -73 -286z" />
    <glyph glyph-name="e" unicode="e" horiz-adv-x="1260" 
d="M1137 490h-800q17 -154 105 -233.5t243 -79.5q97 0 198 29.5t213 88.5v-231q-105 -45 -210 -68.5t-211 -23.5q-134 0 -239 39.5t-185 117.5q-156 156 -156 421q0 272 148 432q149 164 401 164q227 0 360 -148q133 -147 133 -394v-114zM904 683q-7 111 -72 182
q-70 76 -186 76q-136 0 -215 -75h1q-72 -69 -88 -184z" />
    <glyph glyph-name="f" unicode="f" horiz-adv-x="721" 
d="M760 1534v-202h-195q-83 0 -111 -30v1q-28 -29 -28 -118v-65h288v-193h-288v-927h-233v927h-167v193h167v46q0 96 22 165.5t67.5 114.5t116 66.5t167.5 21.5h194z" />
    <glyph glyph-name="g" unicode="g" horiz-adv-x="1300" 
d="M870 572q0 178 -70.5 274.5t-199.5 96.5q-126 0 -196 -94q-37 -48 -54.5 -117t-17.5 -160q0 -87 18 -156t52.5 -116t84.5 -72t113 -25q126 0 197 93q73 99 73 276zM1101 160q0 -285 -128 -424.5t-390 -139.5q-94 0 -182.5 16t-178.5 48v237q96 -52 177.5 -76t156.5 -24
q313 0 314 330q-114 -127 -312 -127q-210 0 -337 159q-127 158 -127 413q0 257 127 414q128 160 337 160q196 0 312 -128v102h231v-960z" />
    <glyph glyph-name="h" unicode="h" horiz-adv-x="1298" 
d="M1112 0h-232v664q0 273 -207 273q-127 0 -202 -81q-74 -82 -74 -227v-629h-232v1534h232v-524q63 69 140 102.5t175 33.5q198 0 299 -120.5t101 -355.5v-670z" />
    <glyph glyph-name="i" unicode="i" horiz-adv-x="569" 
d="M162 1120h232v-1120h-232v1120zM162 1534h232v-278h-232v278z" />
    <glyph glyph-name="j" unicode="j" horiz-adv-x="569" 
d="M159 1120h232v-1111q0 -213 -85 -313v1q-86 -101 -270 -101h-95v205h75q87 0 113 35q30 37 30 173v1111zM159 1534h232v-278h-232v278z" />
    <glyph glyph-name="k" unicode="k" horiz-adv-x="1186" 
d="M166 1534h233v-837q119 105 240.5 211.5t240.5 211.5h310l-597 -527q72 -69 150.5 -145t159 -153.5t158.5 -152.5t148 -142h-311l-499 480v-480h-233v1534z" />
    <glyph glyph-name="l" unicode="l" horiz-adv-x="569" 
d="M162 1534h232v-1534h-232v1534z" />
    <glyph glyph-name="m" unicode="m" horiz-adv-x="1995" 
d="M719 1146q112 0 192.5 -50t128.5 -147q67 101 158 149t209 48q90 0 160 -31.5t117.5 -92.5t72.5 -149.5t25 -202.5v-670h-232v664q0 140 -47 206.5t-144 66.5q-121 0 -193 -81q-72 -84 -72 -227v-629h-232v664q0 140 -46.5 206.5t-146.5 66.5q-120 0 -191 -82
q-72 -84 -72 -226v-629h-232v1120h232v-105q60 66 136.5 98.5t176.5 32.5z" />
    <glyph glyph-name="n" unicode="n" horiz-adv-x="1298" 
d="M1112 0h-232v664q0 273 -207 273q-127 0 -202 -81q-74 -82 -74 -227v-629h-232v1120h232v-110q63 69 140 102.5t175 33.5q198 0 299 -120.5t101 -355.5v-670z" />
    <glyph glyph-name="o" unicode="o" horiz-adv-x="1253" 
d="M611 941q-126 0 -199 -99q-76 -101 -76 -283q0 -91 18.5 -161.5t56.5 -122.5q72 -98 200 -98q125 0 198 99q76 103 76 283q0 181 -76 282q-73 100 -198 100zM611 1146q240 0 380 -158q136 -154 136 -429q0 -274 -136 -429q-69 -78 -164 -118t-216 -40q-241 0 -381 158
q-69 78 -102 185t-33 244t33 244t102 185q140 158 381 158z" />
    <glyph glyph-name="p" unicode="p" horiz-adv-x="1300" 
d="M398 -404h-232v1524h232v-102q57 61 135.5 94.5t175.5 33.5q208 0 337 -165q128 -161 128 -422t-128 -422q-65 -82 -148 -123.5t-189 -41.5q-97 0 -175.5 33.5t-135.5 94.5v-504zM935 559q0 184 -74 285q-70 99 -194 99q-121 0 -196 -99v1q-73 -105 -73 -286
q0 -182 73 -287v1q72 -97 196 -97q125 0 194 96q74 102 74 287z" />
    <glyph glyph-name="q" unicode="q" horiz-adv-x="1300" 
d="M332 559q0 -184 73 -287v1q70 -97 195 -97q124 0 196 97q74 104 74 286t-74 285q-75 99 -196 99q-122 0 -195 -99v1q-73 -103 -73 -286zM870 100q-57 -61 -136 -94.5t-176 -33.5q-208 0 -337 165q-127 160 -127 422t127 422q129 165 337 165q97 0 176 -33.5t136 -94.5
v102h231v-1524h-231v504z" />
    <glyph glyph-name="r" unicode="r" horiz-adv-x="842" 
d="M841 879q-48 28 -89.5 41t-79.5 13q-136 0 -207 -88.5t-71 -256.5v-588h-233v1120h233v-104q59 64 141 97t188 33q17 0 46 -4t71 -12z" />
    <glyph glyph-name="s" unicode="s" horiz-adv-x="1067" 
d="M903 849q-185 94 -347 94q-232 0 -232 -131q0 -47 35 -74q22 -14 67 -30t110 -30q15 -3 29.5 -7t29.5 -7q98 -20 166.5 -50t110.5 -69q88 -81 88 -223q0 -81 -33 -145t-96 -112q-62 -45 -147.5 -69t-191.5 -24q-173 0 -401 75v248q226 -119 405 -119q110 0 169 34.5
t59 97.5q0 58 -38 88q-41 32 -199 67l-60 14h1q-87 19 -149.5 47t-102.5 67.5t-59 92t-19 120.5q0 82 29 145.5t85 107t137 66.5t186 23q100 0 191.5 -16.5t176.5 -50.5v-230z" />
    <glyph glyph-name="t" unicode="t" horiz-adv-x="803" 
d="M395 1422v-302h359v-193h-359v-548q0 -59 6.5 -96t20.5 -51q27 -29 125 -29h207v-203h-207q-214 0 -299 84q-86 84 -86 295v548h-128v193h128v302h233z" />
    <glyph glyph-name="u" unicode="u" horiz-adv-x="1298" 
d="M153 1120h232v-665q0 -274 207 -274q127 0 202 81t75 227v631h231v-1120h-231v109q-63 -69 -139.5 -103t-174.5 -34q-198 0 -300 120.5t-102 355.5v672z" />
    <glyph glyph-name="v" unicode="v" horiz-adv-x="1212" 
d="M32 1120h246l313 -839q77 208 156 420.5t156 418.5h246l-420 -1120h-277z" />
    <glyph glyph-name="w" unicode="w" horiz-adv-x="1675" 
d="M66 1120h233l197 -744q48 186 97.5 373.5t97.5 370.5h250l196 -744q49 186 98.5 373.5t97.5 370.5h233l-293 -1120h-249l-207 786q-52 -196 -105 -394.5t-103 -391.5h-250z" />
    <glyph glyph-name="x" unicode="x" horiz-adv-x="1212" 
d="M1139 1120l-405 -546q50 -67 104.5 -140t109.5 -147.5t108.5 -147.5t102.5 -139h-277l-295 398q-35 -47 -72.5 -98t-75.5 -102t-75.5 -101.5t-71.5 -96.5h-278l435 585q-46 62 -97.5 130.5t-103.5 138t-103 137.5t-96 129h278l267 -359q66 89 134.5 180t133.5 179h277z
" />
    <glyph glyph-name="y" unicode="y" horiz-adv-x="1212" 
d="M667 -81q-18 -44 -37 -84.5t-38.5 -74.5t-39 -59.5t-37.5 -40.5q-77 -64 -206 -64h-168v203h131q60 0 93 27q17 15 37 53t43 97q7 17 13.5 33.5t14.5 35.5q-54 130 -109.5 265.5t-112 272.5t-112 272.5t-108.5 264.5h246l314 -782q77 195 156.5 392.5t156.5 389.5h246z
" />
    <glyph glyph-name="z" unicode="z" horiz-adv-x="1075" 
d="M92 1120h887v-199l-623 -725h623v-196h-910v199l622 725h-599v196z" />
    <glyph glyph-name="braceleft" unicode="{" 
d="M1039 -123v-194h-88q-247 0 -336 77q-89 78 -89 302v227q0 133 -43 179q-42 45 -166 45h-86v193h86q124 0 166 45q43 46 43 177v228q0 112 22.5 187t66.5 114q89 77 336 77h88v-193h-93q-122 0 -155 -33q-32 -32 -32 -156v-235q0 -159 -49 -233v1q-15 -23 -37.5 -42.5
t-49.5 -33.5q56 -29 88 -77q48 -75 48 -231v-236q0 -123 32 -155q33 -33 155 -33h93z" />
    <glyph glyph-name="bar" unicode="|" horiz-adv-x="690" 
d="M445 1542v-2000h-218v2000h218z" />
    <glyph glyph-name="braceright" unicode="}" 
d="M231 -123h95q121 0 152 32q33 33 33 156v236q0 77 12 135t36 96q14 23 37 42.5t50 33.5q-28 14 -50.5 34t-36.5 43q-48 73 -48 232v235q0 123 -33 156t-152 33h-95v193h88q247 0 334 -78v1q90 -79 90 -301v-228q0 -131 43 -177v1q43 -46 165 -46h88v-193h-88
q-123 0 -165 -45q-43 -46 -43 -179v-227q0 -224 -90 -302v1q-87 -78 -334 -78h-88v194z" />
    <glyph glyph-name="asciitilde" unicode="~" horiz-adv-x="1716" 
d="M1473 621q-55 -41 -104.5 -70.5t-97 -48t-94 -27t-94.5 -8.5q-109 0 -254 58q-5 2 -9 3.5t-8 3.5q-3 1 -7 2.5t-11 3.5q-141 57 -226 57q-78 0 -167 -44.5t-202 -140.5v245q55 41 104.5 70.5t97 48t94 27.5t94.5 9q110 0 255 -59l10 -5q2 -1 3 -1q4 -2 9 -4t12 -4
q144 -56 227 -56q38 0 78.5 10.5t85 33t95 57t109.5 82.5v-243z" />
    <glyph glyph-name="nonbreakingspace" unicode="&#xa0;" horiz-adv-x="651" 
 />
    <glyph glyph-name="currency" unicode="&#xa4;" 
d="M1059 1209l148 -149l-200 -200q30 -54 46 -110t16 -113q0 -117 -65 -220q23 -24 49 -49.5t52 -51.5l51 -52q26 -25 49 -47l-148 -147l-200 201q-109 -67 -221 -67q-54 0 -110.5 16t-112.5 47l-200 -201l-147 149l200 201q-62 115 -62 221q0 116 63 220q-23 23 -48.5 49
t-51.5 52t-51.5 51t-47.5 47l149 149l200 -200q52 34 105.5 49.5t113.5 15.5q55 0 111 -16t111 -47zM863 639q0 47 -16.5 87t-48.5 72q-65 65 -162 65q-92 0 -161 -66q-34 -32 -50 -71.5t-16 -86.5q0 -98 65 -163q68 -65 162 -65q95 0 162 65q65 68 65 163z" />
    <glyph glyph-name="brokenbar" unicode="&#xa6;" horiz-adv-x="690" 
d="M445 444v-776h-218v776h218zM445 1416v-776h-218v776h218z" />
    <glyph glyph-name="section" unicode="&#xa7;" horiz-adv-x="1024" 
d="M828 1216q-192 90 -296 90q-78 0 -122 -30.5t-44 -84.5q0 -67 181 -170q12 -7 22 -12.5t16 -9.5q103 -57 170 -105.5t100 -86.5v1q69 -81 69 -188q0 -86 -39 -152.5t-117 -120.5q52 -48 73 -98.5t21 -110.5q0 -147 -108 -237q-104 -86 -279 -86q-71 0 -150.5 16
t-176.5 48v219q100 -45 177 -67t129 -22q84 0 130 32t46 91q0 39 -51 87t-145 102q-5 3 -11 6t-11 6q-105 59 -172.5 107.5t-100.5 86.5q-67 79 -67 188q0 86 38.5 154.5t115.5 117.5q-92 86 -92 210q0 136 106 221q103 82 270 82q72 0 151.5 -16t166.5 -48v-220zM654 705
q-65 61 -278 179q3 2 6 4.5t8 5.5l-31 -2l8 -4q4 -2 9 -4q-93 -72 -93 -140q0 -60 56 -116v1q63 -60 281 -178q45 35 69 70.5t24 68.5q0 60 -59 115z" />
    <glyph glyph-name="dieresis" unicode="&#xa8;" horiz-adv-x="1024" 
d="M560 1530h249v-249h-249v249zM189 1530h249v-249h-249v249z" />
    <glyph glyph-name="copyright" unicode="&#xa9;" horiz-adv-x="2048" 
d="M998 1466q301 0 517 -216q215 -214 215 -518q0 -301 -215 -516q-216 -216 -517 -216t-517 216q-215 215 -215 516q0 304 215 518q216 216 517 216zM998 1312q-238 0 -408 -170q-85 -85 -128.5 -188.5t-43.5 -221.5t43.5 -220t128.5 -187q171 -171 408 -171q239 0 410 171
q168 168 168 407q0 240 -168 410q-170 170 -410 170zM1310 939q-81 41 -149 60t-128 19q-64 0 -114.5 -18.5t-85.5 -56.5q-71 -72 -71 -211q0 -138 73 -213t208 -75q57 0 121.5 19t145.5 61v-185q-75 -34 -147 -49.5t-141 -15.5q-110 0 -195.5 31t-149.5 93
q-127 124 -127 334q0 208 127 333q129 123 345 123q72 0 143 -15.5t145 -45.5v-188z" />
    <glyph glyph-name="guillemotleft" unicode="&#xab;" horiz-adv-x="1253" 
d="M1051 1097v-257l-271 -242q67 -60 136 -121.5t135 -120.5v-257l-502 448v102zM639 1097v-257l-271 -242q67 -60 136 -121.5t135 -120.5v-257l-502 448v102z" />
    <glyph glyph-name="logicalnot" unicode="&#xac;" horiz-adv-x="1716" 
d="M199 875h1274v-603h-216v385h-1058v218z" />
    <glyph glyph-name="sfthyphen" unicode="&#xad;" horiz-adv-x="739" 
d="M76 667h568v-212h-568v212z" />
    <glyph glyph-name="registered" unicode="&#xae;" horiz-adv-x="2048" 
d="M998 1466q301 0 517 -216q215 -214 215 -518q0 -301 -215 -516q-216 -216 -517 -216t-517 216q-215 215 -215 516q0 304 215 518q216 216 517 216zM979 1171q361 0 361 -256q0 -78 -41 -134t-115 -83q20 -20 42 -50t48 -72l147 -238q155 164 155 394q0 240 -168 410
q-170 170 -410 170q-238 0 -408 -170q-85 -85 -128.5 -188.5t-43.5 -221.5t43.5 -220t128.5 -187q171 -171 408 -171q236 0 406 167h-202l-132 211q-26 44 -47 70t-35 37q-29 20 -70 20h-34v-338h-204v850h299zM884 1017v-205h88q96 0 128 23q31 22 31 78t-35.5 80
t-123.5 24h-88z" />
    <glyph glyph-name="macron" unicode="&#xaf;" horiz-adv-x="1024" 
d="M187 1505h624v-197h-624v197z" />
    <glyph glyph-name="degree" unicode="&#xb0;" horiz-adv-x="1024" 
d="M499 1320q-64 0 -108 -44t-44 -109q0 -63 44 -107v1q44 -44 108 -44t108 44v-1q44 44 44 107q0 64 -45 109q-44 44 -107 44zM499 1500q66 0 127.5 -26t106.5 -74q95 -95 95 -233q0 -136 -96 -232q-95 -95 -235 -95t-233 94q-94 94 -94 233q0 138 95 236q97 97 234 97z
" />
    <glyph glyph-name="plusminus" unicode="&#xb1;" horiz-adv-x="1716" 
d="M944 1276v-368h529v-218h-529v-367h-216v367h-529v218h529v368h216zM199 218h1274v-218h-1274v218z" />
    <glyph glyph-name="acute" unicode="&#xb4;" horiz-adv-x="1024" 
d="M619 1612h266l-359 -414h-215z" />
    <glyph glyph-name="paragraph" unicode="&#xb6;" 
d="M1070 1474v-1661h-191v1487h-123v-1487h-192v806q-196 21 -307 125q-120 114 -120 301q0 194 133 311q133 118 347 118h453z" />
    <glyph glyph-name="periodcentered" unicode="&#xb7;" horiz-adv-x="651" 
d="M188 852h257v-298h-257v298z" />
    <glyph glyph-name="guillemotright" unicode="&#xbb;" horiz-adv-x="1253" 
d="M171 1097l502 -448v-102l-502 -448v257l272 242q-68 60 -137 121.5t-135 120.5v257zM583 1097l502 -448v-102l-502 -448v257l271 242q-67 60 -136 121.5t-135 120.5v257z" />
    <glyph glyph-name="circumflex" unicode="&#x2c6;" horiz-adv-x="1024" 
d="M414 1612h170l270 -414h-198l-157 213q-38 -53 -78.5 -107.5t-78.5 -105.5h-198z" />
    <glyph glyph-name="uni10A0" unicode="&#x10a0;" horiz-adv-x="1267" 
d="M696 1595q0 -216 230.5 -437.5t230.5 -579.5q-2 -254 -137.5 -448t-390.5 -194q-238 0 -378.5 194t-139.5 457q0 194 87 353l252 -85q-61 -198 -61 -294q0 -217 66.5 -300.5t175.5 -83.5q150 0 202.5 114t52.5 284q0 280 -227 487.5t-225 532.5h262z" />
    <glyph glyph-name="uni10A1" unicode="&#x10a1;" horiz-adv-x="1262" 
d="M632 -64q-229 3 -375.5 156t-146.5 424q1 208 121 356t298 165l21 127q10 118 -139 178t-149 251h276q-2 -84 139 -147.5t123 -268.5l-28 -147q141 -17 260.5 -161.5t119.5 -352.5q0 -264 -148.5 -420.5t-371.5 -159.5zM631 177q115 0 181.5 71.5t68.5 263.5
q0 143 -70.5 220t-159.5 77q-128 0 -198.5 -76.5t-70.5 -220.5q0 -187 73.5 -261t175.5 -74z" />
    <glyph glyph-name="uni10A2" unicode="&#x10a2;" horiz-adv-x="1399" 
d="M1289 535q0 -274 -166 -436q-166 -163 -423 -163q-269 0 -429.5 170t-154.5 426q-6 205 157 381.5t424 175.5h78q48 58 47 165q0 55 -36 82t-143 23q-109 0 -137.5 -39t-30.5 -114l-260 1q-1 211 126 298.5t304 87.5q178 1 306 -79.5t128 -245.5q-1 -138 -65 -250
q275 -204 275 -483zM1017 535q0 110 -81 211.5t-238 103.5q-130 -1 -220.5 -105t-90.5 -210q0 -212 99 -285t214 -73q109 0 213 70t104 288z" />
    <glyph glyph-name="uni10A3" unicode="&#x10a3;" horiz-adv-x="1862" 
d="M235 299l153 18q-277 295 -278 674q0 276 130 440t392 163q174 0 302 -106q135 106 297 106q221 0 371 -143t150 -422q0 -261 -155 -417t-366 -156q-205 0 -363 154t-158 418q0 138 85 297q-91 34 -162 34q-108 0 -180 -82.5t-72 -285.5q2 -191 71 -349t253 -308
q346 -30 516.5 -116.5t206.5 -278.5h-366q0 71 -77 111.5t-332 40.5q-238 1 -418 -33v241zM1231 692q92 0 170 82t78 257q2 163 -69 246t-179 83q-92 -1 -170.5 -84.5t-78.5 -246.5q0 -176 78.5 -256.5t170.5 -80.5z" />
    <glyph glyph-name="uni10A4" unicode="&#x10a4;" horiz-adv-x="1261" 
d="M1151 480q-2 -289 -156 -415t-381 -127q-175 1 -339.5 110t-164.5 391q0 123 80 273l235 -116q-44 -106 -44 -208q0 -99 66.5 -155t165.5 -56q139 0 202 61.5t63 241.5v708q0 77 -59.5 124t-175.5 47q-132 0 -175 -51t-43 -118q0 -86 48 -154l-231 -106q-84 123 -84 255
q-2 160 135.5 284t347.5 124q249 0 378.5 -121.5t131.5 -286.5v-705z" />
    <glyph glyph-name="uni10A5" unicode="&#x10a5;" horiz-adv-x="1262" 
d="M1127 1169q1 -198 -163 -315q188 -142 188 -381q0 -245 -136.5 -389.5t-388.5 -144.5q-245 0 -381 131t-136 371q0 102 49 243l271 -64q-55 -97 -55 -234q0 -87 68.5 -148t183.5 -61q113 0 182.5 56t69.5 125v160q0 98 -34 158t-113 60h-128v237h128q60 0 91.5 48
t31.5 148q0 76 -54.5 133.5t-150.5 57.5q-138 -1 -180.5 -52.5t-39.5 -102.5q0 -54 27 -116l-259 -81q-39 112 -39 207q0 148 141 264t353 116q219 0 346.5 -129t127.5 -297z" />
    <glyph glyph-name="uni10A6" unicode="&#x10a6;" horiz-adv-x="1342" 
d="M712 -64q-213 3 -367.5 147.5t-154.5 421.5q0 130 88 282q-75 69 -121.5 156t-46.5 216q1 200 108.5 318t310.5 118q225 -1 323.5 -138.5t98.5 -274.5q-4 -107 -24 -164q305 -124 305 -513q-1 -277 -161 -421.5t-359 -147.5zM711 173q114 4 181.5 78t67.5 250
q0 151 -71 227.5t-178 76.5q-109 0 -179.5 -77t-70.5 -227q0 -181 73.5 -252.5t176.5 -75.5zM696 1154q0 86 -30.5 145.5t-129.5 59.5q-91 0 -128.5 -36t-37.5 -168t59 -187q80 71 244 68q23 41 23 118z" />
    <glyph glyph-name="uni10A7" unicode="&#x10a7;" horiz-adv-x="1892" 
d="M1191 -51q323 457 323 906q0 253 -76 378.5t-185 125.5q-102 0 -170 -76q69 -251 69 -508q-1 -431 -156 -633.5t-363 -205.5q-208 3 -365.5 205.5t-157.5 648.5q0 395 142.5 599t380.5 204q153 0 303 -132q123 133 295 132q283 1 417 -207t134 -531q0 -491 -287 -906
h-304zM630 177q102 0 175 131.5t76 468.5q0 321 -69.5 451.5t-178.5 130.5q-126 0 -188 -132.5t-64 -456.5q2 -330 76.5 -463.5t172.5 -129.5z" />
    <glyph glyph-name="uni10A8" unicode="&#x10a8;" horiz-adv-x="1261" 
d="M740 -40q140 486 140 875q0 267 -72.5 397.5t-177.5 126.5q-105 0 -176.5 -128t-72.5 -396q0 -386 151 -875h-305q-117 535 -117 852q1 353 136.5 567t383.5 214q249 1 385 -213.5t136 -567.5q0 -315 -115 -852h-296z" />
    <glyph glyph-name="uni10A9" unicode="&#x10a9;" horiz-adv-x="1261" 
d="M878 454q0 207 -53 283.5t-137 76.5h-116v235h84q90 0 123.5 33.5t33.5 154.5q0 111 -243 357h330q184 -164 184 -353q-1 -192 -127 -309q194 -172 194 -471q0 -253 -146.5 -387.5t-380.5 -135.5q-219 1 -366.5 130t-147.5 405q0 167 60 317l235 -102q-31 -116 -24 -204
q0 -188 68.5 -249.5t173.5 -57.5q143 0 199 75t56 202z" />
    <glyph glyph-name="uni10AA" unicode="&#x10aa;" horiz-adv-x="2375" 
d="M303 292l168 24q-361 300 -361 681q1 280 147 438.5t353 158.5q187 0 294 -150q98 150 278 150q184 0 287 -147q49 86 123.5 116.5t171.5 30.5q208 0 354.5 -146.5t146.5 -450.5q0 -217 -176 -491l-343 3q248 291 248 489q0 222 -65.5 291.5t-163.5 69.5
q-175 6 -175 -272v-270h-252v270q0 268 -156 268q-157 0 -157 -268v-270h-251v270q0 272 -167 272q-78 0 -151.5 -73.5t-73.5 -287.5q0 -356 453 -641q521 -17 746.5 -99.5t258.5 -314.5h-332q-43 122 -210 149.5t-380 27.5q-396 3 -615 -69v241z" />
    <glyph glyph-name="uni10AB" unicode="&#x10ab;" horiz-adv-x="1260" 
d="M1150 465q0 -223 -151 -374.5t-376 -151.5t-369 155t-144 372q0 254 135.5 411t378.5 157q139 0 254 -87v231q5 85 -57 132.5t-171 47.5q-126 0 -173 -40.5t-51 -143.5h-268q-2 215 135 317t359 102q207 0 352.5 -117.5t145.5 -290.5v-720zM623 177q119 0 189.5 74.5
t70.5 209.5q0 181 -75.5 259t-184.5 78q-107 0 -174.5 -74t-67.5 -264q0 -137 66.5 -210t175.5 -73z" />
    <glyph glyph-name="uni10AC" unicode="&#x10ac;" horiz-adv-x="1262" 
d="M646 -64q-240 3 -387.5 166.5t-148.5 399.5v728q1 180 119.5 271t244.5 91h586v-232l-552 -1q-126 0 -126 -109v-326q126 117 263 115q217 0 362 -132.5t145 -408.5q0 -270 -146.5 -414.5t-359.5 -147.5zM645 173q105 0 169.5 66.5t64.5 258.5q0 151 -63.5 229t-171.5 78
q-109 0 -185.5 -77t-76.5 -230q0 -192 78.5 -258.5t184.5 -66.5z" />
    <glyph glyph-name="uni10AD" unicode="&#x10ad;" horiz-adv-x="1852" 
d="M795 1124q1 240 -165 235q-130 0 -189.5 -119.5t-55.5 -413.5q0 -421 336 -867h-355q-254 436 -256 838q0 419 152.5 607.5t359.5 188.5q185 0 303 -196q112 196 306 196q216 1 363.5 -188t147.5 -604q0 -407 -254 -842h-346q329 445 329 867q0 294 -59.5 413.5
t-192.5 119.5q-171 5 -171 -237l1 -528h-254v530z" />
    <glyph glyph-name="uni10AE" unicode="&#x10ae;" horiz-adv-x="1261" 
d="M628 1593q0 -72 246.5 -109t246.5 -308q0 -194 -158 -294q188 -177 186 -352q2 -298 -149 -444.5t-372 -146.5q-223 0 -370.5 144.5t-147.5 413.5q0 106 33 238l262 -64q-26 -93 -26 -174q0 -172 72 -248t177 -76q97 4 173.5 65.5t76.5 287.5q0 121 -49 186t-161 64
l-108 1l2 239h149q138 0 138 160q0 109 -264 132.5t-264 284.5h307z" />
    <glyph glyph-name="uni10AF" unicode="&#x10af;" horiz-adv-x="1263" 
d="M1152 551q1 -343 -145.5 -477.5t-374.5 -135.5q-222 1 -371 120t-151 324q2 106 38 215l262 -69q-27 -102 -29 -172q0 -56 72 -120t179 -59q143 0 196 70t54 301l-1 799l-182 -22v-126q0 -205 -134 -321t-383 -118l-2 249q125 -1 191 39.5t67 176.5l-1 72l-269 -42v231
l723 89v37h261v-1061z" />
    <glyph glyph-name="uni10B0" unicode="&#x10b0;" horiz-adv-x="1853" 
d="M796 766q0 202 -156 202q-259 0 -259 -331q0 -357 350 -678h-381q-240 321 -240 674q2 223 75 400.5t223 308.5q296 258 787 258v-238q-579 -37 -701 -201l169 43q143 0 263 -154q123 154 305 154q223 1 367.5 -143.5t143.5 -432.5q1 -348 -238 -669h-366
q333 321 333 670q0 174 -70.5 256.5t-178.5 82.5q-165 0 -165 -202v-380h-261v380z" />
    <glyph glyph-name="uni10B1" unicode="&#x10b1;" horiz-adv-x="1280" 
d="M959 1234q0 -260 105 -379.5t106 -375.5q-1 -227 -154.5 -383.5t-371.5 -156.5q-228 0 -381 163.5t-135 395.5v1095h271v-1093q0 -155 72 -241.5t173 -81.5q109 0 180.5 75t73.5 228q0 200 -103.5 318.5t-104.5 435.5h269z" />
    <glyph glyph-name="uni10B2" unicode="&#x10b2;" horiz-adv-x="1543" 
d="M1433 725q-3 -365 -180 -576q-178 -212 -485 -210q-326 0 -492 223.5t-166 566.5q0 415 192 583.5t352 190.5q-5 25 -11.5 48t-9.5 33h263l-19 -79q158 -17 348.5 -177t207.5 -603zM1151 731q0 284 -82 404.5t-200 169.5l27 -775h-261l30 774q-114 -41 -199 -165
t-85 -414q0 -241 95.5 -394.5t292.5 -153.5q208 14 295 158.5t87 395.5z" />
    <glyph glyph-name="uni10B3" unicode="&#x10b3;" horiz-adv-x="1334" 
d="M1224 552q0 -331 -136.5 -472t-384.5 -142q-222 1 -372 127t-150 377q0 105 62 273l262 -92q-52 -104 -52 -237q1 -93 69 -151t181 -58q143 0 195.5 58t52.5 313v738q0 73 -95 73q-104 0 -104 -59v-361h-243v361q-4 59 -53 58h-121q-107 0 -225 72l92 227q96 -63 140 -63
h112q94 5 184 -140q94 139 246 139q124 0 232 -89.5t108 -213.5v-738z" />
    <glyph glyph-name="uni10B4" unicode="&#x10b4;" horiz-adv-x="1901" 
d="M1105 -57q-278 0 -476.5 103.5t-198.5 246.5l305 3q58 -119 371 -119q249 0 329 66.5t87 207.5q-7 189 -137 193h-139l2 223h131q78 1 108.5 85t27.5 209q0 106 -46 152t-159 46q-115 0 -200 -75q41 -167 43 -252q-2 -262 -153.5 -414t-366.5 -153q-231 1 -377 166.5
t-146 404.5q0 251 144 404t379 153q222 0 350 -142q151 142 327 142q216 0 348.5 -118.5t132.5 -321.5q0 -269 -184 -390q102 -69 134.5 -143t32.5 -163q-3 -288 -187 -401t-482 -113zM633 700q123 0 184 77.5t66 255.5q-5 183 -74.5 257t-171.5 69q-92 0 -174 -71.5
t-82 -251.5q0 -181 66.5 -258.5t185.5 -77.5z" />
    <glyph glyph-name="uni10B5" unicode="&#x10b5;" horiz-adv-x="1263" 
d="M880 997q0 80 -58 157.5t-214 77.5q-105 0 -120 -71.5t-15 -161.5h-267q0 200 112.5 320.5t290.5 120.5q150 0 271 -82v235h272v-1041q1 -375 -152.5 -494t-367.5 -121q-228 2 -375 121t-147 382q0 102 63 242l248 -83q-40 -78 -38 -214q0 -89 71.5 -148.5t177.5 -59.5
q119 0 183.5 61.5t65.5 308.5z" />
    <glyph glyph-name="uni10B6" unicode="&#x10b6;" horiz-adv-x="1851" 
d="M225 280l186 28q-299 353 -301 673q0 309 147.5 461t364.5 152q175 0 303 -145q121 145 305 145q224 0 367.5 -152t143.5 -414q0 -296 -121 -493h-305q156 215 156 494q0 163 -71.5 248.5t-178.5 85.5q-175 -4 -175 -187v-408h-251v408q2 183 -165 183q-96 0 -172.5 -82
t-76.5 -293q4 -314 337 -639q249 -8 475.5 -101.5t308.5 -303.5h-348q-61 118 -182 145.5t-281 27.5q-180 2 -466 -80v247z" />
    <glyph glyph-name="uni10B7" unicode="&#x10b7;" horiz-adv-x="1261" 
d="M1151 1595v-1046q0 -372 -151.5 -491t-368.5 -120q-230 1 -375.5 127t-145.5 354q0 126 16 167l276 -62q-22 -47 -21 -138q0 -86 70 -147.5t179 -61.5q111 -4 179.5 54t69.5 333l-1 159q-115 -49 -227 -49q-212 0 -357 134.5t-145 378.5q0 167 89 406h282
q-100 -271 -100 -421q0 -137 71 -199t160 -62t158 45t69 136v503h273z" />
    <glyph glyph-name="uni10B8" unicode="&#x10b8;" horiz-adv-x="1262" 
d="M401 1305q0 54 -148 54h-141v234h153q194 0 272 -132q92 132 312 133q139 0 221 -80.5t80 -197.5v-822q2 -276 -155 -415.5t-361 -139.5q-225 0 -374.5 144.5t-149.5 409.5q1 266 145 403.5t377 137.5q125 2 247 -87v358q0 54 -133 54q-94 0 -94 -54v-126h-251v126z
M634 177q109 0 177 75t68 237q0 152 -69.5 230.5t-179.5 78.5q-108 0 -178.5 -77.5t-70.5 -231.5q1 -166 69 -239t184 -73z" />
    <glyph glyph-name="uni10B9" unicode="&#x10b9;" horiz-adv-x="1262" 
d="M724 -42q156 282 156 560q0 185 -70.5 261t-178.5 76q-115 0 -181.5 -65t-66.5 -255v-575h-273v1257q2 377 371 377q460 0 461 -387h-270q4 153 -185 153q-104 0 -104 -121v-258q92 108 247 110q264 -2 393 -161.5t129 -407.5q0 -317 -107 -564h-321z" />
    <glyph glyph-name="uni10BA" unicode="&#x10ba;" horiz-adv-x="1465" 
d="M1303 1130q0 -173 -131 -263q183 -142 183 -320q0 -262 -160.5 -436t-446.5 -174q-288 2 -463 246t-175 623q0 366 122 788h289q-141 -380 -141 -770q0 -278 96.5 -465t276.5 -182q174 0 252 107.5t78 253.5q0 174 -111 174h-252v228h227q88 0 88 175q0 68 -114.5 145.5
t-114.5 333.5h257q2 -162 122 -240.5t118 -223.5z" />
    <glyph glyph-name="uni10BB" unicode="&#x10bb;" horiz-adv-x="1262" 
d="M631 -64q-218 3 -369 158t-152 424q1 279 152 425t369 146q138 0 248 -108l1 612h272v-1035q0 -320 -157 -469.5t-364 -152.5zM634 177q119 0 182.5 84t63.5 259q-1 171 -67.5 253t-178.5 82q-102 0 -177 -83.5t-75 -251.5q0 -176 73.5 -259.5t178.5 -83.5z" />
    <glyph glyph-name="uni10BC" unicode="&#x10bc;" horiz-adv-x="1262" 
d="M861 1179h-251v126q0 54 -94 54q-133 0 -133 -54v-358q122 89 247 87q233 0 377 -137.5t145 -403.5q0 -265 -149.5 -409.5t-374.5 -144.5q-204 0 -361 139.5t-155 415.5v822q-2 117 80 197.5t221 80.5q220 -1 312 -133q78 132 272 132h153v-234h-141q-148 0 -148 -54
v-126zM628 177q116 0 184 73t69 239q0 154 -70.5 231.5t-178.5 77.5q-110 0 -179.5 -78.5t-69.5 -230.5q0 -162 68 -237t177 -75z" />
    <glyph glyph-name="uni10BD" unicode="&#x10bd;" horiz-adv-x="1284" 
d="M857 866h-320q-160 0 -266.5 86t-106.5 225q0 130 96.5 232.5t248.5 102.5h285l-4 81h274l1 -81h109v-225h-82l61 -812q0 -312 -164 -424t-357 -113q-215 1 -368.5 120t-153.5 383q0 107 57 226l250 -95q-35 -53 -35 -186q0 -86 71 -149.5t179 -59.5q143 0 195.5 59.5
t52.5 224.5zM842 1082l-21 215h-295q-105 0 -105 -104q0 -112 107 -111h314z" />
    <glyph glyph-name="uni10BE" unicode="&#x10be;" horiz-adv-x="1262" 
d="M631 -64q-207 3 -364 152.5t-157 469.5v1035h272l1 -612q110 108 248 108q218 0 369 -146t152 -425q-1 -269 -152 -424t-369 -158zM628 177q105 0 178.5 83.5t73.5 259.5q0 168 -75 251.5t-177 83.5q-112 0 -178.5 -82t-67.5 -253q0 -175 63.5 -259t182.5 -84z" />
    <glyph glyph-name="uni10BF" unicode="&#x10bf;" horiz-adv-x="1264" 
d="M180 1511l336 -75l24 146h278l-56 -190l292 -54v-246l-330 70l-19 -114q188 -37 317.5 -183.5t131.5 -384.5q-2 -238 -138.5 -389.5t-391.5 -151.5q-222 -2 -368 145.5t-146 389.5q0 88 24 197l262 -51q-13 -59 -13 -142q0 -145 69.5 -225t167.5 -76q124 -4 193.5 68.5
t69.5 242.5q-2 183 -97.5 264t-375.5 124l65 329l-295 53v253z" />
    <glyph glyph-name="uni10C0" unicode="&#x10c0;" horiz-adv-x="1263" 
d="M1153 358q0 -203 -123.5 -312.5t-389.5 -106.5q-246 -3 -388 107.5t-142 312.5v167h270v-139q0 -131 77.5 -173.5t189.5 -36.5q129 -6 180.5 31t51.5 153q7 160 -46 160h-347v206h337q55 0 54 109q2 100 -54 100h-346v208h344q47 0 47 89q0 73 -140 79q-478 34 -478 282
h314q0 -46 310 -72q261 -22 261 -276q0 -137 -113 -201q123 -74 123 -212q0 -137 -129 -214q135 -81 137 -261z" />
    <glyph glyph-name="uni10D0" unicode="&#x10d0;" horiz-adv-x="1140" 
d="M1040 444q-2 -174 -127.5 -320t-345.5 -146q-226 -1 -346.5 162t-119.5 332q0 151 86 298l227 -108q-51 -126 -51 -190q-1 -139 58.5 -204t149.5 -63q106 -2 156 68.5t51 175.5q0 197 -198 342.5t-198 395.5h254q1 -176 202.5 -319t201.5 -424z" />
    <glyph glyph-name="uni10D1" unicode="&#x10d1;" horiz-adv-x="1138" 
d="M448 1555q1 -67 123.5 -138.5t126.5 -202.5l-1 -175q105 -12 223 -144.5t118 -360.5q0 -251 -130.5 -404t-337.5 -152q-209 0 -339.5 148.5t-130.5 407.5q0 248 120.5 367.5t244.5 143.5l-1 169q-3 82 -148 134.5t-141 206.5h273zM569 207q93 -4 150.5 68.5t57.5 255.5
q0 173 -64 243t-144 70t-144 -70t-64 -243q0 -183 66 -253.5t142 -70.5z" />
    <glyph glyph-name="uni10D2" unicode="&#x10d2;" horiz-adv-x="1264" 
d="M1164 48q0 -225 -155 -377.5t-377 -152.5q-236 0 -384 159t-148 371q0 209 152.5 357.5t397.5 142.5q104 107 99 210q-6 53 -34 80t-115 27q-105 0 -141.5 -32.5t-14.5 -154.5l-234 -29q-15 79 -15 142q-1 135 118 216.5t269 81.5q162 0 278.5 -89t117.5 -222
q2 -144 -106 -288q292 -161 292 -442zM903 48q0 116 -74.5 214.5t-196.5 100.5q-109 -1 -190 -96t-82 -222q2 -165 91 -231.5t187 -67.5q103 1 184 72t81 230z" />
    <glyph glyph-name="uni10D3" unicode="&#x10d3;" horiz-adv-x="1658" 
d="M178 -122l138 13q-216 317 -216 650q0 232 116.5 390t352.5 158q134 0 245 -97q117 97 275 97q230 0 349.5 -166.5t119.5 -363.5q0 -238 -140 -391t-329 -153q-181 0 -325 145.5t-144 398.5q0 133 69 284q-58 22 -126 22q-93 0 -146.5 -83t-53.5 -243q-1 -165 63 -331.5
t205 -302.5q407 -68 523 -184.5t144 -201.5h-339q-95 169 -389 169q-208 1 -392 -59v249zM1089 242q79 0 143.5 78.5t64.5 239.5q0 150 -64.5 227.5t-143.5 77.5q-100 0 -154 -77.5t-54 -227.5q0 -160 63 -239t145 -79z" />
    <glyph glyph-name="uni10D4" unicode="&#x10d4;" horiz-adv-x="1149" 
d="M1039 88q-1 -324 -156.5 -446.5t-320.5 -123.5q-221 1 -341.5 139.5t-119.5 330.5q-1 126 52 243l247 -65q-38 -122 -38 -228q0 -79 54 -135.5t146 -55.5q141 -1 177.5 66t36.5 275v622q1 66 -40.5 110.5t-148.5 44.5q-97 0 -135 -38.5t-42 -97.5q0 -64 28 -166l-245 -58
q-40 115 -40 219q0 142 128.5 253.5t305.5 111.5q206 0 328.5 -115.5t123.5 -267.5v-618z" />
    <glyph glyph-name="uni10D5" unicode="&#x10d5;" horiz-adv-x="1141" 
d="M1022 725q0 -196 -195 -322q211 -146 214 -312l-3 -187q0 -143 -130.5 -264t-318.5 -122q-213 1 -351 120.5t-137 349.5q0 109 82 228l245 -71q-67 -100 -67 -207q0 -78 54.5 -135t161.5 -56q121 -1 161.5 51.5t40.5 126.5v158q0 93 -40.5 154t-83.5 61h-143v199h143
q40 0 73 61.5t33 166.5q0 69 -49.5 106t-136.5 37q-96 -3 -130 -38.5t-36 -100.5q0 -55 17 -105l-242 -58q-32 60 -32 166q0 148 128.5 252.5t296.5 104.5q203 0 324 -102t121 -262z" />
    <glyph glyph-name="uni10D6" unicode="&#x10d6;" horiz-adv-x="1192" 
d="M624 -22q-209 0 -339.5 146.5t-130.5 409.5q0 78 15.5 152t65.5 179q-155 115 -155 317q0 152 87.5 262t268.5 110q167 1 261.5 -102.5t93.5 -263.5q1 -67 -31 -149q210 -73 271 -204.5t61 -300.5q0 -254 -130.5 -405.5t-337.5 -150.5zM617 203q111 0 162.5 72.5
t51.5 255.5q0 177 -53.5 244.5t-117.5 88.5q-101 -74 -219 -81q-26 -104 -26 -252q0 -185 60 -256.5t142 -71.5zM549 1158q1 186 -111 183q-111 3 -111 -183q1 -205 109 -205q114 0 113 205z" />
    <glyph glyph-name="uni10D7" unicode="&#x10d7;" horiz-adv-x="1658" 
d="M1089 -3q209 321 209 572q0 143 -65 221t-133 75q-76 3 -121 -37q59 -101 60 -287q-1 -232 -131.5 -398t-337.5 -165q-196 -1 -333 150.5t-137 412.5q0 250 130.5 399t339.5 149q151 0 267 -100q100 100 252 100q221 0 345 -158t124 -363q0 -294 -169 -571h-300zM570 203
q81 0 144 78t64 261q0 170 -55 246.5t-157 76.5q-75 3 -140 -75.5t-65 -247.5q0 -179 69 -259t140 -80z" />
    <glyph glyph-name="uni10D8" unicode="&#x10d8;" horiz-adv-x="1138" 
d="M673 0q104 347 104 569q0 142 -64.5 219t-143.5 77q-88 0 -147.5 -75t-60.5 -221q0 -223 114 -569h-278q-97 372 -97 568q0 226 131 373.5t338 147.5q208 0 338.5 -147.5t130.5 -373.5q0 -196 -97 -568h-268z" />
    <glyph glyph-name="uni10D9" unicode="&#x10d9;" horiz-adv-x="1140" 
d="M778 114q-1 122 -47.5 174t-120.5 52h-130v213h138q69 0 105 31t36 117q0 88 -207 247l183 155q284 -213 285 -406q1 -137 -168 -256q186 -117 188 -300v-165q-2 -195 -132.5 -326t-337.5 -132q-209 1 -339.5 129t-130.5 342q0 107 56 262l240 -71q-35 -134 -35 -242
q0 -76 56 -134t153 -57q116 -1 161.5 56t46.5 164v147z" />
    <glyph glyph-name="uni10DA" unicode="&#x10da;" horiz-adv-x="2097" 
d="M1997 577q0 -198 -171 -480h-280q190 294 190 481q0 160 -49.5 223.5t-151.5 63.5q-118 3 -118 -187v-301h-251v301q-5 187 -128 187t-118 -187v-301h-251v301q0 190 -118 190q-63 0 -126 -69v1q-64 -73 -64 -249q1 -294 339 -644q353 -18 608 -100.5t286 -287.5h-315
q-9 95 -175.5 124t-314.5 32q-126 0 -268.5 -18t-305.5 -56v240l186 30q-301 353 -301 679q0 238 131 388.5t320 150.5q170 0 252 -138q113 138 235 138q153 0 253 -136q95 136 255 136q179 0 315 -144.5t136 -367.5z" />
    <glyph glyph-name="uni10DB" unicode="&#x10db;" horiz-adv-x="1158" 
d="M1038 525q0 -254 -130.5 -400.5t-337.5 -146.5q-209 -1 -339.5 149t-130.5 398q0 236 130.5 374.5t339.5 137.5q95 1 207 -92v228q0 162 -184 160q-85 0 -135 -33t-50 -134h-256q-1 196 126 292t317 96q176 0 309.5 -109.5t133.5 -273.5v-646zM569 203q99 0 153.5 71
t54.5 247q0 147 -63.5 219t-144.5 72q-80 0 -144 -72.5t-64 -218.5q0 -175 56 -246.5t152 -71.5z" />
    <glyph glyph-name="uni10DC" unicode="&#x10dc;" horiz-adv-x="1158" 
d="M960 1554v-221l-491 1q-88 0 -88 -94v-274q115 102 209 101q207 1 337.5 -142t130.5 -395q0 -259 -130.5 -406t-337.5 -146q-209 -1 -339.5 146t-130.5 406v683q0 173 91.5 257t321.5 84h427zM586 203q99 0 155 72.5t56 250.5q0 172 -59 244.5t-146 72.5
q-96 0 -153.5 -68.5t-57.5 -248.5t59 -251.5t146 -71.5z" />
    <glyph glyph-name="uni10DD" unicode="&#x10dd;" horiz-adv-x="1647" 
d="M698 678q0 184 -129 184q-90 3 -149 -69t-59 -251q0 -240 255 -543h-327q-189 285 -189 542q0 224 123.5 386t336.5 162q151 1 263 -146q105 146 264 146q200 0 330 -152t130 -396q0 -259 -189 -542h-314q242 303 242 543q1 182 -56 252.5t-152 67.5q-139 0 -139 -184
v-301h-241v301z" />
    <glyph glyph-name="uni10DE" unicode="&#x10de;" horiz-adv-x="1138" 
d="M578 1554q0 -77 215 -128q218 -72 217 -279q0 -169 -196 -272q224 -157 224 -368q0 -221 -130.5 -375.5t-337.5 -153.5q-209 -1 -339.5 144.5t-130.5 384.5q0 98 43 243l236 -67q-18 -111 -18 -180q0 -155 54.5 -227.5t153.5 -72.5q106 0 157 72.5t51 227.5
q0 154 -51 212t-120 58h-94v228h114q118 3 118 125q6 100 -163 142q-298 60 -298 286h295z" />
    <glyph glyph-name="uni10DF" unicode="&#x10df;" horiz-adv-x="1148" 
d="M1038 0q0 -228 -130.5 -354.5t-337.5 -127.5q-209 1 -339.5 123.5t-130.5 319.5q0 89 34 201l250 -48q-23 -117 -23 -204q0 -50 54.5 -107t156.5 -57q120 0 162.5 51t42.5 218v835l-122 -7v-170q0 -163 -125.5 -272.5t-363.5 -110.5l-2 240q239 4 240 168l-1 137l-250 -8
v223l634 22v35h251v-1107z" />
    <glyph glyph-name="uni10E0" unicode="&#x10e0;" horiz-adv-x="1648" 
d="M689 678q0 188 -120 187q-90 0 -148.5 -70.5t-58.5 -252.5q0 -241 256 -543h-338q-179 283 -179 542q-1 430 274 722t740 292v-230q-163 1 -358.5 -48t-260.5 -209l65 21q149 0 261 -140q101 140 266 140q222 0 341 -158t119 -390q0 -259 -179 -542h-328q246 306 246 543
q0 169 -60 246t-147 77q-131 1 -131 -187v-301h-260v301z" />
    <glyph glyph-name="uni10E1" unicode="&#x10e1;" horiz-adv-x="1158" 
d="M895 1135q0 -227 81.5 -314t81.5 -280q0 -258 -130.5 -411t-338.5 -152q-208 -1 -338.5 153.5t-130.5 409.5v1013h261v-1012q0 -179 54.5 -259t153.5 -80q125 0 166.5 86.5t41.5 252.5q0 108 -79 208.5t-81 384.5h258z" />
    <glyph glyph-name="uni10E2" unicode="&#x10e2;" horiz-adv-x="1398" 
d="M1301 266q0 -335 -157 -541t-445 -206q-289 0 -444 205.5t-155 541.5q0 422 138 597t355 223l-28 225h262l-26 -224q222 -36 361 -217.5t139 -603.5zM1038 266q0 293 -64 424t-183 193l31 -648h-251l30 648q-85 -17 -168 -148.5t-73 -466.5q0 -242 84 -382t253 -140
q178 0 259.5 138.5t81.5 381.5z" />
    <glyph glyph-name="uni10E3" unicode="&#x10e3;" horiz-adv-x="1199" 
d="M1089 91q0 -319 -131 -445.5t-339 -127.5q-207 1 -338.5 123.5t-131.5 346.5q0 137 91 298l227 -90q-58 -135 -55 -251q0 -100 63 -151.5t141 -47.5q117 0 164 70t47 272v693q0 84 -97 87q-83 -3 -83 -56v-327h-243v327q1 53 -60 53h-61q-86 -7 -233 87l109 214l162 -77
h43q100 0 175 -90q79 90 189 90q164 0 262.5 -74t98.5 -230v-694z" />
    <glyph glyph-name="uni10E4" unicode="&#x10e4;" horiz-adv-x="1713" 
d="M947 -481q-333 0 -536 222l132 164q169 -159 386 -159q250 0 320.5 54t69.5 123v144q0 136 -89 141h-80l-1 217h75q55 -1 85 44t30 205q0 105 -45 148t-121 43q-105 0 -195 -74q62 -121 60 -213q0 -195 -130.5 -354t-338.5 -159t-338.5 159t-130.5 355q0 218 130.5 364
t338.5 146q181 1 297 -119q172 119 298 119q199 0 313.5 -128.5t114.5 -294.5q1 -214 -218 -357q193 -119 193 -259v-118q0 -167 -164.5 -290t-455.5 -123zM563 292q108 0 161 70t54 218q0 118 -47.5 201.5t-155.5 83.5q-114 0 -164 -77t-50 -208q1 -148 64.5 -218
t137.5 -70z" />
    <glyph glyph-name="uni10E5" unicode="&#x10e5;" horiz-adv-x="1158" 
d="M777 712q0 61 -54.5 107t-152.5 46q-82 4 -120.5 -33.5t-38.5 -119.5q0 -64 35 -125l-227 -108q-70 127 -68 238q-2 173 125 273.5t299 98.5q108 0 202 -91v557h261v-1462q0 -335 -130.5 -454.5t-337.5 -119.5q-209 0 -339.5 121t-130.5 350q0 124 52 273l259 -60
q-50 -142 -50 -264q0 -80 59 -136.5t146 -56.5q96 0 153.5 48t57.5 295v623z" />
    <glyph glyph-name="uni10E6" unicode="&#x10e6;" horiz-adv-x="1647" 
d="M178 -107l173 10q-251 357 -251 610q0 272 131 424t329 152q175 0 263 -152q101 152 264 152q217 0 338.5 -153.5t121.5 -376.5q0 -200 -119 -415l-287 -3q146 221 145 419q1 170 -57.5 237.5t-150.5 67.5q-139 0 -139 -187v-281h-231v281q0 187 -139 187
q-96 0 -151.5 -91t-56.5 -260q1 -321 296 -596q201 -41 379.5 -104.5t274.5 -294.5h-322q-52 126 -162 145.5t-312 19.5q-57 0 -337 -21v230z" />
    <glyph glyph-name="uni10E7" unicode="&#x10e7;" horiz-adv-x="1138" 
d="M1038 1088v-1036q0 -294 -130.5 -413.5t-337.5 -120.5q-209 1 -339.5 125t-130.5 318q-3 65 34 176l242 -73q-15 -49 -15 -126q0 -80 53 -136t156 -60q124 4 165.5 74t41.5 250v217q-95 -48 -190 -50q-170 0 -310 115.5t-140 365.5q0 183 108 375h286
q-134 -266 -134 -389q0 -133 54 -185t137 -52q69 1 129 42.5t60 166.5v416h261z" />
    <glyph glyph-name="uni10E8" unicode="&#x10e8;" horiz-adv-x="1159" 
d="M365 1267q-2 68 -110 67h-155v221h166q132 0 219 -139q128 139 290 137q116 0 190 -75.5t73 -234.5l1 -688q-1 -252 -132.5 -415t-335.5 -162q-210 -1 -340.5 147.5t-130.5 424.5q0 205 130.5 346t340.5 141q110 0 204 -95l1 325q0 64 -93 67q-85 1 -85 -65v-101h-233v99
zM570 204q80 -1 142.5 72.5t62.5 273.5q0 118 -53.5 190.5t-151.5 71.5q-100 1 -154.5 -72t-54.5 -190q0 -187 66.5 -266.5t142.5 -79.5z" />
    <glyph glyph-name="uni10E9" unicode="&#x10e9;" horiz-adv-x="1158" 
d="M635 -1q162 307 162 531q0 142 -56 213t-149 71q-100 0 -156 -57t-55 -211v-546h-261v1200q0 354 367 354q375 0 376 -367h-260q-2 145 -113 147q-109 -2 -109 -114v-259q85 66 207 75q209 0 339.5 -140t130.5 -363q0 -256 -126 -534h-297z" />
    <glyph glyph-name="uni10EA" unicode="&#x10ea;" horiz-adv-x="1327" 
d="M1182 666q0 -155 -167 -257q212 -117 212 -328q0 -266 -170 -414t-409 -148q-277 1 -412.5 215t-135.5 587q0 356 118 768h291q-149 -372 -147 -756q0 -263 56 -425t228 -162t246 87.5t74 256.5q0 202 -99 204h-239v210h235q58 1 58 140q1 83 -112 152t-113 293h268
q2 -132 109.5 -212t108.5 -211z" />
    <glyph glyph-name="uni10Eb" unicode="&#x10eb;" horiz-adv-x="1158" 
d="M569 -22q-208 -1 -338.5 150.5t-130.5 412.5q0 259 130.5 403.5t338.5 144.5q102 0 208 -85v552h261v-1015q0 -252 -130.5 -408t-338.5 -155zM572 203q87 0 146 80t59 259q0 170 -59 246.5t-146 76.5q-102 0 -156.5 -76.5t-54.5 -246.5q0 -183 56 -261t155 -78z" />
    <glyph glyph-name="uni10EC" unicode="&#x10ec;" horiz-adv-x="1159" 
d="M794 1168h-233v101q0 62 -85 65q-93 -3 -93 -67l1 -325q94 95 204 95q210 0 340.5 -141t130.5 -346q0 -276 -130.5 -424.5t-340.5 -147.5q-204 -1 -335.5 162t-132.5 415l1 688q-1 159 73 234.5t190 75.5q162 2 290 -137q87 139 219 139h166v-221h-155q-108 -3 -110 -67
v-99zM589 204q76 0 142.5 79.5t66.5 266.5q0 117 -54.5 190t-154.5 72q-98 1 -151.5 -71.5t-53.5 -190.5q0 -200 62.5 -273.5t142.5 -72.5z" />
    <glyph glyph-name="uni10ED" unicode="&#x10ed;" horiz-adv-x="1177" 
d="M762 440h-241q-151 0 -251.5 85t-100.5 218q0 122 90 220.5t235 98.5h235l-38 492h261l38 -492h87v-222h-77l38 -747q0 -321 -130.5 -447.5t-337.5 -127.5q-208 1 -339 126t-131 345q0 107 63 271l261 -57q-64 -145 -64 -265q2 -90 59 -141t147 -51q117 0 164 63t48 276z
M751 645l-11 213h-232q-97 -9 -97 -119q3 -88 100 -94h240z" />
    <glyph glyph-name="uni10EE" unicode="&#x10ee;" horiz-adv-x="1158" 
d="M589 -22q-208 -1 -338.5 155t-130.5 408v1015h261v-552q106 85 208 85q208 0 338.5 -144.5t130.5 -403.5q0 -261 -130.5 -412.5t-338.5 -150.5zM586 203q99 0 155 78t56 261q0 170 -54.5 246.5t-156.5 76.5q-87 0 -146 -76.5t-59 -246.5q0 -179 59 -259t146 -80z" />
    <glyph glyph-name="uni10EF" unicode="&#x10ef;" horiz-adv-x="1140" 
d="M153 1078l307 -79l7 241h296l-59 -282l261 -28v-266l-298 81l-31 -234q141 -27 271.5 -167.5t132.5 -353.5q-2 -200 -132.5 -335.5t-337.5 -135.5q-214 0 -342 129t-128 309q0 146 66 268l228 -87q-32 -78 -32 -178q0 -91 43.5 -152.5t166.5 -61.5q111 0 158.5 64
t48.5 186q-1 142 -76.5 220.5t-333.5 159.5l59 410l-273 22z" />
    <glyph glyph-name="uni10F0" unicode="&#x10f0;" horiz-adv-x="1139" 
d="M1039 364q-1 -180 -132.5 -283t-324.5 -103q-216 0 -349 104t-133 293v108h262v-82q0 -121 70 -159.5t162 -38.5q88 0 134.5 37t46.5 136q0 196 -38 196h-231v180h223q47 0 45 105q1 80 -45 80h-231v183h229q38 0 35 85q3 85 -132 111q-346 27 -346 259h264
q13 -43 190 -75q285 -44 285 -237q0 -157 -76 -227q84 -65 84 -182q0 -127 -89 -197q97 -94 97 -293z" />
    <glyph glyph-name="uni2010" unicode="&#x2010;" horiz-adv-x="739" 
d="M76 667h568v-212h-568v212z" />
    <glyph glyph-name="uni2011" unicode="&#x2011;" horiz-adv-x="739" 
d="M76 667h568v-212h-568v212z" />
    <glyph glyph-name="figuredash" unicode="&#x2012;" 
d="M83 658h1104v-194h-1104v194z" />
    <glyph glyph-name="endash" unicode="&#x2013;" horiz-adv-x="1024" 
d="M79 658h840v-194h-840v194z" />
    <glyph glyph-name="emdash" unicode="&#x2014;" horiz-adv-x="2048" 
d="M92 658h1811v-194h-1811v194z" />
    <glyph glyph-name="uni2015" unicode="&#x2015;" horiz-adv-x="2048" 
d="M-2 658h2000v-194h-2000v194z" />
    <glyph glyph-name="uni2016" unicode="&#x2016;" horiz-adv-x="1024" 
d="M445 1542v-2000h-218v2000h218zM775 1542v-2000h-218v2000h218z" />
    <glyph glyph-name="underscoredbl" unicode="&#x2017;" horiz-adv-x="1024" 
d="M1032 -266v-192h-1066v192h1066zM1032 56v-192h-1066v192h1066z" />
    <glyph glyph-name="quoteleft" unicode="&#x2018;" horiz-adv-x="651" 
d="M402 950h-257v200l166 324h178l-87 -334v-190z" />
    <glyph glyph-name="quoteright" unicode="&#x2019;" horiz-adv-x="651" 
d="M226 1474h258v-180l-166 -324h-178l86 334v170z" />
    <glyph glyph-name="quotesinglbase" unicode="&#x201a;" horiz-adv-x="651" 
d="M223 298h257v-199l-166 -325h-178l87 335v189z" />
    <glyph glyph-name="quotereversed" unicode="&#x201b;" horiz-adv-x="651" 
d="M406 1474v-170q10 -38 21 -80.5t22 -86.5t22 -87t20 -80h-176l-166 324v180h257z" />
    <glyph glyph-name="quotedblleft" unicode="&#x201c;" horiz-adv-x="1061" 
d="M407 950h-257v200l166 324h178l-87 -334v-190zM797 950h-258v200l166 324h178l-86 -334v-190z" />
    <glyph glyph-name="quotedblright" unicode="&#x201d;" horiz-adv-x="1061" 
d="M228 1474h257v-199l-166 -325h-178l87 335v189zM617 1474h257v-199l-166 -325h-177l86 335v189z" />
    <glyph glyph-name="quotedblbase" unicode="&#x201e;" horiz-adv-x="1061" 
d="M617 298h257v-199l-166 -325h-177l86 335v189zM228 298h257v-199l-166 -325h-178l87 335v189z" />
    <glyph glyph-name="uni201F" unicode="&#x201f;" horiz-adv-x="1061" 
d="M407 1474v-190q10 -38 21 -80.5t22 -86.5t22 -87t21 -80h-177l-166 324v200h257zM796 1474v-190q10 -38 21 -80.5t22 -86.5t22 -87t21 -80h-177l-166 324v200h257z" />
    <glyph glyph-name="dagger" unicode="&#x2020;" horiz-adv-x="1024" 
d="M387 1474h224v-399h348v-202h-348v-1060h-224v1060h-348v202h348v399z" />
    <glyph glyph-name="daggerdbl" unicode="&#x2021;" horiz-adv-x="1024" 
d="M959 212h-348v-399h-224v399h-348v203h348v458h-348v202h348v399h224v-399h348v-202h-348v-458h348v-203z" />
    <glyph glyph-name="bullet" unicode="&#x2022;" horiz-adv-x="1208" 
d="M278 752q0 65 22.5 119t67.5 99q91 90 223 90q128 0 218 -90t90 -218q0 -132 -90 -220q-91 -91 -220 -91q-130 0 -221 91q-90 90 -90 220z" />
    <glyph glyph-name="uni2023" unicode="&#x2023;" horiz-adv-x="1208" 
d="M280 345v811l727 -405z" />
    <glyph glyph-name="onedotenleader" unicode="&#x2024;" horiz-adv-x="685" 
d="M204 298h259v-298h-259v298z" />
    <glyph glyph-name="twodotenleader" unicode="&#x2025;" horiz-adv-x="1367" 
d="M860 298h259v-298h-259v298zM213 298h259v-298h-259v298z" />
    <glyph glyph-name="ellipsis" unicode="&#x2026;" horiz-adv-x="2048" 
d="M869 298h258v-298h-258v298zM1515 298h259v-298h-259v298zM222 298h259v-298h-259v298z" />
    <glyph glyph-name="uni2027" unicode="&#x2027;" horiz-adv-x="651" 
d="M189 886h257v-298h-257v298z" />
    <glyph glyph-name="minute" unicode="&#x2032;" horiz-adv-x="465" 
d="M-1 1063l191 411h269l-318 -411h-142z" />
    <glyph glyph-name="second" unicode="&#x2033;" horiz-adv-x="765" 
d="M-1 1063l191 411h269l-318 -411h-142zM299 1063l191 411h269l-318 -411h-142z" />
    <glyph glyph-name="uni2034" unicode="&#x2034;" horiz-adv-x="1065" 
d="M299 1063l191 411h269l-318 -411h-142zM-1 1063l191 411h269l-318 -411h-142zM599 1063l191 411h269l-318 -411h-142z" />
    <glyph glyph-name="uni2035" unicode="&#x2035;" horiz-adv-x="465" 
d="M445 1063h-141l-318 411h268z" />
    <glyph glyph-name="uni2036" unicode="&#x2036;" horiz-adv-x="765" 
d="M445 1063h-141l-318 411h268zM745 1063h-141l-318 411h268z" />
    <glyph glyph-name="uni2037" unicode="&#x2037;" horiz-adv-x="1065" 
d="M445 1063h-141l-318 411h268zM1045 1063h-141l-318 411h268zM745 1063h-141l-318 411h268z" />
    <glyph glyph-name="uni2038" unicode="&#x2038;" horiz-adv-x="694" 
d="M717 -458h-215l-163 216q-40 -53 -83 -109t-81 -107h-215l381 475z" />
    <glyph glyph-name="guilsinglleft" unicode="&#x2039;" horiz-adv-x="819" 
d="M634 1097v-257l-272 -242q67 -60 136.5 -121.5t135.5 -120.5v-257l-503 448v102z" />
    <glyph glyph-name="guilsinglright" unicode="&#x203a;" horiz-adv-x="819" 
d="M166 1097l502 -448v-102l-502 -448v257l271 242q-67 60 -136 121.5t-135 120.5v257z" />
    <glyph glyph-name="Euro" unicode="&#x20ac;" 
d="M1151 1057q-67 78 -119 126t-90 68q-73 40 -163 40q-129 0 -215 -81.5t-121 -229.5h555l-77 -173h-502q-1 -15 -1 -32v-39q0 -15 -0.5 -23.5t-0.5 -14.5t0.5 -12.5t1.5 -18.5h439l-77 -173h-338q17 -74 47.5 -132t73 -98t97 -61.5t118.5 -21.5q45 0 86 10t77 29
q74 39 209 195v-291q-190 -152 -380 -152q-237 0 -392 146q-146 137 -189 376h-218l77 173h121v13q0 12 -0.5 25.5t-0.5 30.5q0 18 0.5 32.5t0.5 27.5v11h-198l77 173h141q22 121 68.5 213t121.5 161q155 146 391 146q195 0 380 -150v-293z" />
    <glyph glyph-name="trademark" unicode="&#x2122;" horiz-adv-x="2048" 
d="M1082 1474l149 -220q35 54 71 111t70 109h205v-606h-164v392q-37 -57 -72 -111.5t-70 -108.5h-82l-149 222v-394h-165v606h207zM824 1474v-146h-192v-460h-166v460h-190v146h548z" />
    <glyph glyph-name="_" horiz-adv-x="1158" 
d="M589 -22q-208 -1 -338.5 155t-130.5 408v1015h261v-552q106 85 208 85q208 0 338.5 -144.5t130.5 -403.5q0 -261 -130.5 -412.5t-338.5 -150.5zM586 203q99 0 155 78t56 261q0 170 -54.5 246.5t-156.5 76.5q-87 0 -146 -76.5t-59 -246.5q0 -179 59 -259t146 -80z" />
  </font>
</defs>
</svg>
